<svg width="240" height="68" viewBox="0 0 240 68" fill="none" xmlns="http://www.w3.org/2000/svg">
<path d="M10.6866 67.0968C10.3026 67.0872 9.93027 66.963 9.61731 66.7403L1.63039 61.3871C1.14912 61.0379 0.752654 60.5848 0.470409 60.0615C0.188165 59.5381 0.0273854 58.9579 0 58.3639L0 15.8418C0.0215146 15.2359 0.200141 14.646 0.518362 14.1299C0.836583 13.6138 1.28347 13.1892 1.81521 12.8979L27.1423 0.231027C27.4261 0.083856 27.7402 0.00475997 28.0598 0C28.2891 0.00283211 28.5153 0.0528361 28.7244 0.146897C28.9335 0.240959 29.1209 0.377063 29.2751 0.546731C29.4293 0.7164 29.5469 0.915999 29.6206 1.1331C29.6943 1.35019 29.7225 1.58014 29.7034 1.80861V11.2213L37.664 7.26084C37.9475 7.11298 38.2617 7.03384 38.5815 7.02981C38.8101 7.03354 39.0356 7.0842 39.2439 7.17866C39.4522 7.27312 39.6389 7.40936 39.7924 7.57893C39.9459 7.7485 40.0629 7.94779 40.1362 8.16444C40.2095 8.3811 40.2375 8.6105 40.2184 8.83842V33.8223C40.1969 34.4282 40.0183 35.0182 39.7001 35.5343C39.3819 36.0504 38.935 36.4749 38.4032 36.7663L27.0631 42.4165C26.511 42.6537 25.9108 42.7575 25.311 42.7197C24.7113 42.6819 24.1289 42.5034 23.6109 42.1987L15.657 36.8785C15.3818 36.7319 15.1547 36.5093 15.0026 36.2372C14.8506 35.965 14.7801 35.6548 14.7996 35.3437C14.8191 35.0326 14.9277 34.7336 15.1125 34.4826C15.2974 34.2315 15.5505 34.039 15.8418 33.9279L27.1423 28.2777C27.3971 28.121 27.6115 27.9069 27.7686 27.6524C27.9256 27.3979 28.0208 27.1102 28.0466 26.8123V13.8946L13.0695 21.3799C12.8144 21.5361 12.5997 21.7502 12.4426 22.0047C12.2855 22.2593 12.1905 22.5472 12.1652 22.8452V65.3476C12.1786 65.7626 12.0557 66.1707 11.8154 66.5093C11.6832 66.6851 11.5116 66.8274 11.3144 66.9249C11.1173 67.0223 10.9 67.0722 10.68 67.0704L10.6866 67.0968ZM28.0202 1.63699C28.0202 1.63699 27.9608 1.63699 27.875 1.7096L2.5545 14.3699C2.29858 14.5268 2.0833 14.7418 1.92617 14.9976C1.76903 15.2534 1.67448 15.5426 1.65019 15.8418V58.3639C1.67193 58.6949 1.7631 59.0176 1.91776 59.311C2.07243 59.6044 2.28713 59.862 2.54789 60.0669L10.515 65.3476V22.8452C10.5377 22.2404 10.7168 21.6519 11.035 21.137C11.3531 20.6222 11.7994 20.1987 12.3302 19.9079L28.04 12.053V1.80861C28.0503 1.74964 28.0503 1.68936 28.04 1.63039L28.0202 1.63699ZM16.5019 35.4461L16.5745 35.4989L24.5614 40.8257C24.8371 40.9697 25.1401 41.0542 25.4505 41.0735C25.761 41.0928 26.072 41.0466 26.3634 40.9379L37.664 35.2877C37.919 35.1314 38.1338 34.9174 38.2909 34.6628C38.4479 34.4083 38.543 34.1204 38.5683 33.8223V8.82522C38.5785 8.76625 38.5785 8.70597 38.5683 8.647C38.5683 8.647 38.5089 8.647 38.423 8.71961L29.7034 13.0695V26.8123C29.6808 27.4171 29.5016 28.0057 29.1835 28.5205C28.8653 29.0354 28.419 29.4589 27.8882 29.7496L16.5745 35.4065L16.5019 35.4461Z" fill="white"/>
<path fill-rule="evenodd" clip-rule="evenodd" d="M197.127 5.76708C196.921 5.68051 196.7 5.6355 196.476 5.63464L196.483 5.65439C196.263 5.65611 196.045 5.70129 195.842 5.78733C195.64 5.87338 195.456 5.99859 195.302 6.15579C195.148 6.313 195.026 6.49909 194.944 6.7034C194.862 6.90771 194.821 7.12621 194.824 7.34636C194.821 7.5644 194.862 7.78078 194.944 7.98282C195.026 8.18486 195.147 8.36851 195.301 8.52301C195.455 8.67751 195.638 8.79975 195.84 8.88258C196.042 8.96541 196.258 9.00717 196.476 9.0054C196.696 9.00801 196.915 8.96711 197.119 8.88507C197.323 8.80302 197.509 8.68144 197.667 8.5273C197.824 8.37315 197.949 8.18948 198.035 7.98682C198.121 7.78417 198.166 7.56651 198.168 7.34636C198.17 7.12275 198.127 6.901 198.043 6.69383C197.959 6.48666 197.835 6.29815 197.678 6.13911C197.52 5.98008 197.333 5.85365 197.127 5.76708ZM197.464 12.5605H195.574V27.7026H197.464V12.5605ZM190.913 14.3515H185.778V22.6402C185.684 23.5327 185.918 24.4288 186.436 25.1616C186.747 25.5197 187.136 25.8016 187.573 25.9853C188.011 26.1691 188.484 26.25 188.958 26.2216C189.506 26.2304 190.053 26.164 190.584 26.0241L190.913 27.749C190.27 27.9262 189.605 28.0148 188.938 28.0123C188.178 28.0461 187.42 27.9086 186.72 27.61C186.021 27.3115 185.397 26.8595 184.896 26.2874C184.237 25.4579 183.869 24.365 183.869 22.5743V14.3515H179.642V12.5608H183.882V8.45269H185.771V12.5608H190.906L190.913 14.3515ZM82.0417 14.0546H82.9371L83.2004 12.2573C83.0029 12.2244 82.338 12.1914 82.0746 12.1914C81.1521 12.1707 80.238 12.3701 79.4079 12.7731C78.5779 13.1761 77.8558 13.7711 77.3016 14.5088V12.5338H75.4121V27.6759H77.3016V17.399C77.6775 16.4387 78.327 15.6099 79.1697 15.0153C80.0123 14.4208 81.0109 14.0868 82.0417 14.0546ZM56.1289 12.6134V35.6557H58.0513V25.5763C58.6947 26.3746 59.5135 27.0138 60.444 27.4443C61.3746 27.8748 62.3919 28.0849 63.4168 28.0583C65.0323 28.0706 66.6104 27.573 67.9266 26.6363C68.9457 25.8995 69.7706 24.9262 70.3303 23.8C70.8899 22.6738 71.1676 21.4285 71.1393 20.1712C71.1496 18.9957 70.9027 17.8321 70.4159 16.7619C69.9292 15.6918 69.2144 14.741 68.3216 13.9762C66.9581 12.8829 65.2632 12.2862 63.5156 12.2842C62.4743 12.2719 61.4422 12.481 60.4877 12.8975C59.5332 13.314 58.678 13.9285 57.9789 14.7004V12.6134H56.1289ZM60.2726 25.3054C59.3241 24.727 58.5462 23.9072 58.0184 22.9297V17.0507C58.6061 16.1378 59.4083 15.3827 60.3551 14.8513C61.3019 14.32 62.3644 14.0286 63.4498 14.0025C64.78 14.0132 66.0667 14.4777 67.097 15.3192C67.7819 15.9152 68.327 16.6549 68.6934 17.4856C69.0598 18.3162 69.2386 19.2175 69.2169 20.1252C69.2515 20.91 69.1273 21.6938 68.8518 22.4296C68.5764 23.1653 68.1552 23.8379 67.6137 24.4071C67.0722 24.9763 66.4214 25.4304 65.7002 25.7421C64.9791 26.0539 64.2025 26.2169 63.4168 26.2215C62.3062 26.1999 61.2211 25.8837 60.2726 25.3054ZM98.9809 25.221C98.2269 26.1159 97.2821 26.8306 96.2157 27.3125C95.1494 27.7944 93.9886 28.0313 92.8187 28.0058C88.5789 28.0058 85.2279 24.826 85.2279 20.1056C85.2279 15.7671 88.1774 12.2054 92.4698 12.2054C96.5121 12.2054 99.4944 15.3852 99.4944 19.5987C99.4963 19.8186 99.4853 20.0384 99.4615 20.257H87.1174C87.2491 23.4698 89.336 26.1822 92.8187 26.1822C93.7439 26.2029 94.6615 26.0106 95.5005 25.6202C96.3395 25.2298 97.0776 24.6517 97.6576 23.9306L98.9809 25.221ZM87.2162 18.5387H97.5193C97.3788 17.2915 96.7847 16.1395 95.8499 15.3019C94.9152 14.4643 93.7052 13.9995 92.45 13.9961C89.764 13.9961 87.7758 15.9185 87.1832 18.5387H87.2162ZM108.014 26.2143C106.326 26.1633 104.71 25.5174 103.451 24.3907L102.253 25.8588C103.867 27.29 105.962 28.0589 108.119 28.0116C111.003 28.0116 113.386 26.2867 113.386 23.469C113.386 20.5155 110.679 19.762 108.282 19.0949C106.378 18.565 104.669 18.0896 104.669 16.6089C104.669 14.8512 106.421 14.0216 108.014 14.0216C109.378 14.0025 110.71 14.4328 111.806 15.2462L112.787 13.699C111.343 12.7429 109.647 12.2365 107.915 12.2441C105.367 12.2441 102.78 13.9031 102.78 16.655C102.78 19.4243 105.283 20.101 107.606 20.7292C109.619 21.2733 111.496 21.781 111.496 23.5809C111.496 25.1543 109.903 26.2143 108.014 26.2143ZM130.792 25.3847C130.039 26.2183 129.119 26.8836 128.091 27.3373C127.063 27.7911 125.951 28.0231 124.828 28.0182C120.621 28.0182 116.71 24.97 116.71 20.1179C116.695 19.083 116.887 18.0555 117.274 17.0955C117.661 16.1354 118.235 15.2621 118.963 14.5265C119.691 13.791 120.559 13.208 121.515 12.8115C122.471 12.4151 123.497 12.2132 124.532 12.2177C125.603 12.2009 126.667 12.4023 127.659 12.8097C128.65 13.2172 129.548 13.8222 130.299 14.5878L129.081 15.944C128.482 15.338 127.77 14.8562 126.985 14.5263C126.2 14.1964 125.357 14.0249 124.505 14.0216C122.888 14.0565 121.352 14.7323 120.233 15.9003C119.114 17.0683 118.506 18.6328 118.541 20.2496C118.575 21.8665 119.251 23.4032 120.419 24.5218C121.587 25.6404 123.152 26.2492 124.769 26.2143C125.639 26.2037 126.498 26.0128 127.291 25.6536C128.085 25.2944 128.795 24.7747 129.377 24.1273L130.792 25.3847ZM141.234 14.0546H142.129L142.393 12.2573C142.195 12.2244 141.53 12.1914 141.267 12.1914C140.345 12.1707 139.43 12.3701 138.6 12.7731C137.77 13.1761 137.048 13.7711 136.494 14.5088V12.5338H134.605V27.6759H136.494V17.399C136.87 16.4387 137.519 15.6099 138.362 15.0153C139.205 14.4208 140.203 14.0868 141.234 14.0546ZM147.363 35.6288L151.504 26.4514L144.677 12.5602H146.804L152.465 24.292L157.805 12.5602H159.826L149.351 35.6288H147.363ZM163.137 12.6134V35.6557H165.033V25.5763C165.677 26.3746 166.495 27.0138 167.426 27.4443C168.356 27.8748 169.374 28.0849 170.399 28.0583C172.014 28.0706 173.592 27.573 174.908 26.6363C175.928 25.8995 176.753 24.9262 177.312 23.8C177.872 22.6738 178.149 21.4285 178.121 20.1712C178.131 18.9957 177.885 17.8321 177.398 16.7619C176.911 15.6918 176.196 14.741 175.303 13.9762C173.94 12.8829 172.245 12.2862 170.497 12.2842C169.456 12.2719 168.424 12.481 167.47 12.8975C166.515 13.314 165.66 13.9285 164.961 14.7004V12.6134H163.137ZM167.281 25.3054C166.332 24.727 165.554 23.9072 165.027 22.9297V17.0507C165.614 16.1378 166.417 15.3827 167.363 14.8513C168.31 14.32 169.373 14.0286 170.458 14.0025C171.788 14.0126 173.075 14.4772 174.105 15.3192C174.79 15.9152 175.335 16.6549 175.702 17.4856C176.068 18.3162 176.247 19.2175 176.225 20.1252C176.26 20.91 176.136 21.6938 175.86 22.4296C175.585 23.1653 175.163 23.8379 174.622 24.4071C174.08 24.9763 173.43 25.4304 172.708 25.7421C171.987 26.0539 171.211 26.2169 170.425 26.2215C169.314 26.1999 168.229 25.8837 167.281 25.3054ZM207.78 27.6759L200.756 12.5602H202.81L208.373 24.6277L213.942 12.5602H215.996L209.005 27.6759H207.78ZM228.84 27.3125C229.907 26.8306 230.852 26.1159 231.606 25.221L230.282 23.9306C229.702 24.6517 228.964 25.2298 228.125 25.6202C227.286 26.0106 226.369 26.2029 225.443 26.1822C221.961 26.1822 219.874 23.4698 219.742 20.257H232.086C232.11 20.0384 232.121 19.8186 232.119 19.5987C232.119 15.3852 229.137 12.2054 225.094 12.2054C220.802 12.2054 217.853 15.7671 217.853 20.1056C217.853 24.826 221.204 28.0058 225.443 28.0058C226.613 28.0313 227.774 27.7944 228.84 27.3125ZM230.151 18.5387H219.841H219.814C220.407 15.9185 222.395 13.9961 225.081 13.9961C226.336 13.9995 227.546 14.4643 228.481 15.3019C229.416 16.1395 230.01 17.2915 230.151 18.5387ZM236.78 12.4031V12.8771H236.049V15.1682H235.516V12.8771H234.785V12.4031H236.78ZM239.625 12.4031L238.617 14.0555L237.61 12.4031H237.235V15.1682H237.768V13.6276L238.433 14.7139H238.802L239.467 13.6276V15.1682H240V12.4031H239.625Z" fill="white"/>
</svg>
