<svg width="16" height="16" viewBox="0 0 16 16" fill="none" xmlns="http://www.w3.org/2000/svg">
<path d="M11.0666 8.8H8.66663C8.22663 8.8 7.86663 9.16 7.86663 9.6V12C7.86663 12.44 8.22663 12.8 8.66663 12.8H11.0666C11.5066 12.8 11.8666 12.44 11.8666 12V9.6C11.8666 9.16 11.5066 8.8 11.0666 8.8ZM11.0666 0.8V1.6H4.66663V0.8C4.66663 0.36 4.30663 0 3.86663 0C3.42663 0 3.06663 0.36 3.06663 0.8V1.6H2.26663C1.37863 1.6 0.674626 2.32 0.674626 3.2L0.666626 14.4C0.666626 15.28 1.37863 16 2.26663 16H13.4666C14.3466 16 15.0666 15.28 15.0666 14.4V3.2C15.0666 2.32 14.3466 1.6 13.4666 1.6H12.6666V0.8C12.6666 0.36 12.3066 0 11.8666 0C11.4266 0 11.0666 0.36 11.0666 0.8ZM12.6666 14.4H3.06663C2.62663 14.4 2.26663 14.04 2.26663 13.6V5.6H13.4666V13.6C13.4666 14.04 13.1066 14.4 12.6666 14.4Z" fill="#2CBDE5"/>
</svg>
