<svg width="60" height="60" viewBox="0 0 60 60" fill="none" xmlns="http://www.w3.org/2000/svg">
<path d="M45.2997 26.0079C45.2997 28.4585 45.2997 30.9091 45.2997 33.3597C45.4656 33.3597 45.6316 33.3597 45.7975 33.3597C49.0338 33.3597 52.1871 33.3597 55.4234 33.3597C56.5021 33.3597 57 33.913 57 34.8617C57 38.8142 57 42.7668 57 46.7194C57 47.747 56.4191 48.3004 55.3404 48.3004C52.1871 48.3004 49.0338 48.3004 45.7975 48.3004C45.6316 48.3004 45.4656 48.3004 45.2167 48.3004C45.2167 48.4585 45.2167 48.6957 45.2167 48.8538C45.2167 52.0158 45.2167 55.1779 45.2167 58.3399C45.2167 59.3676 44.7188 59.9209 43.64 60C43.4741 60 43.3081 60 43.1421 60C32.3546 60 21.65 60 10.8625 60C10.2816 60 9.78371 59.9209 9.45179 59.5257C9.28582 59.2885 9.11986 58.9723 9.03688 58.6561C8.9539 58.498 9.03688 58.3399 9.03688 58.2609C9.03688 39.4466 9.03688 20.6324 9.03688 1.81818C9.03688 1.58103 9.03688 1.26482 9.11986 1.02767C9.28582 0.395257 9.94967 0 10.6135 0C21.65 0 32.6035 0 43.64 0C44.6358 0 45.2167 0.632411 45.2167 1.58103C45.2167 4.58498 45.2167 7.58893 45.2167 10.5138C45.2167 10.6719 45.2167 10.83 45.2167 11.0672C45.3826 11.0672 45.5486 11.0672 45.7146 11.0672C48.9508 11.0672 52.1041 11.0672 55.3404 11.0672C56.3362 11.0672 56.917 11.6206 56.917 12.5692C56.917 16.5217 56.917 20.3953 56.917 24.3478C56.917 25.5336 56.4191 26.0079 55.1744 26.0079C52.0211 26.0079 48.8678 26.0079 45.7146 26.0079C45.7146 26.0079 45.5486 26.0079 45.2997 26.0079ZM14.8456 9.24901C14.8456 22.9249 14.8456 36.5217 14.8456 50.1186C23.0607 50.1186 31.3588 50.1186 39.574 50.1186C39.574 49.4862 39.574 48.9328 39.574 48.3794C39.408 48.3794 39.242 48.3794 39.0761 48.3794C37.5824 48.3794 36.0058 48.3794 34.5121 48.3794C33.2674 48.3794 32.7695 47.9051 32.7695 46.6403C32.7695 43.2411 32.7695 39.9209 32.7695 36.5217C32.7695 35.9684 32.7695 35.415 32.7695 34.8617C32.7695 33.913 33.3504 33.4387 34.3461 33.4387C35.9228 33.4387 37.5824 33.4387 39.159 33.4387C39.325 33.4387 39.491 33.4387 39.6569 33.4387C39.6569 32.8063 39.6569 32.1739 39.6569 31.5415C39.6569 30.9881 39.6569 30.3557 39.6569 29.7233C39.408 29.8814 39.242 30.0395 38.9931 30.1976C38.6612 30.4348 38.2463 30.5929 37.8314 30.3557C37.4164 30.1186 37.2505 29.8024 37.2505 29.4071C37.2505 28.6957 37.2505 27.9842 37.2505 27.2727C37.2505 26.8775 37.2505 26.4822 37.2505 26.087C36.1717 26.087 35.2589 26.087 34.2632 26.087C33.3504 26.087 32.6865 25.5336 32.6865 24.664C32.6865 20.6324 32.6865 16.6008 32.6865 12.5692C32.6865 11.6996 33.2674 11.1462 34.1802 11.1462C35.8398 11.1462 37.4164 11.1462 39.0761 11.1462C39.242 11.1462 39.408 11.1462 39.574 11.1462C39.574 10.5138 39.574 9.88142 39.574 9.32806C31.2758 9.24901 23.0607 9.24901 14.8456 9.24901ZM10.6135 1.50198C10.6135 20.4743 10.6135 39.4466 10.6135 58.498C21.65 58.498 32.6035 58.498 43.64 58.498C43.64 55.0988 43.64 51.7787 43.64 48.3794C42.8102 48.3794 41.8974 48.3794 41.0676 48.3794C41.0676 49.0909 41.0676 49.8024 41.0676 50.5138C41.0676 51.3043 40.7357 51.6206 39.9059 51.6206C31.3588 51.6206 22.8947 51.6206 14.3477 51.6206C14.2647 51.6206 14.0987 51.6206 14.0158 51.6206C13.6008 51.6206 13.2689 51.3043 13.1859 50.9091C13.1859 50.751 13.1859 50.5929 13.1859 50.4348C13.1859 36.6798 13.1859 22.9249 13.1859 9.09091C13.1859 8.93281 13.1859 8.7747 13.1859 8.6166C13.1859 8.22134 13.4349 7.98419 13.8498 7.90514C14.0987 7.82609 14.2647 7.82609 14.5136 7.82609C22.7288 7.82609 31.0269 7.82609 39.242 7.82609C39.574 7.82609 39.9059 7.82609 40.2378 7.82609C40.9017 7.82609 40.9846 7.98419 40.9846 8.53755C40.9846 9.40711 40.9846 10.1976 40.9846 11.0672C41.8974 11.0672 42.8102 11.0672 43.64 11.0672C43.64 7.90514 43.64 4.74308 43.64 1.50198C32.6865 1.50198 21.733 1.50198 10.6135 1.50198ZM55.5893 12.4901C48.4529 12.4901 41.3166 12.4901 34.0972 12.4901C34.0972 16.5217 34.0972 20.5534 34.0972 24.664C34.2632 24.664 34.4291 24.664 34.5951 24.664C35.6738 24.664 36.8356 24.664 37.9143 24.664C38.5782 24.664 38.5782 24.664 38.5782 25.2964C38.5782 26.4032 38.5782 27.4308 38.5782 28.6166C38.7441 28.5375 38.8271 28.4585 38.9931 28.3794C40.4038 27.2727 41.8974 26.166 43.3081 25.1383C43.64 24.8221 44.0549 24.7431 44.5528 24.7431C48.038 24.7431 51.5232 24.7431 55.0084 24.7431C55.1744 24.7431 55.3404 24.7431 55.5893 24.7431C55.5893 20.6324 55.5893 16.5217 55.5893 12.4901ZM55.5893 35.5731C55.5063 35.6522 55.3404 35.6522 55.2574 35.7312C51.8552 37.7075 48.5359 39.7628 45.1337 41.7391C44.8848 41.8972 44.7188 41.8972 44.3869 41.7391C41.0676 39.7628 37.7484 37.7866 34.4291 35.8103C34.3461 35.7312 34.2632 35.7312 34.0972 35.6522C34.0972 39.4466 34.0972 43.1621 34.0972 46.9565C41.2336 46.9565 48.37 46.9565 55.5063 46.9565C55.5893 43.1621 55.5893 39.3676 55.5893 35.5731ZM54.2616 34.7826C47.9551 34.7826 41.7315 34.7826 35.3419 34.7826C38.5782 36.6798 41.6485 38.5771 44.8018 40.3953C47.8721 38.498 51.0254 36.6798 54.2616 34.7826ZM41.0676 33.3597C41.9804 33.3597 42.8102 33.3597 43.723 33.3597C43.723 31.0672 43.723 28.8538 43.723 26.5613C42.8932 27.1937 42.0634 27.8261 41.2336 28.4585C41.1506 28.5375 41.0676 28.6166 41.0676 28.7747C41.0676 30.2767 41.0676 31.7787 41.0676 33.3597Z" fill="#6240A3"/>
<path d="M31.6907 53.834C31.6907 54.3083 31.6907 54.7826 31.6907 55.2569C28.6204 55.2569 25.633 55.2569 22.5627 55.2569C22.5627 54.7826 22.5627 54.3083 22.5627 53.834C25.633 53.834 28.7034 53.834 31.6907 53.834Z" fill="#6240A3"/>
<path d="M23.7246 5.61287C23.7246 5.13856 23.7246 4.66425 23.7246 4.18994C25.9651 4.18994 28.2056 4.18994 30.5291 4.18994C30.5291 4.66425 30.5291 5.13856 30.5291 5.61287C28.2886 5.61287 26.0481 5.61287 23.7246 5.61287Z" fill="#6240A3"/>
</svg>
