<svg width="60" height="60" viewBox="0 0 60 60" fill="none" xmlns="http://www.w3.org/2000/svg">
<path fill-rule="evenodd" clip-rule="evenodd" d="M0 30.0395C0 46.5613 13.4565 60 30 60C46.5435 60 60 46.4822 60 29.9605C60 13.4387 46.5435 0 30 0C13.4565 0 0 13.5178 0 30.0395ZM1.50396 30.0395C1.50396 14.3083 14.3272 1.58103 30 1.58103C45.6728 1.58103 58.496 14.3083 58.496 30.0395C58.496 45.7707 45.752 58.498 30 58.498C14.248 58.498 1.50396 45.7707 1.50396 30.0395ZM31.0292 20.3164V20.0792C31.8999 20.0792 32.6915 20.2373 33.0873 20.7116C33.5622 21.1069 33.7997 21.6603 33.958 22.2136C33.9976 22.4508 34.0371 22.6682 34.0767 22.8856C34.1163 23.1029 34.1559 23.3203 34.1954 23.5575H37.9949C37.9553 23.3203 37.9356 23.1029 37.9158 22.8856C37.896 22.6682 37.8762 22.4508 37.8366 22.2136C37.52 20.4745 36.6493 18.9725 35.0662 18.0239C33.8788 17.3124 32.5332 16.9172 31.1084 16.9172C30.9501 16.9172 30.8709 16.8381 30.8709 16.68V15.2571V14.7037H28.892V16.7591C28.892 16.9172 28.892 16.9962 28.7337 16.9962C27.863 16.9962 26.9923 17.1543 26.2007 17.4705C24.7759 17.9448 23.5886 18.7354 22.7179 20.0002C21.4514 21.8974 21.3722 23.8737 21.9263 26.0081C22.3221 27.5891 23.3511 28.6958 24.6968 29.5654C25.9633 30.435 27.3089 30.9093 28.7337 31.3836C28.892 31.4626 28.9712 31.5417 28.9712 31.6998V39.6049V39.8421H28.8129C28.6546 39.763 28.4962 39.763 28.3379 39.763C26.9131 39.684 25.9633 38.8935 25.4092 37.6286C25.0134 36.8381 24.9342 35.9686 24.9342 35.099C25.0134 34.9409 24.9342 34.8618 24.7759 34.8618H21.2931C21.2139 34.8618 21.1348 34.9409 21.1348 35.099C21.1348 35.6675 21.1987 36.1721 21.2692 36.7277C21.2771 36.7902 21.2851 36.8533 21.2931 36.9172C21.6889 38.7354 22.5596 40.3164 24.1427 41.4231C25.5675 42.3717 27.1506 42.846 28.8129 42.9251C28.9712 42.9251 29.0503 43.0041 29.0503 43.1622V44.1899V45.2966H31.0292V43.0041C31.2667 42.9646 31.524 42.9251 31.7813 42.8855C32.0385 42.846 32.2957 42.8065 32.5332 42.767C33.0873 42.6089 33.5622 42.4508 34.0371 42.2927C35.6994 41.7393 36.9659 40.7116 37.8366 39.1306C38.3907 38.182 38.6282 37.1543 38.7073 36.1267C38.7865 35.099 38.7865 34.0713 38.4699 33.0437C37.9949 31.3836 36.9659 30.1978 35.5411 29.3282C34.1955 28.5377 32.7706 27.9844 31.2667 27.5101C31.1084 27.431 31.0292 27.352 31.0292 27.1148V20.3164ZM31.1084 31.8579V31.6998C31.1875 31.6998 31.1875 31.6998 31.3458 31.7788L31.3458 31.7788C31.6097 31.9106 31.8823 32.0248 32.155 32.139C32.7003 32.3673 33.2456 32.5957 33.7205 32.9646C34.4329 33.518 34.9079 34.3085 34.987 35.2571C35.0662 36.1267 34.987 36.9172 34.5912 37.7077C34.1954 38.5773 33.483 39.0516 32.6915 39.4468C32.2957 39.684 31.8208 39.763 31.3458 39.8421C31.1875 39.8421 31.1084 39.8421 31.1084 39.6049V31.8579ZM29.0503 20.0792V27.0358C28.9712 26.9567 28.8129 26.9567 28.6546 27.0358C28.4171 26.9172 28.1796 26.8184 27.9422 26.7195C27.7047 26.6207 27.4672 26.5219 27.2298 26.4033C26.7548 26.1662 26.359 25.7709 26.0424 25.3757C25.7258 24.9014 25.4883 24.348 25.4883 23.7156C25.4883 23.2413 25.5675 22.767 25.6466 22.2927L25.6466 22.2927C25.9633 21.1069 26.834 20.4745 27.9422 20.2373C28.14 20.1978 28.3181 20.178 28.4962 20.1583C28.6743 20.1385 28.8524 20.1188 29.0503 20.0792Z" fill="#6240A3"/>
</svg>
