<svg width="147" height="24" viewBox="0 0 147 24" fill="none" xmlns="http://www.w3.org/2000/svg">
<path fill-rule="evenodd" clip-rule="evenodd" d="M112.72 0.105875C112.556 0.0366677 112.379 0.000687519 112.2 0L112.205 0.0157898C112.029 0.0171634 111.855 0.0532798 111.693 0.122067C111.531 0.190854 111.384 0.290957 111.261 0.416631C111.138 0.542306 111.041 0.691079 110.975 0.854412C110.91 1.01774 110.877 1.19242 110.879 1.36842C110.877 1.54273 110.91 1.71572 110.975 1.87724C111.041 2.03876 111.138 2.18558 111.261 2.30909C111.384 2.4326 111.53 2.53033 111.692 2.59655C111.853 2.66277 112.026 2.69615 112.2 2.69474C112.376 2.69682 112.551 2.66413 112.714 2.59854C112.877 2.53295 113.026 2.43575 113.152 2.31252C113.277 2.18929 113.378 2.04245 113.446 1.88044C113.515 1.71843 113.551 1.54443 113.553 1.36842C113.554 1.18966 113.52 1.01238 113.453 0.846759C113.386 0.681139 113.286 0.530435 113.161 0.403296C113.035 0.276156 112.885 0.175083 112.72 0.105875ZM112.99 5.53684H111.479V17.6421H112.99V5.53684ZM107.752 6.96861H103.647V13.5949C103.572 14.3084 103.759 15.0248 104.174 15.6107C104.422 15.897 104.733 16.1223 105.083 16.2692C105.432 16.4162 105.811 16.4808 106.189 16.4581C106.628 16.4652 107.065 16.412 107.489 16.3002L107.752 17.6791C107.238 17.8208 106.707 17.8916 106.174 17.8897C105.566 17.9167 104.96 17.8068 104.401 17.5681C103.841 17.3294 103.343 16.968 102.942 16.5107C102.416 15.8476 102.121 14.9739 102.121 13.5423V6.96861H98.7419V5.53704H102.131V2.25283H103.642V5.53704H107.747L107.752 6.96861ZM20.7159 6.73131H21.4317L21.6422 5.29447C21.4843 5.26815 20.9527 5.24183 20.7422 5.24183C20.0047 5.22525 19.2739 5.38465 18.6103 5.70683C17.9467 6.02901 17.3695 6.5047 16.9264 7.09446V5.51552H15.4159V17.6208H16.9264V9.40499C17.2269 8.63728 17.7462 7.97468 18.4199 7.49939C19.0935 7.0241 19.8918 6.75703 20.7159 6.73131ZM0 5.57876V23.9998H1.53684V15.9419C2.05119 16.5801 2.70577 17.0911 3.44971 17.4353C4.19364 17.7794 5.00691 17.9474 5.82631 17.9261C7.11775 17.936 8.37938 17.5381 9.43157 16.7893C10.2464 16.2003 10.9058 15.4222 11.3532 14.5218C11.8006 13.6215 12.0226 12.626 12 11.6209C12.0082 10.681 11.8108 9.7508 11.4217 8.89529C11.0326 8.03977 10.4611 7.27967 9.74736 6.66823C8.65738 5.7942 7.30239 5.31717 5.90526 5.3156C5.07276 5.30579 4.24767 5.47291 3.4846 5.8059C2.72154 6.13889 2.0379 6.63015 1.47895 7.24718V5.57876H0ZM3.31268 15.7253C2.55441 15.263 1.93251 14.6076 1.51052 13.8261V9.12612C1.98034 8.39632 2.62172 7.79266 3.37862 7.36788C4.13552 6.9431 4.98492 6.71012 5.85263 6.68928C6.91608 6.6978 7.94475 7.06917 8.76842 7.74192C9.31597 8.21837 9.75173 8.8097 10.0447 9.47379C10.3376 10.1379 10.4805 10.8584 10.4632 11.584C10.4908 12.2115 10.3915 12.8381 10.1713 13.4263C9.95105 14.0145 9.6144 14.5522 9.18148 15.0072C8.74856 15.4623 8.22827 15.8253 7.65176 16.0745C7.07525 16.3237 6.45438 16.4541 5.82631 16.4577C4.93837 16.4404 4.07094 16.1877 3.31268 15.7253ZM34.2578 15.6581C33.655 16.3736 32.8997 16.9449 32.0472 17.3301C31.1947 17.7154 30.2667 17.9048 29.3315 17.8844C25.942 17.8844 23.263 15.3423 23.263 11.5686C23.263 8.10021 25.6209 5.25285 29.0525 5.25285C32.2841 5.25285 34.6683 7.79495 34.6683 11.1634C34.6698 11.3392 34.661 11.5149 34.642 11.6897H24.7736C24.8788 14.2581 26.5473 16.4265 29.3315 16.4265C30.0711 16.4431 30.8046 16.2893 31.4754 15.9772C32.1461 15.6651 32.7362 15.203 33.1999 14.6265L34.2578 15.6581ZM24.8525 10.316H33.0894C32.977 9.31892 32.502 8.39794 31.7548 7.72831C31.0075 7.05868 30.0401 6.68716 29.0367 6.68443C26.8894 6.68443 25.2999 8.22127 24.8262 10.316H24.8525ZM41.479 16.4523C40.1294 16.4115 38.8375 15.8952 37.8317 14.9944L36.8738 16.1681C38.1642 17.3122 39.839 17.9269 41.5632 17.8891C43.8685 17.8891 45.7738 16.5102 45.7738 14.2575C45.7738 11.8964 43.6096 11.294 41.6933 10.7607C40.1711 10.3371 38.8053 9.95698 38.8053 8.77332C38.8053 7.36806 40.2053 6.7049 41.479 6.7049C42.5696 6.68962 43.6349 7.03363 44.5106 7.68385L45.2948 6.44701C44.1402 5.6826 42.7848 5.27781 41.4001 5.28385C39.3632 5.28385 37.2948 6.61017 37.2948 8.81016C37.2948 11.0241 39.2957 11.565 41.1531 12.0672C42.762 12.5022 44.2632 12.9081 44.2632 14.347C44.2632 15.6049 42.9896 16.4523 41.479 16.4523ZM59.6896 15.7893C59.0874 16.4557 58.3515 16.9876 57.5299 17.3503C56.7082 17.7131 55.8194 17.8985 54.9212 17.8946C51.5581 17.8946 48.4318 15.4577 48.4318 11.5788C48.4199 10.7514 48.573 9.92998 48.8822 9.16248C49.1914 8.39497 49.6505 7.6968 50.2327 7.10877C50.8148 6.52074 51.5084 6.05464 52.2727 5.73772C53.0371 5.42081 53.8569 5.25942 54.6844 5.26301C55.5412 5.24952 56.3918 5.41055 57.1845 5.73628C57.9771 6.06202 58.6951 6.54565 59.2949 7.15774L58.3212 8.24195C57.8428 7.75746 57.2734 7.37229 56.6456 7.10855C56.0179 6.84481 55.3442 6.7077 54.6633 6.70511C53.3707 6.73303 52.1422 7.27328 51.2479 8.20701C50.3537 9.14074 49.867 10.3915 49.8949 11.6841C49.9228 12.9766 50.4631 14.2052 51.3968 15.0994C52.3305 15.9937 53.5813 16.4804 54.8739 16.4525C55.5699 16.4441 56.2567 16.2914 56.8908 16.0043C57.5249 15.7171 58.0926 15.3016 58.5581 14.7841L59.6896 15.7893ZM68.037 6.73131H68.7528L68.9633 5.29447C68.8054 5.26815 68.2738 5.24183 68.0633 5.24183C67.3258 5.22525 66.595 5.38465 65.9314 5.70683C65.2678 6.02901 64.6906 6.5047 64.2475 7.09446V5.51552H62.737V17.6208H64.2475V9.40499C64.548 8.63728 65.0673 7.97468 65.741 7.49939C66.4146 7.0241 67.213 6.75703 68.037 6.73131ZM72.9368 23.979L76.2474 16.6422L70.7895 5.53691H72.4895L77.0158 14.9159L81.2842 5.53691H82.9L74.5263 23.979H72.9368ZM85.5472 5.57876V23.9998H87.063V15.9419C87.5774 16.5801 88.2319 17.0911 88.9759 17.4353C89.7198 17.7794 90.5331 17.9474 91.3525 17.9261C92.6439 17.936 93.9055 17.5381 94.9577 16.7893C95.7725 16.2003 96.432 15.4222 96.8794 14.5218C97.3268 13.6215 97.5488 12.626 97.5262 11.6209C97.5344 10.681 97.337 9.7508 96.9479 8.89529C96.5587 8.03977 95.9873 7.27967 95.2735 6.66823C94.1835 5.7942 92.8286 5.31717 91.4314 5.3156C90.5989 5.30579 89.7738 5.47291 89.0108 5.8059C88.2477 6.13889 87.5641 6.63015 87.0051 7.24718V5.57876H85.5472ZM88.8599 15.7253C88.1016 15.263 87.4797 14.6076 87.0577 13.8261V9.12612C87.5276 8.39632 88.1689 7.79266 88.9258 7.36788C89.6827 6.9431 90.5322 6.71012 91.3999 6.68928C92.4634 6.69738 93.4922 7.06879 94.3156 7.74192C94.8632 8.21837 95.2989 8.8097 95.5919 9.47379C95.8848 10.1379 96.0277 10.8584 96.0104 11.584C96.038 12.2115 95.9387 12.8381 95.7185 13.4263C95.4983 14.0145 95.1616 14.5522 94.7287 15.0072C94.2958 15.4623 93.7755 15.8253 93.199 16.0745C92.6225 16.3237 92.0016 16.4541 91.3735 16.4577C90.4856 16.4404 89.6182 16.1877 88.8599 15.7253ZM121.237 17.6211L115.621 5.53691H117.263L121.71 15.1843L126.163 5.53691H127.805L122.216 17.6211H121.237ZM138.074 17.3301C138.926 16.9449 139.681 16.3736 140.284 15.6581L139.226 14.6265C138.763 15.203 138.173 15.6651 137.502 15.9772C136.831 16.2893 136.097 16.4431 135.358 16.4265C132.574 16.4265 130.905 14.2581 130.8 11.6897H140.668C140.687 11.5149 140.696 11.3392 140.695 11.1634C140.695 7.79495 138.31 5.25285 135.079 5.25285C131.647 5.25285 129.289 8.10021 129.289 11.5686C129.289 15.3423 131.968 17.8844 135.358 17.8844C136.293 17.9048 137.221 17.7154 138.074 17.3301ZM139.121 10.316H130.879H130.858C131.332 8.22127 132.921 6.68443 135.068 6.68443C136.072 6.68716 137.039 7.05868 137.786 7.72831C138.534 8.39794 139.009 9.31892 139.121 10.316ZM144.421 5.41082V5.78976H143.837V7.62134H143.41V5.78976H142.826V5.41082H144.421ZM146.695 5.41082L145.89 6.73187L145.084 5.41082H144.784V7.62134H145.211V6.38977L145.742 7.25819H146.037L146.568 6.38977V7.62134H146.995V5.41082H146.695Z" fill="white"/>
</svg>
