<svg width="125" height="135" viewBox="0 0 125 135" fill="none" xmlns="http://www.w3.org/2000/svg">
<path d="M48.9202 101.005C48.3841 100.991 47.8642 100.805 47.4273 100.471L36.2763 92.4494C35.6044 91.9261 35.0508 91.2472 34.6568 90.4629C34.2627 89.6787 34.0382 88.8093 34 87.9193V24.2011C34.03 23.2931 34.2794 22.4091 34.7237 21.6357C35.168 20.8624 35.7919 20.2262 36.5343 19.7897L71.895 0.808711C72.2912 0.58818 72.7297 0.469657 73.176 0.462524C73.496 0.466768 73.8119 0.541698 74.1038 0.682646C74.3957 0.823594 74.6574 1.02754 74.8727 1.28179C75.088 1.53603 75.2521 1.83512 75.355 2.16044C75.4579 2.48575 75.4973 2.83032 75.4707 3.17267V17.2773L86.5848 11.3427C86.9806 11.1211 87.4194 11.0025 87.8658 10.9965C88.1851 11.0021 88.4999 11.078 88.7907 11.2195C89.0815 11.3611 89.3422 11.5652 89.5564 11.8193C89.7707 12.0734 89.9341 12.3721 90.0364 12.6967C90.1388 13.0214 90.1779 13.3651 90.1513 13.7067V51.1443C90.1213 52.0523 89.8719 52.9363 89.4276 53.7096C88.9833 54.483 88.3594 55.1192 87.617 55.5557L71.7844 64.0225C71.0135 64.3779 70.1755 64.5335 69.3382 64.4768C68.5009 64.4201 67.6877 64.1526 66.9646 63.6961L55.8597 55.7239C55.4755 55.5043 55.1583 55.1707 54.946 54.7629C54.7338 54.3551 54.6354 53.8903 54.6626 53.4241C54.6898 52.9578 54.8415 52.5099 55.0995 52.1337C55.3575 51.7575 55.711 51.469 56.1177 51.3026L71.895 42.8358C72.2506 42.6011 72.55 42.2802 72.7693 41.8989C72.9885 41.5176 73.1215 41.0864 73.1575 40.64V21.2832L52.2471 32.4997C51.891 32.7338 51.5912 33.0545 51.3719 33.436C51.1525 33.8174 51.0199 34.2489 50.9846 34.6955V98.384C51.0033 99.006 50.8317 99.6174 50.4961 100.125C50.3116 100.388 50.0721 100.602 49.7968 100.748C49.5215 100.894 49.2181 100.968 48.911 100.966L48.9202 101.005ZM73.1207 2.91551C73.1207 2.91551 73.0377 2.91551 72.9179 3.02431L37.5665 21.9954C37.2092 22.2305 36.9086 22.5528 36.6892 22.936C36.4698 23.3193 36.3378 23.7527 36.3039 24.2011V87.9193C36.3343 88.4152 36.4616 88.8987 36.6775 89.3384C36.8934 89.7781 37.1932 90.164 37.5573 90.4711L48.6806 98.384V34.6955C48.7122 33.7892 48.9624 32.9072 49.4066 32.1357C49.8508 31.3643 50.4739 30.7297 51.2149 30.294L73.1483 18.5236V3.17267C73.1626 3.08431 73.1626 2.99398 73.1483 2.90562L73.1207 2.91551ZM57.0393 53.5775L57.1406 53.6566L68.2916 61.6387C68.6766 61.8545 69.0995 61.981 69.5329 62.01C69.9664 62.039 70.4006 61.9698 70.8075 61.8069L86.5848 53.3401C86.9409 53.106 87.2408 52.7852 87.4601 52.4038C87.6794 52.0224 87.8121 51.5909 87.8474 51.1443V13.6869C87.8617 13.5985 87.8617 13.5082 87.8474 13.4198C87.8474 13.4198 87.7644 13.4198 87.6446 13.5286L75.4707 20.0468V40.64C75.4391 41.5463 75.1889 42.4282 74.7447 43.1997C74.3005 43.9712 73.6774 44.6058 72.9364 45.0415L57.1406 53.5182L57.0393 53.5775Z" fill="white"/>
<path fill-rule="evenodd" clip-rule="evenodd" d="M95.5648 112.926C95.4248 112.863 95.2745 112.83 95.1226 112.829L95.1271 112.844C94.9775 112.845 94.8297 112.878 94.692 112.94C94.5543 113.003 94.4296 113.094 94.3249 113.209C94.2202 113.324 94.1376 113.459 94.0818 113.608C94.0261 113.757 93.9983 113.917 94.0001 114.077C93.9983 114.236 94.0261 114.394 94.0818 114.541C94.1375 114.688 94.2201 114.822 94.3246 114.935C94.4291 115.048 94.5536 115.137 94.6906 115.197C94.8276 115.258 94.9745 115.288 95.1226 115.287C95.2721 115.289 95.4206 115.259 95.5594 115.199C95.6982 115.139 95.8246 115.05 95.9314 114.938C96.0381 114.826 96.1232 114.692 96.1816 114.544C96.2401 114.396 96.2708 114.238 96.272 114.077C96.2731 113.914 96.2443 113.752 96.1871 113.601C96.13 113.45 96.0456 113.313 95.9388 113.197C95.832 113.081 95.7049 112.989 95.5648 112.926ZM95.7934 117.879H94.5099V128.918H95.7934V117.879ZM91.6564 119.377H88.1681V125.42C88.1045 126.071 88.2634 126.724 88.6153 127.258C88.8265 127.519 89.0908 127.725 89.3878 127.859C89.6848 127.993 90.0066 128.052 90.3281 128.031C90.7008 128.038 91.0724 127.989 91.4328 127.887L91.6564 129.145C91.2194 129.274 90.768 129.339 90.3147 129.337C89.7985 129.361 89.2837 129.261 88.8084 129.043C88.3331 128.826 87.9094 128.496 87.5688 128.079C87.1216 127.474 86.8711 126.678 86.8711 125.372V119.377H84V118.071H86.8801V115.076H88.1636V118.071H91.6519L91.6564 119.377ZM0 117.564V134.364H1.30588V127.015C1.74293 127.597 2.29913 128.063 2.93127 128.377C3.5634 128.691 4.25445 128.844 4.9507 128.825C6.04806 128.834 7.12008 128.471 8.01415 127.788C8.70647 127.251 9.26683 126.541 9.647 125.72C10.0272 124.899 10.2158 123.991 10.1966 123.074C10.2035 122.217 10.0358 121.369 9.70518 120.589C9.37454 119.808 8.88897 119.115 8.28248 118.558C7.35631 117.76 6.20495 117.325 5.01779 117.324C4.3104 117.315 3.60931 117.467 2.96092 117.771C2.31253 118.075 1.73163 118.523 1.25668 119.086V117.564H0ZM2.81483 126.817C2.17052 126.396 1.64208 125.798 1.28351 125.085V120.799C1.68273 120.134 2.22771 119.583 2.87086 119.196C3.51401 118.808 4.23576 118.596 4.97306 118.577C5.8767 118.585 6.75077 118.923 7.45065 119.537C7.91591 119.971 8.28619 120.511 8.53509 121.116C8.784 121.722 8.90541 122.379 8.89069 123.041C8.91417 123.613 8.82981 124.184 8.64268 124.721C8.45555 125.257 8.1695 125.748 7.80164 126.163C7.43378 126.578 6.99168 126.909 6.50181 127.136C6.01194 127.363 5.48438 127.482 4.9507 127.485C4.19621 127.47 3.45914 127.239 2.81483 126.817ZM17.5035 118.683H18.1117L18.2906 117.373C18.1564 117.349 17.7047 117.325 17.5258 117.325C16.8992 117.31 16.2782 117.455 15.7144 117.749C15.1505 118.043 14.66 118.476 14.2835 119.014V117.574H13V128.614H14.2835V121.121C14.5389 120.421 14.9801 119.817 15.5525 119.384C16.1249 118.95 16.8033 118.706 17.5035 118.683ZM29.3424 126.813C28.8302 127.465 28.1884 127.987 27.464 128.338C26.7396 128.689 25.9511 128.862 25.1564 128.843C22.2763 128.843 20 126.525 20 123.083C20 119.92 22.0035 117.324 24.9194 117.324C27.6653 117.324 29.6912 119.642 29.6912 122.714C29.6925 122.874 29.685 123.034 29.6688 123.194H21.2835C21.373 125.536 22.7906 127.514 25.1564 127.514C25.7849 127.529 26.4082 127.389 26.9781 127.104C27.5481 126.819 28.0495 126.398 28.4435 125.872L29.3424 126.813ZM21.3506 121.941H28.3496C28.2541 121.032 27.8505 120.192 27.2155 119.581C26.5806 118.97 25.7586 118.632 24.906 118.629C23.0813 118.629 21.7307 120.031 21.3282 121.941H21.3506ZM34.9132 127.509C33.7663 127.472 32.6686 127.001 31.8139 126.179L31 127.25C32.0965 128.293 33.5196 128.854 34.9847 128.819C36.9435 128.819 38.5625 127.562 38.5625 125.508C38.5625 123.354 36.7235 122.805 35.0952 122.318C33.8018 121.932 32.6413 121.585 32.6413 120.506C32.6413 119.224 33.8309 118.62 34.9132 118.62C35.8398 118.606 36.745 118.919 37.4891 119.512L38.1555 118.384C37.1744 117.687 36.0227 117.318 34.8461 117.324C33.1153 117.324 31.3578 118.533 31.3578 120.54C31.3578 122.559 33.0579 123.052 34.6362 123.51C36.0033 123.907 37.2789 124.277 37.2789 125.589C37.2789 126.736 36.1967 127.509 34.9132 127.509ZM50.5665 126.924C50.0548 127.532 49.4295 128.017 48.7314 128.348C48.0332 128.679 47.2779 128.848 46.5147 128.844C43.657 128.844 41.0005 126.622 41.0005 123.084C40.9904 122.33 41.1206 121.581 41.3833 120.881C41.6461 120.181 42.0362 119.544 42.5308 119.008C43.0255 118.471 43.6148 118.046 44.2643 117.757C44.9137 117.468 45.6104 117.321 46.3135 117.324C47.0416 117.312 47.7644 117.459 48.4379 117.756C49.1114 118.053 49.7215 118.494 50.2311 119.052L49.4038 120.041C48.9972 119.599 48.5134 119.248 47.98 119.007C47.4466 118.767 46.8742 118.642 46.2956 118.639C45.1973 118.665 44.1534 119.158 43.3935 120.009C42.6336 120.861 42.2201 122.001 42.2438 123.18C42.2675 124.359 42.7266 125.479 43.52 126.295C44.3134 127.111 45.3762 127.554 46.4745 127.529C47.0659 127.521 47.6495 127.382 48.1883 127.12C48.7271 126.858 49.2095 126.479 49.605 126.007L50.5665 126.924ZM57.5035 118.683H58.1117L58.2906 117.373C58.1564 117.349 57.7047 117.325 57.5258 117.325C56.8992 117.31 56.2782 117.455 55.7144 117.749C55.1505 118.043 54.66 118.476 54.2835 119.014V117.574H53V128.614H54.2835V121.121C54.5389 120.421 54.9801 119.817 55.5525 119.384C56.1249 118.95 56.8033 118.706 57.5035 118.683ZM61.8246 134.142L64.6376 127.451L60 117.324H61.4445L65.2906 125.877L68.9175 117.324H70.2905L63.1752 134.142H61.8246ZM73 117.564V134.364H74.288V127.015C74.725 127.597 75.2812 128.063 75.9134 128.377C76.5455 128.691 77.2366 128.844 77.9328 128.825C79.0302 128.834 80.1022 128.471 80.9963 127.788C81.6886 127.251 82.2489 126.541 82.6291 125.72C83.0093 124.899 83.1979 123.991 83.1787 123.074C83.1856 122.217 83.0179 121.369 82.6873 120.589C82.3567 119.808 81.8711 119.115 81.2646 118.558C80.3384 117.76 79.1871 117.325 77.9999 117.324C77.2925 117.315 76.5914 117.467 75.943 117.771C75.2946 118.075 74.7137 118.523 74.2388 119.086V117.564H73ZM75.8148 126.817C75.1705 126.396 74.6421 125.798 74.2835 125.085V120.799C74.6827 120.134 75.2277 119.583 75.8709 119.196C76.514 118.808 77.2358 118.596 77.9731 118.577C78.8768 118.584 79.751 118.923 80.4507 119.537C80.9159 119.971 81.2862 120.511 81.5351 121.116C81.784 121.722 81.9054 122.379 81.8907 123.041C81.9142 123.613 81.8298 124.184 81.6427 124.721C81.4556 125.257 81.1695 125.748 80.8016 126.163C80.4338 126.578 79.9917 126.909 79.5018 127.136C79.0119 127.363 78.4844 127.482 77.9507 127.485C77.1962 127.47 76.4591 127.239 75.8148 126.817ZM102.772 128.344L98 117.324H99.3953L103.174 126.122L106.958 117.324H108.353L103.604 128.344H102.772ZM117.464 128.338C118.188 127.987 118.83 127.465 119.342 126.813L118.443 125.872C118.049 126.398 117.548 126.819 116.978 127.104C116.408 127.389 115.785 127.529 115.156 127.514C112.791 127.514 111.373 125.536 111.284 123.194H119.669C119.685 123.034 119.693 122.874 119.691 122.714C119.691 119.642 117.665 117.324 114.919 117.324C112.004 117.324 110 119.92 110 123.083C110 126.525 112.276 128.843 115.156 128.843C115.951 128.862 116.74 128.689 117.464 128.338ZM118.354 121.941H111.351H111.333C111.735 120.031 113.086 118.629 114.91 118.629C115.763 118.632 116.585 118.97 117.22 119.581C117.855 120.192 118.259 121.032 118.354 121.941ZM122.355 117.324V117.669H121.859V119.34H121.496V117.669H121V117.324H122.355ZM124.623 117.324L123.939 118.528L123.255 117.324H123V119.34H123.362V118.216L123.814 119.008H124.064L124.516 118.216V119.34H124.878V117.324H124.623Z" fill="white"/>
</svg>
