<svg width="96" height="96" viewBox="0 0 96 96" fill="none" xmlns="http://www.w3.org/2000/svg">
<path d="M1 11.5455C1 9.03507 3.05203 7 5.58333 7H62.4167C64.948 7 67 9.03507 67 11.5455V82.4545C67 84.9649 64.948 87 62.4167 87H5.58333C3.05203 87 1 84.9649 1 82.4545V11.5455Z" stroke="#88498F" stroke-width="2"/>
<path d="M8.33333 16.0909C8.33333 15.0868 9.15414 14.2727 10.1667 14.2727H57.8333C58.8459 14.2727 59.6667 15.0868 59.6667 16.0909V77.9091C59.6667 78.9132 58.8459 79.7273 57.8333 79.7273H10.1667C9.15414 79.7273 8.33333 78.9132 8.33333 77.9091V16.0909Z" stroke="#88498F" stroke-width="2"/>
<path fill-rule="evenodd" clip-rule="evenodd" d="M28.0452 5.6875C29.1578 2.93891 31.8525 1 35 1C38.1475 1 40.8422 2.93891 41.9548 5.6875H49C49.5523 5.6875 50 6.13522 50 6.6875V15C50 15.5523 49.5523 16 49 16H35H21C20.4477 16 20 15.5523 20 15V6.6875C20 6.13522 20.4477 5.6875 21 5.6875H28.0452Z" fill="white"/>
<path d="M28.0452 5.6875V6.6875H28.7192L28.9721 6.06272L28.0452 5.6875ZM41.9548 5.6875L41.0279 6.06272L41.2808 6.6875H41.9548V5.6875ZM28.9721 6.06272C29.9371 3.67876 32.2737 2 35 2V0C31.4312 0 28.3784 2.19906 27.1182 5.31228L28.9721 6.06272ZM35 2C37.7263 2 40.0629 3.67876 41.0279 6.06272L42.8818 5.31228C41.6216 2.19906 38.5688 0 35 0V2ZM41.9548 6.6875H49V4.6875H41.9548V6.6875ZM49 6.6875H51C51 5.58293 50.1046 4.6875 49 4.6875V6.6875ZM49 6.6875V15H51V6.6875H49ZM49 15V17C50.1046 17 51 16.1046 51 15H49ZM49 15H35V17H49V15ZM35 15H21V17H35V15ZM21 15H21H19C19 16.1046 19.8954 17 21 17V15ZM21 15V6.6875H19V15H21ZM21 6.6875V6.6875V4.6875C19.8954 4.6875 19 5.58293 19 6.6875H21ZM21 6.6875H28.0452V4.6875H21V6.6875Z" fill="#88498F"/>
<circle cx="35" cy="9" r="3" fill="#88498F"/>
<circle cx="20" cy="59" r="3" fill="#88498F"/>
<circle cx="20" cy="69" r="3" fill="#88498F"/>
<path d="M27 59L53 59" stroke="#88498F" stroke-width="2" stroke-linecap="round"/>
<path d="M27 69L53 69" stroke="#88498F" stroke-width="2" stroke-linecap="round"/>
<path d="M31 26.5V33.5C31 33.7761 30.7761 34 30.5 34H23.5C23.2239 34 23 34.2239 23 34.5V41.5C23 41.7761 23.2239 42 23.5 42H30.5C30.7761 42 31 42.2239 31 42.5V49.5C31 49.7761 31.2239 50 31.5 50H38.5C38.7761 50 39 49.7761 39 49.5V42.5C39 42.2239 39.2239 42 39.5 42H46.5C46.7761 42 47 41.7761 47 41.5V34.5C47 34.2239 46.7761 34 46.5 34H39.5C39.2239 34 39 33.7761 39 33.5V26.5C39 26.2239 38.7761 26 38.5 26H31.5C31.2239 26 31 26.2239 31 26.5Z" stroke="#88498F" stroke-width="2" stroke-linecap="round"/>
<path d="M27 96H72V22.5789L27 96Z" fill="white"/>
<path d="M69 68H88C88.5523 68 89 68.4477 89 69V87C89 87.5523 88.5523 88 88 88H69M69 57H89L89.2851 59.2805C89.4222 60.3776 90.0073 61.369 90.9015 62.0193L92.529 63.2029C94.0815 64.332 95 66.1357 95 68.0553V91C95 93.2091 93.2091 95 91 95H67C64.7909 95 63 93.2091 63 91V67.0369C63 65.7572 63.6123 64.5547 64.6473 63.802L67.0985 62.0193C67.9927 61.369 68.5778 60.3776 68.7149 59.2805L69 57ZM68 57H90C90.5523 57 91 56.5523 91 56V51C91 50.4477 90.5523 50 90 50H68C67.4477 50 67 50.4477 67 51V56C67 56.5523 67.4477 57 68 57Z" stroke="#88498F" stroke-width="2" stroke-linecap="round"/>
<path d="M88.4375 6.84375L35 94.5" stroke="#88498F" stroke-width="2" stroke-linecap="round"/>
</svg>
