<svg width="24" height="24" viewBox="0 0 24 24" fill="none" xmlns="http://www.w3.org/2000/svg">
<path fill-rule="evenodd" clip-rule="evenodd" d="M0 5.95455C0 4.04665 1.55727 2.5 3.47826 2.5H20.5217C22.4428 2.5 24 4.04666 24 5.95455V10.6182H22.9565C22.1881 10.6182 21.5652 11.2368 21.5652 12C21.5652 12.7632 22.1881 13.3818 22.9565 13.3818H24V18.0455C24 19.9534 22.4428 21.5 20.5217 21.5H3.47826C1.55728 21.5 0 19.9534 0 18.0455V13.3818H1.04348C1.81189 13.3818 2.43478 12.7632 2.43478 12C2.43478 11.2368 1.81189 10.6182 1.04348 10.6182H0V5.95455ZM3.47826 4.57273C2.70986 4.57273 2.08696 5.19139 2.08696 5.95455V8.7036C3.49812 9.14379 4.52174 10.4531 4.52174 12C4.52174 13.5469 3.49812 14.8562 2.08696 15.2964V18.0455C2.08696 18.8086 2.70985 19.4273 3.47826 19.4273H20.5217C21.2902 19.4273 21.913 18.8086 21.913 18.0455V15.2964C20.5019 14.8562 19.4783 13.5469 19.4783 12C19.4783 10.4531 20.5019 9.14379 21.913 8.7036V5.95455C21.913 5.19138 21.2902 4.57273 20.5217 4.57273H3.47826ZM6.89855 12C6.89855 11.4276 7.36573 10.9636 7.94203 10.9636H10.0079C10.5842 10.9636 11.0514 11.4276 11.0514 12C11.0514 12.5724 10.5842 13.0364 10.0079 13.0364H7.94203C7.36573 13.0364 6.89855 12.5724 6.89855 12ZM12.9486 12C12.9486 11.4276 13.4158 10.9636 13.9921 10.9636H16.058C16.6343 10.9636 17.1014 11.4276 17.1014 12C17.1014 12.5724 16.6343 13.0364 16.058 13.0364H13.9921C13.4158 13.0364 12.9486 12.5724 12.9486 12Z" fill="#465486"/>
</svg>
