<svg width="80" height="80" viewBox="0 0 80 80" fill="none" xmlns="http://www.w3.org/2000/svg">
<path d="M34.7757 61.7143C19.9215 61.7143 7.83639 49.6294 7.83639 34.7755C7.83639 27.5804 10.6381 20.8147 15.7272 15.7274C20.8146 10.64 27.5805 7.83677 34.7757 7.83677C49.6299 7.83677 61.715 19.9217 61.715 34.7755C61.715 41.9706 58.9134 48.7364 53.8243 53.8237C48.7368 58.9127 41.971 61.7143 34.7757 61.7143ZM34.7757 9.46943C28.0164 9.46943 21.6604 12.1013 16.8815 16.8817C12.101 21.6604 9.46908 28.0164 9.46908 34.7755C9.46908 48.7298 20.8211 60.0817 34.7757 60.0817C41.535 60.0817 47.8911 57.4498 52.6699 52.6694C57.4505 47.889 60.0823 41.5347 60.0823 34.7755C60.0823 20.8213 48.7303 9.46943 34.7757 9.46943Z" fill="#3C4266"/>
<path d="M73.3076 80C72.2137 80 71.1884 79.5771 70.4178 78.8082L54.806 63.1951C48.9382 67.3551 42.0286 69.551 34.7762 69.551C25.4862 69.551 16.753 65.9331 10.1847 59.3665C3.61803 52.7984 0 44.0653 0 34.7755C0 25.4857 3.61803 16.7527 10.1847 10.1845C16.753 3.61796 25.4862 0 34.7762 0C44.0662 0 52.7994 3.61796 59.3677 10.1845C65.936 16.7527 69.5524 25.4857 69.5524 34.7755C69.5524 42.0278 67.3565 48.9371 63.1964 54.8049L78.8081 70.4163C79.5771 71.1853 80 72.2122 80 73.3061C80 74.3576 79.6098 75.3469 78.8996 76.0898C78.8947 76.0947 78.8914 76.0996 78.8865 76.1029L76.1044 78.8849C76.0995 78.8898 76.0963 78.8931 76.0914 78.898C75.3485 79.6098 74.3591 80 73.3076 80ZM54.8909 61.3094C55.1015 61.3094 55.3105 61.391 55.4689 61.5478L71.5737 77.6522C72.0276 78.1061 72.6594 78.3673 73.3076 78.3673C73.9346 78.3673 74.5207 78.1388 74.9583 77.7241L77.7257 74.9567C78.1404 74.5192 78.3689 73.9331 78.3689 73.3061C78.3689 72.658 78.1094 72.0261 77.6538 71.5722L61.549 55.4678C61.2633 55.182 61.229 54.7298 61.469 54.4049C65.6879 48.7004 67.9181 41.9118 67.9181 34.7755C67.9181 16.5012 53.0492 1.63265 34.7746 1.63265C16.4999 1.63265 1.63105 16.5012 1.63105 34.7755C1.63105 53.0498 16.4999 67.9184 34.7746 67.9184C41.9111 67.9184 48.6981 65.6882 54.4044 61.4694C54.5513 61.3616 54.7211 61.3094 54.8909 61.3094Z" fill="#3C4266"/>
<path d="M41.9333 26H30.2C29.1333 26 27 26.8 27 30C27 33.2 29.1333 34 30.2 34H39.8C40.8667 34 43 34.8 43 38C43 41.2 40.8667 42 39.8 42H27" stroke="#3C4266" stroke-width="2" stroke-linecap="round" stroke-linejoin="round"/>
<path d="M35 26V22" stroke="#3C4266" stroke-width="2" stroke-linecap="round" stroke-linejoin="round"/>
<path d="M35 46V42" stroke="#3C4266" stroke-width="2" stroke-linecap="round" stroke-linejoin="round"/>
</svg>
