<svg width="334" height="3" viewBox="0 0 334 3" fill="none" xmlns="http://www.w3.org/2000/svg">
<path fill-rule="evenodd" clip-rule="evenodd" d="M0 1.625C0 1.07272 0.447715 0.625 1 0.625H4.95238C5.50467 0.625 5.95238 1.07272 5.95238 1.625C5.95238 2.17728 5.50467 2.625 4.95238 2.625H1C0.447715 2.625 0 2.17728 0 1.625ZM11.8571 1.625C11.8571 1.07272 12.3049 0.625 12.8571 0.625H20.7619C21.3142 0.625 21.7619 1.07272 21.7619 1.625C21.7619 2.17728 21.3142 2.625 20.7619 2.625H12.8571C12.3049 2.625 11.8571 2.17728 11.8571 1.625ZM27.6667 1.625C27.6667 1.07272 28.1144 0.625 28.6667 0.625H36.5714C37.1237 0.625 37.5714 1.07272 37.5714 1.625C37.5714 2.17728 37.1237 2.625 36.5714 2.625H28.6667C28.1144 2.625 27.6667 2.17728 27.6667 1.625ZM43.4762 1.625C43.4762 1.07272 43.9239 0.625 44.4762 0.625H52.381C52.9332 0.625 53.381 1.07272 53.381 1.625C53.381 2.17728 52.9332 2.625 52.381 2.625H44.4762C43.9239 2.625 43.4762 2.17728 43.4762 1.625ZM59.2857 1.625C59.2857 1.07272 59.7334 0.625 60.2857 0.625H68.1905C68.7428 0.625 69.1905 1.07272 69.1905 1.625C69.1905 2.17728 68.7428 2.625 68.1905 2.625H60.2857C59.7334 2.625 59.2857 2.17728 59.2857 1.625ZM75.0952 1.625C75.0952 1.07272 75.543 0.625 76.0952 0.625H84C84.5523 0.625 85 1.07272 85 1.625C85 2.17728 84.5523 2.625 84 2.625H76.0952C75.543 2.625 75.0952 2.17728 75.0952 1.625ZM90.9048 1.625C90.9048 1.07272 91.3525 0.625 91.9048 0.625H99.8095C100.362 0.625 100.81 1.07272 100.81 1.625C100.81 2.17728 100.362 2.625 99.8095 2.625H91.9048C91.3525 2.625 90.9048 2.17728 90.9048 1.625ZM106.714 1.625C106.714 1.07272 107.162 0.625 107.714 0.625H115.619C116.171 0.625 116.619 1.07272 116.619 1.625C116.619 2.17728 116.171 2.625 115.619 2.625H107.714C107.162 2.625 106.714 2.17728 106.714 1.625ZM122.524 1.625C122.524 1.07272 122.972 0.625 123.524 0.625H131.429C131.981 0.625 132.429 1.07272 132.429 1.625C132.429 2.17728 131.981 2.625 131.429 2.625H123.524C122.972 2.625 122.524 2.17728 122.524 1.625ZM138.333 1.625C138.333 1.07272 138.781 0.625 139.333 0.625H147.238C147.79 0.625 148.238 1.07272 148.238 1.625C148.238 2.17728 147.79 2.625 147.238 2.625H139.333C138.781 2.625 138.333 2.17728 138.333 1.625ZM154.143 1.625C154.143 1.07272 154.591 0.625 155.143 0.625H163.048C163.6 0.625 164.048 1.07272 164.048 1.625C164.048 2.17728 163.6 2.625 163.048 2.625H155.143C154.591 2.625 154.143 2.17728 154.143 1.625ZM169.952 1.625C169.952 1.07272 170.4 0.625 170.952 0.625H178.857C179.409 0.625 179.857 1.07272 179.857 1.625C179.857 2.17728 179.409 2.625 178.857 2.625H170.952C170.4 2.625 169.952 2.17728 169.952 1.625ZM185.762 1.625C185.762 1.07272 186.21 0.625 186.762 0.625H194.667C195.219 0.625 195.667 1.07272 195.667 1.625C195.667 2.17728 195.219 2.625 194.667 2.625H186.762C186.21 2.625 185.762 2.17728 185.762 1.625ZM201.571 1.625C201.571 1.07272 202.019 0.625 202.571 0.625H210.476C211.028 0.625 211.476 1.07272 211.476 1.625C211.476 2.17728 211.028 2.625 210.476 2.625H202.571C202.019 2.625 201.571 2.17728 201.571 1.625ZM217.381 1.625C217.381 1.07272 217.829 0.625 218.381 0.625H226.286C226.838 0.625 227.286 1.07272 227.286 1.625C227.286 2.17728 226.838 2.625 226.286 2.625H218.381C217.829 2.625 217.381 2.17728 217.381 1.625ZM233.19 1.625C233.19 1.07272 233.638 0.625 234.19 0.625H242.095C242.647 0.625 243.095 1.07272 243.095 1.625C243.095 2.17728 242.647 2.625 242.095 2.625H234.19C233.638 2.625 233.19 2.17728 233.19 1.625ZM249 1.625C249 1.07272 249.448 0.625 250 0.625H257.905C258.457 0.625 258.905 1.07272 258.905 1.625C258.905 2.17728 258.457 2.625 257.905 2.625H250C249.448 2.625 249 2.17728 249 1.625ZM264.809 1.625C264.809 1.07272 265.257 0.625 265.809 0.625H273.714C274.266 0.625 274.714 1.07272 274.714 1.625C274.714 2.17728 274.266 2.625 273.714 2.625H265.809C265.257 2.625 264.809 2.17728 264.809 1.625ZM280.619 1.625C280.619 1.07272 281.067 0.625 281.619 0.625H289.524C290.076 0.625 290.524 1.07272 290.524 1.625C290.524 2.17728 290.076 2.625 289.524 2.625H281.619C281.067 2.625 280.619 2.17728 280.619 1.625ZM296.428 1.625C296.428 1.07272 296.876 0.625 297.428 0.625H305.333C305.885 0.625 306.333 1.07272 306.333 1.625C306.333 2.17728 305.885 2.625 305.333 2.625H297.428C296.876 2.625 296.428 2.17728 296.428 1.625ZM312.238 1.625C312.238 1.07272 312.686 0.625 313.238 0.625H321.143C321.695 0.625 322.143 1.07272 322.143 1.625C322.143 2.17728 321.695 2.625 321.143 2.625H313.238C312.686 2.625 312.238 2.17728 312.238 1.625ZM328.047 1.625C328.047 1.07272 328.495 0.625 329.047 0.625H333C333.552 0.625 334 1.07272 334 1.625C334 2.17728 333.552 2.625 333 2.625H329.047C328.495 2.625 328.047 2.17728 328.047 1.625Z" fill="#CCCED9"/>
</svg>
