<svg width="96" height="96" viewBox="0 0 96 96" fill="none" xmlns="http://www.w3.org/2000/svg">
<path fill-rule="evenodd" clip-rule="evenodd" d="M0 34.39C0 33.7272 0.537258 33.19 1.2 33.19H10.7232C14.0181 33.19 16.8637 35.4953 17.5473 38.7184L19.6418 48.5925H71.274C73.2572 48.5925 74.7389 50.4158 74.3332 52.357L69.0393 77.6924C68.3637 80.9253 65.5136 83.2415 62.2108 83.2415H30.1896C26.8948 83.2415 24.0492 80.9362 23.3655 77.7131L17.5011 50.0665C17.4974 50.0507 17.4941 50.0348 17.491 50.0189L15.1996 39.2164C14.7511 37.1022 12.8845 35.59 10.7232 35.59H1.2C0.537258 35.59 0 35.0527 0 34.39ZM20.1509 50.9925L25.7133 77.2151C26.1618 79.3293 28.0284 80.8415 30.1896 80.8415H62.2108C64.3773 80.8415 66.2469 79.3222 66.69 77.2015L71.984 51.8661C72.0781 51.4156 71.7342 50.9925 71.274 50.9925H20.1509ZM26.2357 57.0124C26.2357 56.3497 26.773 55.8124 27.4357 55.8124H63.8429C65.1793 55.8124 66.1958 57.0124 65.9761 58.3306L63.275 74.5375C63.166 75.1912 62.5478 75.6328 61.894 75.5239C61.2403 75.4149 60.7987 74.7967 60.9076 74.1429L63.5627 58.2124H27.4357C26.773 58.2124 26.2357 57.6751 26.2357 57.0124Z" fill="#88498F"/>
<path fill-rule="evenodd" clip-rule="evenodd" d="M30.8049 93.5999C32.1377 93.5999 33.2182 92.5194 33.2182 91.1866C33.2182 89.8538 32.1377 88.7733 30.8049 88.7733C29.4721 88.7733 28.3916 89.8538 28.3916 91.1866C28.3916 92.5194 29.4721 93.5999 30.8049 93.5999ZM61.6099 93.5999C62.9427 93.5999 64.0232 92.5194 64.0232 91.1866C64.0232 89.8538 62.9427 88.7733 61.6099 88.7733C60.2771 88.7733 59.1966 89.8538 59.1966 91.1866C59.1966 92.5194 60.2771 93.5999 61.6099 93.5999ZM30.8049 95.9999C33.4632 95.9999 35.6182 93.8449 35.6182 91.1866C35.6182 88.5283 33.4632 86.3733 30.8049 86.3733C28.1466 86.3733 25.9916 88.5283 25.9916 91.1866C25.9916 93.8449 28.1466 95.9999 30.8049 95.9999ZM61.6099 95.9999C64.2682 95.9999 66.4232 93.8449 66.4232 91.1866C66.4232 88.5283 64.2682 86.3733 61.6099 86.3733C58.9516 86.3733 56.7966 88.5283 56.7966 91.1866C56.7966 93.8449 58.9516 95.9999 61.6099 95.9999Z" fill="#88498F"/>
<path fill-rule="evenodd" clip-rule="evenodd" d="M43.6723 24.9694C42.6221 26.3717 42 28.1132 42 30C42 34.6392 45.7608 38.4 50.4 38.4C52.2868 38.4 54.0283 37.7779 55.4306 36.7277L43.6723 24.9694ZM45.3694 23.2723L57.1277 35.0306C58.1779 33.6283 58.8 31.8868 58.8 30C58.8 25.3608 55.0392 21.6 50.4 21.6C48.5132 21.6 46.7717 22.2221 45.3694 23.2723ZM39.6 30C39.6 24.0353 44.4353 19.2 50.4 19.2C56.3647 19.2 61.2 24.0353 61.2 30C61.2 35.9647 56.3647 40.8 50.4 40.8C44.4353 40.8 39.6 35.9647 39.6 30Z" fill="#88498F"/>
<path fill-rule="evenodd" clip-rule="evenodd" d="M83.7548 23.7009C86.5561 20.8997 91.0978 20.8997 93.8991 23.7009C96.7003 26.5022 96.7003 31.0439 93.8991 33.8452L84.2452 43.4991C81.4439 46.3003 76.9022 46.3003 74.1009 43.4991C71.2997 40.6978 71.2997 36.1561 74.1009 33.3548L83.7548 23.7009ZM92.202 25.398C90.338 23.534 87.3159 23.534 85.4519 25.398L81.4735 29.3764L88.2236 36.1265L92.202 32.1481C94.066 30.2841 94.066 27.262 92.202 25.398ZM86.5265 37.8236L79.7764 31.0735L75.798 35.0519C73.934 36.9159 73.934 39.938 75.798 41.802C77.662 43.666 80.6841 43.666 82.5481 41.802L86.5265 37.8236Z" fill="#88498F"/>
<path fill-rule="evenodd" clip-rule="evenodd" d="M76.0935 10.4878C78.6355 13.0299 78.6355 17.1514 76.0935 19.6935C73.5514 22.2355 69.4299 22.2355 66.8878 19.6935L58.3066 11.1122C55.7645 8.57013 55.7645 4.44862 58.3066 1.90655C60.8486 -0.635518 64.9701 -0.635517 67.5122 1.90655L76.0935 10.4878ZM74.3964 17.9964C76.0012 16.3916 76.0012 13.7897 74.3964 12.1849L70.9543 8.74276L65.1428 14.5543L68.5849 17.9964C70.1897 19.6012 72.7916 19.6012 74.3964 17.9964ZM63.4457 12.8572L69.2572 7.0457L65.8151 3.60361C64.2103 1.9988 61.6084 1.9988 60.0036 3.60361C58.3988 5.20842 58.3988 7.81033 60.0036 9.41514L63.4457 12.8572Z" fill="#88498F"/>
</svg>