<svg width="98" height="96" viewBox="0 0 98 96" fill="none" xmlns="http://www.w3.org/2000/svg">
<path d="M65.5977 51.1987C60.9401 51.1987 57.1496 47.4067 57.1496 42.7472C57.1496 38.0878 60.9401 34.2958 65.5977 34.2958C70.2553 34.2958 74.0458 38.0878 74.0458 42.7472C74.0458 47.4083 70.2553 51.1987 65.5977 51.1987ZM65.5977 35.8904C61.8184 35.8904 58.7436 38.9664 58.7436 42.7472C58.7436 46.5281 61.8184 49.6041 65.5977 49.6041C69.377 49.6041 72.4519 46.5281 72.4519 42.7472C72.4519 38.9664 69.377 35.8904 65.5977 35.8904Z" fill="#88498F"/>
<path d="M71.0079 48.9564C70.8039 48.9564 70.5999 48.8783 70.4437 48.7236L59.6237 37.8993C59.3129 37.5883 59.3129 37.0828 59.6237 36.7719C59.9346 36.4609 60.4398 36.4609 60.7507 36.7719L71.5706 47.5962C71.8815 47.9071 71.8815 48.4126 71.5706 48.7236C71.416 48.8798 71.212 48.9564 71.0079 48.9564Z" fill="#88498F"/>
<path d="M84.7259 89.4697C80.0683 89.4697 76.2778 85.6777 76.2778 81.0183C76.2778 76.3588 80.0683 72.5668 84.7259 72.5668C89.3836 72.5668 93.174 76.3588 93.174 81.0183C93.174 85.6793 89.3836 89.4697 84.7259 89.4697ZM84.7259 74.1614C80.9466 74.1614 77.8718 77.2374 77.8718 81.0183C77.8718 84.7991 80.9466 87.8751 84.7259 87.8751C88.5053 87.8751 91.5801 84.7991 91.5801 81.0183C91.5801 77.2374 88.5053 74.1614 84.7259 74.1614Z" fill="#88498F"/>
<path d="M79.3162 87.2273C79.1122 87.2273 78.9081 87.1492 78.7519 86.9945C78.4411 86.6836 78.4411 86.178 78.7519 85.8671L89.5719 75.0428C89.8827 74.7319 90.388 74.7319 90.6988 75.0428C91.0096 75.3538 91.0096 75.8593 90.6988 76.1702L79.8789 86.9945C79.7243 87.1508 79.5202 87.2273 79.3162 87.2273Z" fill="#88498F"/>
<path d="M43.5929 30.7876C37.5278 30.7876 32.5944 25.8522 32.5944 19.7847C32.5944 13.7172 37.5278 8.78184 43.5929 8.78184C49.6581 8.78184 54.5914 13.7172 54.5914 19.7847C54.5914 25.8522 49.6581 30.7876 43.5929 30.7876ZM43.5929 10.3765C38.4077 10.3765 34.1884 14.5974 34.1884 19.7847C34.1884 24.972 38.4077 29.193 43.5929 29.193C48.7782 29.193 52.9975 24.972 52.9975 19.7847C52.9975 14.5974 48.7782 10.3765 43.5929 10.3765Z" fill="#88498F"/>
<path d="M36.3806 27.7993C36.1766 27.7993 35.9726 27.7211 35.8164 27.5664C35.5055 27.2555 35.5055 26.75 35.8164 26.439L50.2435 12.0061C50.5544 11.6952 51.0597 11.6952 51.3705 12.0061C51.6813 12.3171 51.6813 12.8226 51.3705 13.1335L36.9433 27.5664C36.7887 27.7211 36.5846 27.7993 36.3806 27.7993Z" fill="#88498F"/>
<path d="M36.7469 81.2222C36.6879 81.2222 36.629 81.2159 36.57 81.2031C33.9 80.5971 31.4772 79.0839 29.7477 76.9423C27.9911 74.7688 27.0236 72.0293 27.0236 69.2291C27.0236 62.4583 32.5292 56.9505 39.2973 56.9505C44.4905 56.9505 49.1418 60.2402 50.8728 65.1357C51.0195 65.5503 50.8027 66.0064 50.3867 66.1531C49.9722 66.2998 49.5163 66.0829 49.3697 65.6667C47.865 61.4059 43.8162 58.5451 39.2973 58.5451C33.4091 58.5451 28.6176 63.3386 28.6176 69.2291C28.6176 74.2537 32.0335 78.5385 36.9238 79.6483C37.3526 79.7456 37.622 80.173 37.5248 80.6019C37.4403 80.9719 37.1119 81.2222 36.7469 81.2222Z" fill="#88498F"/>
<path d="M43.1228 73.8516C42.9187 73.8516 42.7147 73.7735 42.5585 73.6188L30.618 61.6735C30.3071 61.3626 30.3071 60.8571 30.618 60.5461C30.9288 60.2352 31.4341 60.2352 31.7449 60.5461L43.6854 72.4914C43.9963 72.8024 43.9963 73.3079 43.6854 73.6188C43.5308 73.7735 43.3268 73.8516 43.1228 73.8516Z" fill="#88498F"/>
<path d="M92.3774 57.4144C89.8286 57.4144 87.7548 55.3398 87.7548 52.79C87.7548 50.2402 89.8286 48.1656 92.3774 48.1656C94.9261 48.1656 96.9999 50.2402 96.9999 52.79C96.9999 55.3398 94.9261 57.4144 92.3774 57.4144ZM92.3774 49.7602C90.7069 49.7602 89.3488 51.1188 89.3488 52.79C89.3488 54.4611 90.7069 55.8198 92.3774 55.8198C94.0479 55.8198 95.4059 54.4611 95.4059 52.79C95.4059 51.1204 94.0479 49.7602 92.3774 49.7602Z" fill="#88498F"/>
<path d="M19.6911 20.5821C17.1423 20.5821 15.0685 18.5074 15.0685 15.9576C15.0685 13.4078 17.1423 11.3332 19.6911 11.3332C22.2398 11.3332 24.3136 13.4078 24.3136 15.9576C24.3136 18.5074 22.2398 20.5821 19.6911 20.5821ZM19.6911 12.9279C18.0206 12.9279 16.6625 14.2865 16.6625 15.9576C16.6625 17.6288 18.0206 18.9874 19.6911 18.9874C21.3616 18.9874 22.7196 17.6288 22.7196 15.9576C22.7196 14.2881 21.3616 12.9279 19.6911 12.9279Z" fill="#88498F"/>
<path d="M9.17075 85.0489C6.62198 85.0489 4.54822 82.9743 4.54822 80.4245C4.54822 77.8747 6.62198 75.8001 9.17075 75.8001C11.7195 75.8001 13.7933 77.8747 13.7933 80.4245C13.7933 82.9743 11.7195 85.0489 9.17075 85.0489ZM9.17075 77.3948C7.50026 77.3948 6.14219 78.7534 6.14219 80.4245C6.14219 82.0957 7.50026 83.4543 9.17075 83.4543C10.8412 83.4543 12.1993 82.0957 12.1993 80.4245C12.1993 78.7534 10.8412 77.3948 9.17075 77.3948Z" fill="#88498F"/>
<path d="M31.168 47.3717C28.6192 47.3717 26.5455 45.2971 26.5455 42.7473C26.5455 40.1975 28.6192 38.1229 31.168 38.1229C33.7168 38.1229 35.7906 40.1975 35.7906 42.7473C35.7906 45.2971 33.7168 47.3717 31.168 47.3717ZM31.168 39.7175C29.4975 39.7175 28.1395 41.0761 28.1395 42.7473C28.1395 44.4184 29.4975 45.7771 31.168 45.7771C32.8385 45.7771 34.1966 44.4184 34.1966 42.7473C34.1966 41.0777 32.8385 39.7175 31.168 39.7175Z" fill="#88498F"/>
<path d="M6.89778 53.6732C3.64603 53.6732 1 51.0261 1 47.7731V33.7404C1 30.4874 3.64603 27.8403 6.89778 27.8403C10.1495 27.8403 12.7956 30.4874 12.7956 33.7404V47.7731C12.7956 51.0261 10.1495 53.6732 6.89778 53.6732ZM6.89778 29.435C4.52432 29.435 2.59399 31.366 2.59399 33.7404V47.7731C2.59399 50.1475 4.52432 52.0785 6.89778 52.0785C9.27124 52.0785 11.2016 50.1475 11.2016 47.7731V33.7404C11.2016 31.366 9.27124 29.435 6.89778 29.435Z" fill="#88498F"/>
<path d="M11.9986 44.7433C11.5586 44.7433 11.2016 44.3861 11.2016 43.946C11.2016 41.5716 9.27124 39.6405 6.89778 39.6405C4.52432 39.6405 2.59399 41.5716 2.59399 43.946C2.59399 44.3861 2.23694 44.7433 1.797 44.7433C1.35705 44.7433 1 44.3861 1 43.946C1 40.693 3.64603 38.0459 6.89778 38.0459C10.1495 38.0459 12.7956 40.693 12.7956 43.946C12.7956 44.3861 12.4385 44.7433 11.9986 44.7433Z" fill="#88498F"/>
<path d="M48.3302 94.2629C46.0445 94.2629 43.8957 93.3731 42.281 91.7562C40.6647 90.1392 39.7753 87.9896 39.7753 85.7046C39.7753 83.4195 40.6647 81.2683 42.281 79.653L57.3681 64.5599C58.9844 62.943 61.1331 62.0532 63.4173 62.0532C65.7031 62.0532 67.8518 62.943 69.4665 64.5599C71.0828 66.1768 71.9722 68.3264 71.9722 70.6115C71.9722 72.8982 71.0828 75.0477 69.4665 76.6631L54.3794 91.7562C52.7647 93.3731 50.616 94.2629 48.3302 94.2629ZM63.4189 63.6462C61.5587 63.6462 59.8117 64.3701 58.4967 65.6857L43.4096 80.7788C42.0946 82.0943 41.3709 83.8436 41.3709 85.703C41.3709 87.5623 42.0946 89.3116 43.4096 90.6272C44.7246 91.9427 46.4732 92.6667 48.3318 92.6667C50.1904 92.6667 51.939 91.9427 53.2541 90.6272L68.3411 75.5341C69.6562 74.2185 70.3798 72.4692 70.3798 70.6099C70.3798 68.749 69.6562 67.0013 68.3411 65.6857C67.0261 64.3717 65.2775 63.6462 63.4189 63.6462Z" fill="#88498F"/>
<path d="M57.9329 87.8731C57.7289 87.8731 57.5248 87.7949 57.3686 87.6403C57.0578 87.3293 57.0578 86.8238 57.3686 86.5129C60.0832 83.7972 60.0832 79.3785 57.3686 76.6629C54.6541 73.9472 50.2371 73.9472 47.5226 76.6629C47.2118 76.9738 46.7065 76.9738 46.3956 76.6629C46.0848 76.3519 46.0848 75.8464 46.3956 75.5355C49.7319 72.1979 55.1594 72.1979 58.4956 75.5355C61.8318 78.873 61.8318 84.3027 58.4956 87.6403C58.341 87.7949 58.1369 87.8731 57.9329 87.8731Z" fill="#88498F"/>
<path d="M76.9429 29.5118C75.003 29.5118 73.1795 28.7559 71.807 27.3829C70.4346 26.01 69.6807 24.1857 69.6807 22.2451C69.6807 20.3044 70.4362 18.4802 71.8086 17.1072L84.382 4.52885C85.7544 3.15588 87.578 2.40002 89.5178 2.40002C91.4577 2.40002 93.2812 3.15588 94.6537 4.52885C96.0261 5.90182 96.78 7.72606 96.78 9.66671C96.78 11.6074 96.0245 13.4316 94.6537 14.8046L82.0803 27.3829C80.7063 28.7559 78.8828 29.5118 76.9429 29.5118ZM89.5147 4.00103C88.0625 4.00103 86.612 4.55436 85.5058 5.65943L72.9324 18.2378C71.8612 19.3094 71.2715 20.7334 71.2715 22.2483C71.2715 23.7632 71.8612 25.1871 72.9324 26.2587C74.0036 27.3303 75.427 27.9203 76.9413 27.9203C78.4556 27.9203 79.879 27.3303 80.9502 26.2587L93.5235 13.6804C95.7344 11.4686 95.7344 7.87117 93.5235 5.66102C92.4189 4.55436 90.9668 4.00103 89.5147 4.00103Z" fill="#88498F"/>
<path d="M84.943 24.1873C84.739 24.1873 84.535 24.1092 84.3787 23.9545C84.0679 23.6435 84.0679 23.138 84.3787 22.8271C85.4499 21.7555 86.0397 20.3315 86.0397 18.8166C86.0397 17.3017 85.4499 15.8777 84.3787 14.8061C82.1679 12.5944 78.5719 12.5944 76.3626 14.8061C76.0518 15.1171 75.5465 15.1171 75.2356 14.8061C74.9248 14.4952 74.9248 13.9897 75.2356 13.6787C78.0666 10.8467 82.6748 10.8467 85.5057 13.6787C86.8781 15.0517 87.6337 16.876 87.6337 18.8166C87.6337 20.7573 86.8781 22.5815 85.5057 23.9545C85.3511 24.1092 85.147 24.1873 84.943 24.1873Z" fill="#88498F"/>
<path d="M65.5977 51.1987C60.9401 51.1987 57.1496 47.4067 57.1496 42.7472C57.1496 38.0878 60.9401 34.2958 65.5977 34.2958C70.2553 34.2958 74.0458 38.0878 74.0458 42.7472C74.0458 47.4083 70.2553 51.1987 65.5977 51.1987ZM65.5977 35.8904C61.8184 35.8904 58.7436 38.9664 58.7436 42.7472C58.7436 46.5281 61.8184 49.6041 65.5977 49.6041C69.377 49.6041 72.4519 46.5281 72.4519 42.7472C72.4519 38.9664 69.377 35.8904 65.5977 35.8904Z" stroke="#88498F" stroke-width="0.666667"/>
<path d="M71.0079 48.9564C70.8039 48.9564 70.5999 48.8783 70.4437 48.7236L59.6237 37.8993C59.3129 37.5883 59.3129 37.0828 59.6237 36.7719C59.9346 36.4609 60.4398 36.4609 60.7507 36.7719L71.5706 47.5962C71.8815 47.9071 71.8815 48.4126 71.5706 48.7236C71.416 48.8798 71.212 48.9564 71.0079 48.9564Z" stroke="#88498F" stroke-width="0.666667"/>
<path d="M84.7259 89.4697C80.0683 89.4697 76.2778 85.6777 76.2778 81.0183C76.2778 76.3588 80.0683 72.5668 84.7259 72.5668C89.3836 72.5668 93.174 76.3588 93.174 81.0183C93.174 85.6793 89.3836 89.4697 84.7259 89.4697ZM84.7259 74.1614C80.9466 74.1614 77.8718 77.2374 77.8718 81.0183C77.8718 84.7991 80.9466 87.8751 84.7259 87.8751C88.5053 87.8751 91.5801 84.7991 91.5801 81.0183C91.5801 77.2374 88.5053 74.1614 84.7259 74.1614Z" stroke="#88498F" stroke-width="0.666667"/>
<path d="M79.3162 87.2273C79.1122 87.2273 78.9081 87.1492 78.7519 86.9945C78.4411 86.6836 78.4411 86.178 78.7519 85.8671L89.5719 75.0428C89.8827 74.7319 90.388 74.7319 90.6988 75.0428C91.0096 75.3538 91.0096 75.8593 90.6988 76.1702L79.8789 86.9945C79.7243 87.1508 79.5202 87.2273 79.3162 87.2273Z" stroke="#88498F" stroke-width="0.666667"/>
<path d="M43.5929 30.7876C37.5278 30.7876 32.5944 25.8522 32.5944 19.7847C32.5944 13.7172 37.5278 8.78184 43.5929 8.78184C49.6581 8.78184 54.5914 13.7172 54.5914 19.7847C54.5914 25.8522 49.6581 30.7876 43.5929 30.7876ZM43.5929 10.3765C38.4077 10.3765 34.1884 14.5974 34.1884 19.7847C34.1884 24.972 38.4077 29.193 43.5929 29.193C48.7782 29.193 52.9975 24.972 52.9975 19.7847C52.9975 14.5974 48.7782 10.3765 43.5929 10.3765Z" stroke="#88498F" stroke-width="0.666667"/>
<path d="M36.3806 27.7993C36.1766 27.7993 35.9726 27.7211 35.8164 27.5664C35.5055 27.2555 35.5055 26.75 35.8164 26.439L50.2435 12.0061C50.5544 11.6952 51.0597 11.6952 51.3705 12.0061C51.6813 12.3171 51.6813 12.8226 51.3705 13.1335L36.9433 27.5664C36.7887 27.7211 36.5846 27.7993 36.3806 27.7993Z" stroke="#88498F" stroke-width="0.666667"/>
<path d="M36.7469 81.2222C36.6879 81.2222 36.629 81.2159 36.57 81.2031C33.9 80.5971 31.4772 79.0839 29.7477 76.9423C27.9911 74.7688 27.0236 72.0293 27.0236 69.2291C27.0236 62.4583 32.5292 56.9505 39.2973 56.9505C44.4905 56.9505 49.1418 60.2402 50.8728 65.1357C51.0195 65.5503 50.8027 66.0064 50.3867 66.1531C49.9722 66.2998 49.5163 66.0829 49.3697 65.6667C47.865 61.4059 43.8162 58.5451 39.2973 58.5451C33.4091 58.5451 28.6176 63.3386 28.6176 69.2291C28.6176 74.2537 32.0335 78.5385 36.9238 79.6483C37.3526 79.7456 37.622 80.173 37.5248 80.6019C37.4403 80.9719 37.1119 81.2222 36.7469 81.2222Z" stroke="#88498F" stroke-width="0.666667"/>
<path d="M43.1228 73.8516C42.9187 73.8516 42.7147 73.7735 42.5585 73.6188L30.618 61.6735C30.3071 61.3626 30.3071 60.8571 30.618 60.5461C30.9288 60.2352 31.4341 60.2352 31.7449 60.5461L43.6854 72.4914C43.9963 72.8024 43.9963 73.3079 43.6854 73.6188C43.5308 73.7735 43.3268 73.8516 43.1228 73.8516Z" stroke="#88498F" stroke-width="0.666667"/>
<path d="M92.3774 57.4144C89.8286 57.4144 87.7548 55.3398 87.7548 52.79C87.7548 50.2402 89.8286 48.1656 92.3774 48.1656C94.9261 48.1656 96.9999 50.2402 96.9999 52.79C96.9999 55.3398 94.9261 57.4144 92.3774 57.4144ZM92.3774 49.7602C90.7069 49.7602 89.3488 51.1188 89.3488 52.79C89.3488 54.4611 90.7069 55.8198 92.3774 55.8198C94.0479 55.8198 95.4059 54.4611 95.4059 52.79C95.4059 51.1204 94.0479 49.7602 92.3774 49.7602Z" stroke="#88498F" stroke-width="0.666667"/>
<path d="M19.6911 20.5821C17.1423 20.5821 15.0685 18.5074 15.0685 15.9576C15.0685 13.4078 17.1423 11.3332 19.6911 11.3332C22.2398 11.3332 24.3136 13.4078 24.3136 15.9576C24.3136 18.5074 22.2398 20.5821 19.6911 20.5821ZM19.6911 12.9279C18.0206 12.9279 16.6625 14.2865 16.6625 15.9576C16.6625 17.6288 18.0206 18.9874 19.6911 18.9874C21.3616 18.9874 22.7196 17.6288 22.7196 15.9576C22.7196 14.2881 21.3616 12.9279 19.6911 12.9279Z" stroke="#88498F" stroke-width="0.666667"/>
<path d="M9.17075 85.0489C6.62198 85.0489 4.54822 82.9743 4.54822 80.4245C4.54822 77.8747 6.62198 75.8001 9.17075 75.8001C11.7195 75.8001 13.7933 77.8747 13.7933 80.4245C13.7933 82.9743 11.7195 85.0489 9.17075 85.0489ZM9.17075 77.3948C7.50026 77.3948 6.14219 78.7534 6.14219 80.4245C6.14219 82.0957 7.50026 83.4543 9.17075 83.4543C10.8412 83.4543 12.1993 82.0957 12.1993 80.4245C12.1993 78.7534 10.8412 77.3948 9.17075 77.3948Z" stroke="#88498F" stroke-width="0.666667"/>
<path d="M31.168 47.3717C28.6192 47.3717 26.5455 45.2971 26.5455 42.7473C26.5455 40.1975 28.6192 38.1229 31.168 38.1229C33.7168 38.1229 35.7906 40.1975 35.7906 42.7473C35.7906 45.2971 33.7168 47.3717 31.168 47.3717ZM31.168 39.7175C29.4975 39.7175 28.1395 41.0761 28.1395 42.7473C28.1395 44.4184 29.4975 45.7771 31.168 45.7771C32.8385 45.7771 34.1966 44.4184 34.1966 42.7473C34.1966 41.0777 32.8385 39.7175 31.168 39.7175Z" stroke="#88498F" stroke-width="0.666667"/>
<path d="M6.89778 53.6732C3.64603 53.6732 1 51.0261 1 47.7731V33.7404C1 30.4874 3.64603 27.8403 6.89778 27.8403C10.1495 27.8403 12.7956 30.4874 12.7956 33.7404V47.7731C12.7956 51.0261 10.1495 53.6732 6.89778 53.6732ZM6.89778 29.435C4.52432 29.435 2.59399 31.366 2.59399 33.7404V47.7731C2.59399 50.1475 4.52432 52.0785 6.89778 52.0785C9.27124 52.0785 11.2016 50.1475 11.2016 47.7731V33.7404C11.2016 31.366 9.27124 29.435 6.89778 29.435Z" stroke="#88498F" stroke-width="0.666667"/>
<path d="M11.9986 44.7433C11.5586 44.7433 11.2016 44.3861 11.2016 43.946C11.2016 41.5716 9.27124 39.6405 6.89778 39.6405C4.52432 39.6405 2.59399 41.5716 2.59399 43.946C2.59399 44.3861 2.23694 44.7433 1.797 44.7433C1.35705 44.7433 1 44.3861 1 43.946C1 40.693 3.64603 38.0459 6.89778 38.0459C10.1495 38.0459 12.7956 40.693 12.7956 43.946C12.7956 44.3861 12.4385 44.7433 11.9986 44.7433Z" stroke="#88498F" stroke-width="0.666667"/>
<path d="M48.3302 94.2629C46.0445 94.2629 43.8957 93.3731 42.281 91.7562C40.6647 90.1392 39.7753 87.9896 39.7753 85.7046C39.7753 83.4195 40.6647 81.2683 42.281 79.653L57.3681 64.5599C58.9844 62.943 61.1331 62.0532 63.4173 62.0532C65.7031 62.0532 67.8518 62.943 69.4665 64.5599C71.0828 66.1768 71.9722 68.3264 71.9722 70.6115C71.9722 72.8982 71.0828 75.0477 69.4665 76.6631L54.3794 91.7562C52.7647 93.3731 50.616 94.2629 48.3302 94.2629ZM63.4189 63.6462C61.5587 63.6462 59.8117 64.3701 58.4967 65.6857L43.4096 80.7788C42.0946 82.0943 41.3709 83.8436 41.3709 85.703C41.3709 87.5623 42.0946 89.3116 43.4096 90.6272C44.7246 91.9427 46.4732 92.6667 48.3318 92.6667C50.1904 92.6667 51.939 91.9427 53.2541 90.6272L68.3411 75.5341C69.6562 74.2185 70.3798 72.4692 70.3798 70.6099C70.3798 68.749 69.6562 67.0013 68.3411 65.6857C67.0261 64.3717 65.2775 63.6462 63.4189 63.6462Z" stroke="#88498F" stroke-width="0.666667"/>
<path d="M57.9329 87.8731C57.7289 87.8731 57.5248 87.7949 57.3686 87.6403C57.0578 87.3293 57.0578 86.8238 57.3686 86.5129C60.0832 83.7972 60.0832 79.3785 57.3686 76.6629C54.6541 73.9472 50.2371 73.9472 47.5226 76.6629C47.2118 76.9738 46.7065 76.9738 46.3956 76.6629C46.0848 76.3519 46.0848 75.8464 46.3956 75.5355C49.7319 72.1979 55.1594 72.1979 58.4956 75.5355C61.8318 78.873 61.8318 84.3027 58.4956 87.6403C58.341 87.7949 58.1369 87.8731 57.9329 87.8731Z" stroke="#88498F" stroke-width="0.666667"/>
<path d="M76.9429 29.5118C75.003 29.5118 73.1795 28.7559 71.807 27.3829C70.4346 26.01 69.6807 24.1857 69.6807 22.2451C69.6807 20.3044 70.4362 18.4802 71.8086 17.1072L84.382 4.52885C85.7544 3.15588 87.578 2.40002 89.5178 2.40002C91.4577 2.40002 93.2812 3.15588 94.6537 4.52885C96.0261 5.90182 96.78 7.72606 96.78 9.66671C96.78 11.6074 96.0245 13.4316 94.6537 14.8046L82.0803 27.3829C80.7063 28.7559 78.8828 29.5118 76.9429 29.5118ZM89.5147 4.00103C88.0625 4.00103 86.612 4.55436 85.5058 5.65943L72.9324 18.2378C71.8612 19.3094 71.2715 20.7334 71.2715 22.2483C71.2715 23.7632 71.8612 25.1871 72.9324 26.2587C74.0036 27.3303 75.427 27.9203 76.9413 27.9203C78.4556 27.9203 79.879 27.3303 80.9502 26.2587L93.5235 13.6804C95.7344 11.4686 95.7344 7.87117 93.5235 5.66102C92.4189 4.55436 90.9668 4.00103 89.5147 4.00103Z" stroke="#88498F" stroke-width="0.666667"/>
<path d="M84.943 24.1873C84.739 24.1873 84.535 24.1092 84.3787 23.9545C84.0679 23.6435 84.0679 23.138 84.3787 22.8271C85.4499 21.7555 86.0397 20.3315 86.0397 18.8166C86.0397 17.3017 85.4499 15.8777 84.3787 14.8061C82.1679 12.5944 78.5719 12.5944 76.3626 14.8061C76.0518 15.1171 75.5465 15.1171 75.2356 14.8061C74.9248 14.4952 74.9248 13.9897 75.2356 13.6787C78.0666 10.8467 82.6748 10.8467 85.5057 13.6787C86.8781 15.0517 87.6337 16.876 87.6337 18.8166C87.6337 20.7573 86.8781 22.5815 85.5057 23.9545C85.3511 24.1092 85.147 24.1873 84.943 24.1873Z" stroke="#88498F" stroke-width="0.666667"/>
</svg>