<svg width="128" height="48" viewBox="0 0 128 48" fill="none" xmlns="http://www.w3.org/2000/svg">
<g clip-path="url(#clip0_288_6416)">
<path d="M26.5715 0.599609C26.3328 0.599609 26.0662 0.664705 25.7872 0.797996L1.95907 12.3757C0.877243 12.9027 0 14.3038 0 15.5065V45.9869C0 46.6905 0.297581 47.1648 0.756351 47.3322H1.584C1.70179 47.2981 1.82268 47.2516 1.94357 47.1896L25.7965 35.2089C26.8722 34.6695 27.7432 33.256 27.7432 32.0533V2.02552C27.7432 1.13277 27.2596 0.599609 26.5684 0.599609H26.5715Z" fill="url(#paint0_linear_288_6416)"/>
<path d="M38.651 19.2024C37.1259 18.5886 35.4954 18.8924 34.4105 19.9649V19.0474H33.248V31.2234H34.4446V26.1738C35.4179 27.2371 36.9833 27.5564 38.5239 26.9829C40.2784 26.3288 41.3385 24.7913 41.23 23.0771C41.3137 21.3847 40.3001 19.8627 38.6479 19.1993L38.651 19.2024ZM40.0335 23.0802C40.0893 24.7944 38.9021 25.7182 37.8667 25.9879C36.7074 26.2885 35.204 25.9414 34.4415 24.4938V21.5241C35.1699 20.2253 36.7508 19.8658 37.9442 20.185C39.2834 20.5415 40.0645 21.6233 40.0335 23.0802Z" fill="#6240A3"/>
<path d="M44.4446 19.8536V19.0508H43.248V27.1041H44.4446V21.6732C44.9095 20.548 46.0565 19.8753 47.2437 20.0396L47.3491 20.0551L47.5165 18.9361L47.4142 18.9144C46.354 18.6943 45.0242 19.2182 44.4415 19.8536H44.4446Z" fill="#6240A3"/>
<path d="M54.2646 19.5036C53.0836 18.7596 51.5182 18.7255 50.2721 19.423C49.0012 20.1328 48.313 21.4316 48.3347 23.0714C48.2045 25.1855 49.587 26.4626 50.9261 26.9555C51.4593 27.1508 52.008 27.2469 52.5442 27.2469C53.7935 27.2469 54.959 26.7292 55.6626 25.7899L55.7215 25.7125L54.8784 24.9096L54.804 25.0057C54.029 26.0224 52.7116 26.3851 51.45 25.9294C50.5077 25.5916 49.5219 24.7174 49.5312 23.2729H55.9199L55.9261 23.1706C56.0315 21.5463 55.4456 20.2444 54.2708 19.5036H54.2646ZM49.6025 22.1632C49.8846 20.7063 51.1524 20.0615 52.2467 20.0739C53.2386 20.0894 54.4537 20.6474 54.6955 22.1632H49.6056H49.6025Z" fill="#6240A3"/>
<path d="M60.4303 22.4413C59.4663 22.1747 58.6355 21.9422 58.6355 21.2664C58.682 20.7457 58.9424 20.383 59.4074 20.1815C60.2536 19.8188 61.5121 20.1226 62.1569 20.6372L62.2499 20.7116L62.8822 19.7196L62.8078 19.6576C61.8345 18.8579 59.9808 18.6657 58.7564 19.2392C58.1612 19.5181 57.4483 20.0978 57.4421 21.2726C57.4421 22.7915 58.8153 23.1635 60.0242 23.489C61.0627 23.7711 61.9616 24.0129 61.9616 24.8529C61.9027 25.5535 61.447 25.8572 61.0782 25.9874C60.1451 26.3129 58.6665 25.9471 57.9753 25.2156L57.8885 25.1257L57.1538 26.0525L57.2158 26.1207C57.842 26.8244 59.0633 27.2397 60.2257 27.2397C60.731 27.2397 61.2238 27.1623 61.6547 26.9949C62.6343 26.6167 63.1705 25.8386 63.1612 24.8126C63.1612 23.1976 61.7136 22.7946 60.4365 22.4413H60.4303Z" fill="#6240A3"/>
<path d="M71.2796 25.0845C70.4364 26.0703 69.0663 26.3833 67.7892 25.8812C66.8159 25.4999 65.7991 24.5638 65.8549 23.0727C65.8146 21.5817 66.7973 20.6549 67.7303 20.2829C68.964 19.7932 70.2907 20.069 71.1153 20.9835L71.1959 21.0734L71.9584 20.2023L71.8933 20.131C70.7526 18.888 68.9237 18.5377 67.2312 19.2414C65.5728 19.9296 64.5871 21.402 64.6584 23.0727C64.6305 24.821 65.6534 26.3058 67.3304 26.9506C67.876 27.1614 68.4433 27.2637 68.9981 27.2637C70.2101 27.2637 71.3695 26.777 72.1506 25.8812L72.2188 25.8006L71.354 25.0008L71.2796 25.0876V25.0845Z" fill="#6240A3"/>
<path d="M75.1296 19.8536V19.0508H73.9331V27.1041H75.1296V21.6732C75.5946 20.548 76.7415 19.8784 77.9287 20.0396L78.0341 20.0551L78.2015 18.9361L78.0992 18.9144C77.0391 18.6943 75.7093 19.2182 75.1265 19.8536H75.1296Z" fill="#6240A3"/>
<path d="M83.3004 24.9869L80.433 19.0508H79.0908L82.6866 26.3601L80.4888 31.2268H81.7598L87.2867 19.0508H86.0003L83.3004 24.9869Z" fill="#6240A3"/>
<path d="M94.1315 19.2024C92.6064 18.5886 90.9759 18.8924 89.8909 19.9649V19.0474H88.7285V31.2234H89.925V26.1738C90.8984 27.2371 92.4638 27.5564 94.0044 26.9829C95.7589 26.3288 96.819 24.7913 96.7105 23.0771C96.7942 21.3847 95.7806 19.8627 94.1284 19.1993L94.1315 19.2024ZM95.514 23.0802C95.5729 24.7975 94.3826 25.7182 93.3472 25.9879C92.1879 26.2885 90.6845 25.9414 89.9219 24.4938V21.5241C90.6504 20.2253 92.2313 19.8658 93.4247 20.185C94.7638 20.5415 95.545 21.6233 95.514 23.0802Z" fill="#6240A3"/>
<path d="M103.037 26.0302C102.259 26.2255 101.599 26.1418 101.178 25.7946C100.818 25.4971 100.651 25.0228 100.682 24.3811V20.1933H103.344V19.0495H100.682V16.9199H99.485V19.0495H97.2842V20.1933H99.4881C99.5036 20.6738 99.4881 21.21 99.4695 21.7773C99.4075 23.6837 99.3393 25.8411 100.508 26.7959C100.911 27.1245 101.422 27.2888 102.061 27.2888C102.421 27.2888 102.82 27.2361 103.264 27.1307L103.366 27.1059L103.152 25.9961L103.041 26.024L103.037 26.0302Z" fill="#6240A3"/>
<path d="M106.729 19.0508H105.532V27.1041H106.729V19.0508Z" fill="#6240A3"/>
<path d="M106.134 15.4609H106.106C105.762 15.4609 105.48 15.6159 105.316 15.9042C105.127 16.2297 105.127 16.6637 105.316 16.9829C105.48 17.2619 105.756 17.4138 106.094 17.4138C106.1 17.4138 106.109 17.4138 106.118 17.4138C106.478 17.42 106.773 17.265 106.94 16.9767C107.126 16.6606 107.126 16.2328 106.94 15.9104C106.773 15.619 106.484 15.4609 106.131 15.4609H106.134Z" fill="#6240A3"/>
<path d="M112.29 25.1543L109.472 19.0508H108.167L111.881 27.0421L111.912 27.1041H112.686L116.412 19.0508H115.107L112.29 25.1543Z" fill="#6240A3"/>
<path d="M123.027 19.5036C121.846 18.7596 120.281 18.7255 119.035 19.423C117.764 20.1328 117.076 21.4316 117.097 23.0714C116.967 25.1855 118.35 26.4626 119.689 26.9555C120.222 27.1508 120.774 27.2469 121.307 27.2469C122.556 27.2469 123.722 26.7292 124.425 25.7899L124.484 25.7125L123.638 24.9096L123.564 25.0057C122.789 26.0224 121.471 26.3851 120.21 25.9294C119.267 25.5885 118.282 24.7143 118.291 23.2729H124.676L124.683 23.1706C124.788 21.5463 124.202 20.2444 123.027 19.5036ZM118.365 22.1632C118.647 20.7063 119.924 20.0584 121.009 20.0739C122.001 20.0894 123.216 20.6474 123.458 22.1632H118.368H118.365Z" fill="#6240A3"/>
<path d="M127.677 19.207L127.265 20.1866L126.865 19.207H126.521V20.4996H126.766V19.548L127.163 20.4996H127.349L127.752 19.5635L127.755 20.4996H128V19.207H127.677Z" fill="#6240A3"/>
<path d="M125.427 19.4116H125.743L125.74 20.4996H126.003V19.4116H126.316V19.207H125.427V19.4116Z" fill="#6240A3"/>
<path d="M14.5475 19.4363C15.0404 19.6936 15.4278 20.078 15.7099 20.5832C15.992 21.0916 16.1346 21.7023 16.1346 22.4183V27.0804H14.5134V22.6632C14.5134 21.9564 14.3367 21.414 13.9833 21.0358C13.6299 20.6576 13.1464 20.4685 12.5357 20.4685C11.9251 20.4685 11.4384 20.6576 11.0788 21.0358C10.7192 21.414 10.5394 21.9564 10.5394 22.6632V27.0804H8.91825V22.6632C8.91825 21.9564 8.74156 21.414 8.38819 21.0358C8.03481 20.6576 7.55124 20.4685 6.94058 20.4685C6.32992 20.4685 5.84325 20.6576 5.48368 21.0358C5.1241 21.414 4.94431 21.9564 4.94431 22.6632V27.0804H3.30762V19.1759H4.94431V20.0811C5.21089 19.7556 5.55187 19.5014 5.96414 19.3216C6.37642 19.1387 6.81659 19.0488 7.28466 19.0488C7.91702 19.0488 8.48118 19.1821 8.97715 19.4518C9.47312 19.7184 9.85749 20.1059 10.1241 20.6142C10.3628 20.1369 10.7347 19.7556 11.2431 19.4735C11.7484 19.1914 12.2939 19.0488 12.8798 19.0488C13.4998 19.0488 14.0577 19.179 14.5506 19.4363H14.5475Z" fill="white"/>
<path d="M25.3283 19.1777L20.4802 30.7989H18.7878L20.3934 26.9551L17.2812 19.1808H19.1039L21.3265 25.2068L23.6358 19.1808H25.3283V19.1777Z" fill="white"/>
</g>
<defs>
<linearGradient id="paint0_linear_288_6416" x1="13.8747" y1="1.20717" x2="13.8747" y2="46.6626" gradientUnits="userSpaceOnUse">
<stop stop-color="#7F42B6"/>
<stop offset="1" stop-color="#6341A3"/>
</linearGradient>
<clipPath id="clip0_288_6416">
<rect width="128" height="48" fill="white"/>
</clipPath>
</defs>
</svg>
