<svg width="96" height="32" viewBox="0 0 96 32" fill="none" xmlns="http://www.w3.org/2000/svg">
<g clip-path="url(#clip0_1762_21294)">
<path d="M12.8969 7.39541C13.779 7.86727 14.4961 8.59727 14.952 9.48775C15.4717 8.60318 16.2205 7.87529 17.1195 7.3809C18.0184 6.8865 19.0342 6.64394 20.0595 6.67881C21.5656 6.6264 23.0332 7.16085 24.1529 8.16948C25.2436 9.17452 25.7889 10.5503 25.7889 12.2967V24.5296H20.7862V13.2905C20.7862 12.3305 20.58 11.5936 20.1677 11.0798C19.9628 10.8256 19.7008 10.6233 19.403 10.4894C19.1052 10.3555 18.7801 10.2937 18.4539 10.3091C18.0652 10.3051 17.6807 10.3893 17.3293 10.5556C16.978 10.7219 16.669 10.9659 16.4258 11.2691C15.8666 11.9411 15.5742 12.7953 15.6044 13.669V24.5296H10.6017V13.2905C10.6478 12.508 10.4234 11.7334 9.96625 11.0967C9.75976 10.8389 9.49552 10.6333 9.19488 10.4965C8.89423 10.3597 8.56562 10.2955 8.2356 10.3091C7.85027 10.3049 7.46912 10.3892 7.12157 10.5557C6.77402 10.7221 6.46937 10.9662 6.23114 11.2691C5.68131 11.9453 5.39547 12.7981 5.42666 13.669V24.5296H0.4375V7.02021H4.19289C4.3281 7.59034 4.51063 8.44665 4.74048 9.58916C5.28626 8.67606 6.0596 7.92019 6.98493 7.39541C7.87392 6.91417 8.87093 6.66754 9.88175 6.67881C10.931 6.66105 11.9678 6.90748 12.8969 7.39541V7.39541Z" fill="#614195"/>
<path d="M36.0445 28.9678C35.4855 29.5952 34.7987 30.0956 34.0303 30.4355C33.2619 30.7754 32.4296 30.9469 31.5894 30.9385C30.5816 30.977 29.5771 30.8019 28.6419 30.4247V26.8958C28.9859 27.037 29.3409 27.1501 29.7032 27.2338C30.1069 27.3341 30.5211 27.3863 30.937 27.3893C32.4018 27.3893 33.4417 26.3268 34.0569 24.2018L27.4419 7.02026H32.7556L36.6259 18.0194H36.8321L40.4658 7.02026H45.3941L39.1576 23.5832C38.3148 25.8592 37.2771 27.6541 36.0445 28.9678Z" fill="#614195"/>
<path d="M65.0937 24.5499C64.9134 24.5857 64.7299 24.6027 64.5461 24.6006C64.1841 24.5945 63.8281 24.5066 63.5049 24.3432C63.1818 24.1799 62.8998 23.9454 62.6803 23.6575C62.1439 23.0355 61.8746 21.8683 61.8724 20.1556C61.8724 17.4154 61.3935 15.5935 60.4358 14.6899C59.4781 13.7862 58.4843 13.3355 57.4545 13.3378H49.8795V24.5093H48.0305V1.00009H57.5897C58.6896 0.99444 59.7756 1.24682 60.7603 1.73697C61.7275 2.20556 62.5592 2.91286 63.1771 3.79213C63.7981 4.68354 64.1222 5.74807 64.1033 6.8343C64.0984 7.67591 63.9104 8.50637 63.5523 9.26804C63.1986 10.0552 62.6785 10.7563 62.0279 11.3232C61.426 11.8686 60.6838 12.235 59.8848 12.3812V12.5536C59.8848 12.4387 60.2229 12.5739 60.9327 12.9626C61.7378 13.4682 62.389 14.1849 62.8155 15.0346C63.3698 16.0262 63.647 17.4357 63.647 19.2633C63.6134 20.2237 63.694 21.1848 63.887 22.1263C63.9544 22.5396 64.1253 22.9292 64.3839 23.2586C64.6969 23.4886 65.0376 23.6782 65.3979 23.8231V24.4721C65.2995 24.5085 65.1975 24.5346 65.0937 24.5499V24.5499ZM59.9896 11.0629C60.6882 10.6667 61.2709 10.0945 61.6797 9.40324C62.0856 8.71655 62.2982 7.93283 62.2949 7.13514C62.3017 6.33806 62.0889 5.5545 61.6797 4.87041C61.2684 4.1852 60.6853 3.61926 59.9881 3.22857C59.2909 2.83788 58.5038 2.63599 57.7046 2.64286H49.8795V11.7052H57.6945C58.5025 11.7049 59.2954 11.4865 59.9896 11.0731V11.0629Z" fill="#614195"/>
<path d="M79.7571 24.5161L74.3826 16.9512H74.3488L68.9067 24.5161H66.9225L73.426 15.5484L67.1963 7.02698H69.3934L74.4637 14.1457H74.5009L79.632 7.02698H81.6196L75.4101 15.5484L81.9001 24.5161H79.7571Z" fill="#614195"/>
<path d="M82.6504 7.14532H82.3124V8.1053H82.1704V7.14532H81.8324V7.0304H82.6639L82.6504 7.14532Z" fill="#614195"/>
<path d="M82.9918 7.0304L83.3298 7.90586L83.6678 7.0304H83.8504V8.1053H83.7084V7.68615V7.23321L83.3704 8.1053H83.2622L82.9242 7.23659V7.68615V8.1053H82.7822V7.0304H82.9918Z" fill="#614195"/>
<path d="M83.8064 23.9144C83.8003 23.7335 83.8631 23.5571 83.9822 23.4208C84.051 23.3512 84.134 23.2972 84.2256 23.2628C84.3173 23.2284 84.4153 23.2143 84.5129 23.2214C84.611 23.2149 84.7093 23.2293 84.8014 23.2637C84.8935 23.298 84.9772 23.3516 85.047 23.4208C85.1694 23.5555 85.2348 23.7324 85.2295 23.9144C85.2333 24.091 85.1677 24.262 85.047 24.391C84.9762 24.4584 84.8922 24.5104 84.8002 24.5436C84.7083 24.5768 84.6104 24.5904 84.5129 24.5836C84.4158 24.5917 84.3181 24.5786 84.2265 24.5453C84.1349 24.5121 84.0516 24.4594 83.9822 24.391C83.8639 24.261 83.8008 24.09 83.8064 23.9144Z" fill="#614195"/>
<path d="M87.1123 16.0454C87.1076 15.8725 87.1692 15.7044 87.2847 15.5756C87.3492 15.5083 87.4279 15.4561 87.515 15.4228C87.602 15.3895 87.6954 15.3759 87.7884 15.3829C87.8818 15.3765 87.9754 15.3905 88.063 15.4237C88.1505 15.457 88.2298 15.5088 88.2954 15.5756C88.4108 15.7044 88.4725 15.8725 88.4678 16.0454C88.4731 16.1344 88.4591 16.2234 88.4266 16.3064C88.3941 16.3895 88.344 16.4644 88.2797 16.5261C88.2154 16.5879 88.1385 16.6349 88.0542 16.6639C87.97 16.693 87.8804 16.7034 87.7917 16.6944C87.6996 16.7014 87.6071 16.6887 87.5203 16.6572C87.4335 16.6258 87.3543 16.5762 87.2881 16.5119C87.1722 16.3845 87.1093 16.2176 87.1123 16.0454ZM88.3495 24.5162H87.207V17.8234H88.3495V24.5162Z" fill="#614195"/>
<path d="M89.8907 21.1056C89.881 20.4945 90.0129 19.8894 90.2761 19.3377C90.515 18.8381 90.8929 18.418 91.3645 18.1276C91.8387 17.8396 92.3849 17.6919 92.9397 17.7017C93.3551 17.687 93.7687 17.7641 94.1508 17.9278C94.533 18.0914 94.8743 18.3374 95.1503 18.6482C95.7394 19.351 96.0412 20.2505 95.9954 21.1664V21.2476C96.0051 21.8532 95.8768 22.4532 95.6202 23.0019C95.386 23.5026 95.0099 23.9234 94.5385 24.212C94.0585 24.5078 93.5034 24.6591 92.9397 24.648C92.5253 24.662 92.113 24.5845 91.7321 24.4209C91.3511 24.2573 91.0109 24.0117 90.7358 23.7016C90.1476 23.0022 89.8458 22.1062 89.8907 21.1935V21.1056ZM91.04 21.2442C91.0087 21.8811 91.1907 22.5104 91.5572 23.0323C91.7208 23.2435 91.9306 23.4145 92.1706 23.5321C92.4105 23.6498 92.6742 23.7109 92.9414 23.7109C93.2086 23.7109 93.4722 23.6498 93.7122 23.5321C93.9521 23.4145 94.1619 23.2435 94.3255 23.0323C94.7008 22.4664 94.8812 21.7935 94.8393 21.1157C94.8697 20.4805 94.6865 19.8533 94.3188 19.3344C94.159 19.1179 93.9492 18.9433 93.7072 18.8256C93.4653 18.7079 93.1985 18.6505 92.9295 18.6583C92.6637 18.6521 92.4003 18.7103 92.1619 18.828C91.9235 18.9458 91.7172 19.1195 91.5605 19.3344C91.1793 19.8958 90.9918 20.5664 91.0265 21.2442H91.04Z" fill="#614195"/>
</g>
<defs>
<clipPath id="clip0_1762_21294">
<rect width="96" height="32" fill="white"/>
</clipPath>
</defs>
</svg>
