<?xml version="1.0" encoding="UTF-8"?>
<svg width="20px" height="260px" viewBox="0 0 100 100" version="1.1" xmlns="http://www.w3.org/2000/svg" xmlns:xlink="http://www.w3.org/1999/xlink">
    <!-- Generator: sketchtool 54.1 (76490) - https://sketchapp.com -->
    <title>D8BDD018-44E1-4A7D-B401-CB0776EC5853</title>
    <desc>Created with sketchtool.</desc>
    <g id="Other-Screens" stroke="none" stroke-width="1" fill="none" fill-rule="evenodd">
        <g id="Hamburger-Overlay" transform="translate(-108.000000, -80.000000)">
            <g id="Menu" transform="translate(78.000000, 30.000000)">
                <g id="profile-detail">
                    <g id="ic-profile" transform="translate(30.000000, 50.000000)">
                        <circle id="icon-bg" fill="#FFFFFF" cx="50" cy="50" r="50"></circle>
                        <circle id="icon-border" fill="#F2E9F4" cx="50" cy="50" r="49"></circle>
                        <path d="M42.2556,36.1387 C42.2556,36.1087 42.2656,36.0767 42.2656,36.0557 C42.6066,28.6607 47.8566,27.8677 50.1046,27.8677 L50.2276,27.8677 C53.0126,27.9287 57.7466,29.0637 58.0666,36.0557 C58.0666,36.0867 58.0666,36.1177 58.0766,36.1387 C58.0876,36.2107 58.8096,43.2247 55.5286,46.9157 C54.2296,48.3807 52.4976,49.1027 50.2176,49.1227 L50.1146,49.1227 C47.8456,49.1027 46.1026,48.3807 44.8136,46.9157 C41.5446,43.2447 42.2456,36.2007 42.2556,36.1387 M50.0016,51.9087 L50.3316,51.9087 C53.3536,51.8567 55.7976,50.7937 57.6026,48.7627 C61.5726,44.2857 60.9136,36.6137 60.8406,35.8807 C60.5826,30.3837 57.9836,27.7537 55.8386,26.5267 C54.2396,25.6087 52.3736,25.1137 50.2896,25.0727 L50.1146,25.0727 C48.9696,25.0727 46.7216,25.2577 44.5666,26.4857 C42.4006,27.7127 39.7596,30.3417 39.5016,35.8807 C39.4296,36.6137 38.7696,44.2857 42.7406,48.7627 C44.5346,50.7937 46.9796,51.8567 50.0016,51.9087" id="Fill-1" fill="#6240A3"></path>
                        <path d="M71.3605,64.6348 L71.3605,64.6048 C71.3605,64.5218 71.3495,64.4388 71.3495,64.3468 C71.2885,62.3038 71.1535,57.5298 66.6785,56.0028 C66.6475,55.9918 66.6065,55.9828 66.5745,55.9718 C61.9235,54.7848 58.0565,52.1038 58.0145,52.0728 C57.3855,51.6298 56.5195,51.7838 56.0755,52.4128 C55.6325,53.0428 55.7865,53.9088 56.4155,54.3528 C56.5915,54.4758 60.6965,57.3328 65.8325,58.6538 C68.2355,59.5088 68.5035,62.0768 68.5755,64.4288 C68.5755,64.5218 68.5755,64.6048 68.5865,64.6868 C68.5965,65.6138 68.5345,67.0488 68.3695,67.8728 C66.6985,68.8218 60.1495,72.1018 50.1865,72.1018 C40.2655,72.1018 33.6745,68.8118 31.9935,67.8638 C31.8285,67.0378 31.7565,65.6048 31.7775,64.6758 C31.7775,64.5938 31.7875,64.5118 31.7875,64.4178 C31.8605,62.0678 32.1275,59.4988 34.5305,58.6428 C39.6675,57.3228 43.7715,54.4558 43.9465,54.3418 C44.5755,53.8988 44.7315,53.0318 44.2875,52.4038 C43.8435,51.7748 42.9775,51.6188 42.3485,52.0628 C42.3075,52.0938 38.4605,54.7758 33.7885,55.9618 C33.7465,55.9718 33.7155,55.9828 33.6845,55.9918 C29.2095,57.5298 29.0745,62.3038 29.0135,64.3358 C29.0135,64.4288 29.0135,64.5118 29.0035,64.5938 L29.0035,64.6248 C28.9925,65.1608 28.9825,67.9148 29.5285,69.2968 C29.6315,69.5648 29.8175,69.7918 30.0655,69.9468 C30.3745,70.1528 37.7905,74.8758 50.1965,74.8758 C62.6045,74.8758 70.0205,70.1428 70.3295,69.9468 C70.5665,69.7918 70.7625,69.5648 70.8655,69.2968 C71.3815,67.9248 71.3705,65.1708 71.3605,64.6348" id="Fill-3" fill="#6240A3"></path>
                    </g>
                </g>
            </g>
        </g>
    </g>
</svg>