<svg width="48" height="64" viewBox="0 0 48 64" fill="none" xmlns="http://www.w3.org/2000/svg">
<path fill-rule="evenodd" clip-rule="evenodd" d="M45.5998 28.8H2.3998V62.4H45.5998V28.8ZM2.3998 27.2C1.51615 27.2 0.799805 27.9163 0.799805 28.8V62.4C0.799805 63.2836 1.51615 64 2.39981 64H45.5998C46.4835 64 47.1998 63.2836 47.1998 62.4V28.8C47.1998 27.9163 46.4835 27.2 45.5998 27.2H2.3998Z" fill="#3C4266"/>
<path fill-rule="evenodd" clip-rule="evenodd" d="M39.1998 27.2V16.8C39.1998 8.40527 32.3945 1.6 23.9998 1.6C15.6051 1.6 8.7998 8.40527 8.7998 16.8V27.2L39.1998 27.2ZM23.9998 0C14.7214 0 7.1998 7.52161 7.1998 16.8V27.2C7.1998 28.0837 7.91615 28.8 8.7998 28.8H39.1998C40.0835 28.8 40.7998 28.0837 40.7998 27.2V16.8C40.7998 7.52161 33.2782 0 23.9998 0Z" fill="#3C4266"/>
<path fill-rule="evenodd" clip-rule="evenodd" d="M23.9998 51.2C27.0926 51.2 29.5998 48.6928 29.5998 45.6C29.5998 42.5072 27.0926 40 23.9998 40C20.907 40 18.3998 42.5072 18.3998 45.6C18.3998 48.6928 20.907 51.2 23.9998 51.2ZM23.9998 52.8C27.9763 52.8 31.1998 49.5764 31.1998 45.6C31.1998 41.6235 27.9763 38.4 23.9998 38.4C20.0234 38.4 16.7998 41.6235 16.7998 45.6C16.7998 49.5764 20.0234 52.8 23.9998 52.8Z" fill="#3C4266"/>
</svg>
