<svg width="128" height="48" viewBox="0 0 128 48" fill="none" xmlns="http://www.w3.org/2000/svg">
<g clip-path="url(#clip0_575_3402)">
<path d="M26.5715 0.599609C26.3328 0.599609 26.0662 0.664705 25.7872 0.797996L1.95907 12.3757C0.877243 12.9027 0 14.3038 0 15.5065V45.9869C0 46.6905 0.297581 47.1648 0.756351 47.3322H1.584C1.70179 47.2981 1.82268 47.2516 1.94357 47.1896L25.7965 35.2089C26.8722 34.6695 27.7432 33.256 27.7432 32.0533V2.02552C27.7432 1.13277 27.2596 0.599609 26.5684 0.599609H26.5715Z" fill="url(#paint0_linear_575_3402)"/>
<path d="M38.6512 19.2024C37.1261 18.5886 35.4956 18.8924 34.4107 19.9649V19.0474H33.2483V31.2234H34.4448V26.1738C35.4182 27.2371 36.9835 27.5564 38.5241 26.9829C40.2786 26.3288 41.3388 24.7913 41.2303 23.0771C41.314 21.3847 40.3003 19.8627 38.6481 19.1993L38.6512 19.2024ZM40.0337 23.0802C40.0895 24.7944 38.9023 25.7182 37.867 25.9879C36.7077 26.2885 35.2043 25.9414 34.4417 24.4938V21.5241C35.1702 20.2253 36.7511 19.8658 37.9445 20.185C39.2836 20.5415 40.0647 21.6233 40.0337 23.0802Z" fill="#6240A3"/>
<path d="M44.4446 19.8536V19.0508H43.248V27.1041H44.4446V21.6732C44.9095 20.548 46.0565 19.8753 47.2437 20.0396L47.3491 20.0551L47.5165 18.9361L47.4142 18.9144C46.354 18.6943 45.0242 19.2182 44.4415 19.8536H44.4446Z" fill="#6240A3"/>
<path d="M54.2649 19.5036C53.0838 18.7596 51.5184 18.7255 50.2723 19.423C49.0014 20.1328 48.3132 21.4316 48.3349 23.0714C48.2048 25.1855 49.5873 26.4626 50.9264 26.9555C51.4595 27.1508 52.0082 27.2469 52.5445 27.2469C53.7937 27.2469 54.9592 26.7292 55.6629 25.7899L55.7218 25.7125L54.8786 24.9096L54.8042 25.0057C54.0293 26.0224 52.7119 26.3851 51.4502 25.9294C50.5079 25.5916 49.5222 24.7174 49.5315 23.2729H55.9202L55.9264 23.1706C56.0318 21.5463 55.4459 20.2444 54.2711 19.5036H54.2649ZM49.6028 22.1632C49.8849 20.7063 51.1527 20.0615 52.2469 20.0739C53.2388 20.0894 54.454 20.6474 54.6957 22.1632H49.6059H49.6028Z" fill="#6240A3"/>
<path d="M60.4305 22.4413C59.4665 22.1747 58.6358 21.9422 58.6358 21.2664C58.6823 20.7457 58.9426 20.383 59.4076 20.1815C60.2538 19.8188 61.5124 20.1226 62.1571 20.6372L62.2501 20.7116L62.8825 19.7196L62.8081 19.6576C61.8347 18.8579 59.9811 18.6657 58.7566 19.2392C58.1615 19.5181 57.4485 20.0978 57.4423 21.2726C57.4423 22.7915 58.8155 23.1635 60.0245 23.489C61.0629 23.7711 61.9618 24.0129 61.9618 24.8529C61.9029 25.5535 61.4473 25.8572 61.0784 25.9874C60.1454 26.3129 58.6668 25.9471 57.9755 25.2156L57.8887 25.1257L57.1541 26.0525L57.216 26.1207C57.8422 26.8244 59.0635 27.2397 60.226 27.2397C60.7312 27.2397 61.2241 27.1623 61.655 26.9949C62.6345 26.6167 63.1708 25.8386 63.1615 24.8126C63.1615 23.1976 61.7139 22.7946 60.4367 22.4413H60.4305Z" fill="#6240A3"/>
<path d="M71.2798 25.0845C70.4367 26.0703 69.0666 26.3833 67.7894 25.8812C66.8161 25.4999 65.7994 24.5638 65.8552 23.0727C65.8149 21.5817 66.7975 20.6549 67.7306 20.2829C68.9643 19.7932 70.291 20.069 71.1155 20.9835L71.1961 21.0734L71.9587 20.2023L71.8936 20.131C70.7529 18.888 68.924 18.5377 67.2315 19.2414C65.5731 19.9296 64.5874 21.402 64.6587 23.0727C64.6308 24.821 65.6537 26.3058 67.3307 26.9506C67.8762 27.1614 68.4435 27.2637 68.9984 27.2637C70.2104 27.2637 71.3697 26.777 72.1509 25.8812L72.2191 25.8006L71.3542 25.0008L71.2798 25.0876V25.0845Z" fill="#6240A3"/>
<path d="M75.1299 19.8536V19.0508H73.9333V27.1041H75.1299V21.6732C75.5948 20.548 76.7418 19.8784 77.929 20.0396L78.0344 20.0551L78.2018 18.9361L78.0995 18.9144C77.0393 18.6943 75.7095 19.2182 75.1268 19.8536H75.1299Z" fill="#6240A3"/>
<path d="M83.3008 24.9869L80.4335 19.0508H79.0913L82.6871 26.3601L80.4893 31.2268H81.7602L87.2872 19.0508H86.0008L83.3008 24.9869Z" fill="#6240A3"/>
<path d="M94.1315 19.2024C92.6064 18.5886 90.9759 18.8924 89.8909 19.9649V19.0474H88.7285V31.2234H89.925V26.1738C90.8984 27.2371 92.4638 27.5564 94.0044 26.9829C95.7589 26.3288 96.819 24.7913 96.7105 23.0771C96.7942 21.3847 95.7806 19.8627 94.1284 19.1993L94.1315 19.2024ZM95.514 23.0802C95.5729 24.7975 94.3826 25.7182 93.3472 25.9879C92.1879 26.2885 90.6845 25.9414 89.9219 24.4938V21.5241C90.6504 20.2253 92.2313 19.8658 93.4247 20.185C94.7638 20.5415 95.545 21.6233 95.514 23.0802Z" fill="#6240A3"/>
<path d="M103.037 26.0302C102.259 26.2255 101.599 26.1418 101.178 25.7946C100.818 25.4971 100.651 25.0228 100.682 24.3811V20.1933H103.344V19.0495H100.682V16.9199H99.485V19.0495H97.2842V20.1933H99.4881C99.5036 20.6738 99.4881 21.21 99.4695 21.7773C99.4075 23.6837 99.3393 25.8411 100.508 26.7959C100.911 27.1245 101.422 27.2888 102.061 27.2888C102.421 27.2888 102.82 27.2361 103.264 27.1307L103.366 27.1059L103.152 25.9961L103.041 26.024L103.037 26.0302Z" fill="#6240A3"/>
<path d="M106.729 19.0508H105.532V27.1041H106.729V19.0508Z" fill="#6240A3"/>
<path d="M106.134 15.4609H106.106C105.762 15.4609 105.48 15.6159 105.316 15.9042C105.127 16.2297 105.127 16.6637 105.316 16.9829C105.48 17.2619 105.756 17.4138 106.094 17.4138C106.1 17.4138 106.109 17.4138 106.118 17.4138C106.478 17.42 106.773 17.265 106.94 16.9767C107.126 16.6606 107.126 16.2328 106.94 15.9104C106.773 15.619 106.484 15.4609 106.131 15.4609H106.134Z" fill="#6240A3"/>
<path d="M112.29 25.1543L109.472 19.0508H108.167L111.881 27.0421L111.912 27.1041H112.687L116.413 19.0508H115.108L112.29 25.1543Z" fill="#6240A3"/>
<path d="M123.028 19.5036C121.847 18.7596 120.281 18.7255 119.035 19.423C117.764 20.1328 117.076 21.4316 117.098 23.0714C116.968 25.1855 118.35 26.4626 119.689 26.9555C120.222 27.1508 120.774 27.2469 121.307 27.2469C122.557 27.2469 123.722 26.7292 124.426 25.7899L124.485 25.7125L123.638 24.9096L123.564 25.0057C122.789 26.0224 121.472 26.3851 120.21 25.9294C119.268 25.5885 118.282 24.7143 118.291 23.2729H124.677L124.683 23.1706C124.788 21.5463 124.203 20.2444 123.028 19.5036ZM118.366 22.1632C118.648 20.7063 119.925 20.0584 121.01 20.0739C122.002 20.0894 123.217 20.6474 123.459 22.1632H118.369H118.366Z" fill="#6240A3"/>
<path d="M127.677 19.207L127.265 20.1866L126.865 19.207H126.521V20.4996H126.766V19.548L127.163 20.4996H127.349L127.752 19.5635L127.755 20.4996H128V19.207H127.677Z" fill="#6240A3"/>
<path d="M125.427 19.4116H125.743L125.74 20.4996H126.004V19.4116H126.317V19.207H125.427V19.4116Z" fill="#6240A3"/>
<path d="M14.5472 19.4363C15.0401 19.6936 15.4276 20.078 15.7097 20.5832C15.9918 21.0916 16.1343 21.7023 16.1343 22.4183V27.0804H14.5131V22.6632C14.5131 21.9564 14.3365 21.414 13.9831 21.0358C13.6297 20.6576 13.1461 20.4685 12.5355 20.4685C11.9248 20.4685 11.4381 20.6576 11.0786 21.0358C10.719 21.414 10.5392 21.9564 10.5392 22.6632V27.0804H8.91801V22.6632C8.91801 21.9564 8.74132 21.414 8.38794 21.0358C8.03457 20.6576 7.551 20.4685 6.94034 20.4685C6.32968 20.4685 5.84301 20.6576 5.48343 21.0358C5.12386 21.414 4.94407 21.9564 4.94407 22.6632V27.0804H3.30737V19.1759H4.94407V20.0811C5.21065 19.7556 5.55163 19.5014 5.9639 19.3216C6.37617 19.1387 6.81635 19.0488 7.28442 19.0488C7.91677 19.0488 8.48094 19.1821 8.9769 19.4518C9.47287 19.7184 9.85725 20.1059 10.1238 20.6142C10.3625 20.1369 10.7345 19.7556 11.2429 19.4735C11.7481 19.1914 12.2937 19.0488 12.8796 19.0488C13.4995 19.0488 14.0575 19.179 14.5503 19.4363H14.5472Z" fill="white"/>
<path d="M25.3281 19.1777L20.48 30.7989H18.7875L20.3932 26.9551L17.281 19.1808H19.1037L21.3262 25.2068L23.6356 19.1808H25.3281V19.1777Z" fill="white"/>
</g>
<defs>
<linearGradient id="paint0_linear_575_3402" x1="13.8747" y1="1.20717" x2="13.8747" y2="46.6626" gradientUnits="userSpaceOnUse">
<stop stop-color="#7F42B6"/>
<stop offset="1" stop-color="#6341A3"/>
</linearGradient>
<clipPath id="clip0_575_3402">
<rect width="128" height="48" fill="white"/>
</clipPath>
</defs>
</svg>
