<svg width="80" height="80" viewBox="0 0 80 80" fill="none" xmlns="http://www.w3.org/2000/svg">
<path d="M43.9184 14.6939H17.7959C17.3453 14.6939 16.9796 14.3282 16.9796 13.8776V6.04082C16.9796 4.87021 17.9315 3.91837 19.1021 3.91837H24.3527C25.6311 1.52163 28.1274 0 30.8572 0C33.587 0 36.0849 1.52163 37.3617 3.91837H42.6123C43.7829 3.91837 44.7347 4.87021 44.7347 6.04082V13.8776C44.7347 14.3282 44.369 14.6939 43.9184 14.6939ZM18.6123 13.0612H43.1021V6.04082C43.1021 5.77143 42.8817 5.55102 42.6123 5.55102H36.8523C36.529 5.55102 36.2368 5.36 36.1062 5.06612C35.1821 2.97959 33.1217 1.63265 30.8572 1.63265C28.5927 1.63265 26.5323 2.97959 25.6082 5.06612C25.4776 5.36164 25.1853 5.55102 24.8621 5.55102H19.1021C18.8327 5.55102 18.6123 5.77143 18.6123 6.04082V13.0612Z" fill="#3C4266"/>
<path d="M32.8166 7.34694C32.8166 8.42776 31.9382 9.30613 30.8574 9.30613C29.7766 9.30613 28.8982 8.42776 28.8982 7.34694C28.8982 7.06939 28.957 6.80164 29.0582 6.56327C29.3635 5.87429 30.0541 5.38776 30.8574 5.38776C31.6607 5.38776 32.3497 5.87429 32.6566 6.56327C32.7578 6.80164 32.8166 7.06939 32.8166 7.34694Z" fill="#3C4266"/>
<path d="M60.8985 30.3673C60.4478 30.3673 60.0821 30.0016 60.0821 29.551V9.95915C60.0821 8.24813 58.6911 6.85711 56.9801 6.85711H43.9188C43.4682 6.85711 43.1021 6.49143 43.1021 6.04082C43.1021 5.59021 43.4682 5.22445 43.9188 5.22445H56.9801C59.5907 5.22445 61.7148 7.34854 61.7148 9.95915V29.551C61.7148 30.0016 61.3491 30.3673 60.8985 30.3673Z" fill="#3C4266"/>
<path d="M42.6123 80H4.7347C2.12408 80 0 77.8759 0 75.2653V9.95915C0 7.34854 2.12408 5.22445 4.7347 5.22445H17.7959C18.2466 5.22445 18.6123 5.59021 18.6123 6.04082C18.6123 6.49143 18.2466 6.85711 17.7959 6.85711H4.7347C3.02368 6.85711 1.63265 8.24813 1.63265 9.95915V75.2653C1.63265 76.9763 3.02368 78.3673 4.7347 78.3673H42.6123C43.0629 78.3673 43.4286 78.7331 43.4286 79.1837C43.4286 79.6343 43.0629 80 42.6123 80Z" fill="#3C4266"/>
<path d="M54.3678 30.3674C53.9172 30.3674 53.5515 30.0017 53.5515 29.5511V13.3878H43.9188C43.4682 13.3878 43.1025 13.0221 43.1025 12.5714C43.1025 12.1208 43.4682 11.7551 43.9188 11.7551H54.3678C54.8184 11.7551 55.1841 12.1208 55.1841 12.5714V29.5511C55.1841 30.0017 54.8184 30.3674 54.3678 30.3674Z" fill="#3C4266"/>
<path d="M42.6123 73.4694H7.3469C6.89629 73.4694 6.53058 73.1037 6.53058 72.6531V12.5714C6.53058 12.1208 6.89629 11.7551 7.3469 11.7551H17.7959C18.2465 11.7551 18.6122 12.1208 18.6122 12.5714C18.6122 13.0221 18.2465 13.3878 17.7959 13.3878H8.16323V71.8368H42.6123C43.0629 71.8368 43.4286 72.2025 43.4286 72.6531C43.4286 73.1037 43.0629 73.4694 42.6123 73.4694Z" fill="#3C4266"/>
<path d="M34.7754 44.7347H26.9387C26.4881 44.7347 26.1223 44.369 26.1223 43.9184V38.2041H20.408C19.9574 38.2041 19.5917 37.8384 19.5917 37.3878V29.5511C19.5917 29.1005 19.9574 28.7347 20.408 28.7347H26.1223V23.0204C26.1223 22.5698 26.4881 22.2041 26.9387 22.2041H34.7754C35.226 22.2041 35.5917 22.5698 35.5917 23.0204V28.7347H41.306C41.7566 28.7347 42.1224 29.1005 42.1224 29.5511V37.3878C42.1224 37.8384 41.7566 38.2041 41.306 38.2041H35.5917V43.9184C35.5917 44.369 35.226 44.7347 34.7754 44.7347ZM27.755 43.1021H33.9591V37.3878C33.9591 36.9372 34.3248 36.5715 34.7754 36.5715H40.4897V30.3674H34.7754C34.3248 30.3674 33.9591 30.0017 33.9591 29.5511V23.8368H27.755V29.5511C27.755 30.0017 27.3893 30.3674 26.9387 30.3674H21.2244V36.5715H26.9387C27.3893 36.5715 27.755 36.9372 27.755 37.3878V43.1021Z" fill="#3C4266"/>
<path d="M16.4896 55.0204C17.5716 55.0204 18.4488 54.1432 18.4488 53.0612C18.4488 51.9792 17.5716 51.102 16.4896 51.102C15.4076 51.102 14.5304 51.9792 14.5304 53.0612C14.5304 54.1432 15.4076 55.0204 16.4896 55.0204Z" fill="#3C4266"/>
<path d="M41.3062 53.8775H23.0205C22.5698 53.8775 22.2041 53.5118 22.2041 53.0612C22.2041 52.6105 22.5698 52.2448 23.0205 52.2448H41.3062C41.7568 52.2448 42.1225 52.6105 42.1225 53.0612C42.1225 53.5118 41.7568 53.8775 41.3062 53.8775Z" fill="#3C4266"/>
<path d="M16.4896 63.5103C17.5716 63.5103 18.4488 62.6331 18.4488 61.5511C18.4488 60.4691 17.5716 59.5919 16.4896 59.5919C15.4076 59.5919 14.5304 60.4691 14.5304 61.5511C14.5304 62.6331 15.4076 63.5103 16.4896 63.5103Z" fill="#3C4266"/>
<path d="M41.3062 62.3674H23.0205C22.5698 62.3674 22.2041 62.0017 22.2041 61.5511C22.2041 61.1004 22.5698 60.7347 23.0205 60.7347H41.3062C41.7568 60.7347 42.1225 61.1004 42.1225 61.5511C42.1225 62.0017 41.7568 62.3674 41.3062 62.3674Z" fill="#3C4266"/>
<path d="M75.2654 42.1225H51.7552C51.3045 42.1225 50.9388 41.7568 50.9388 41.3062V34.7756C50.9388 34.325 51.3045 33.9592 51.7552 33.9592H75.2654C75.716 33.9592 76.0817 34.325 76.0817 34.7756V41.3062C76.0817 41.7568 75.716 42.1225 75.2654 42.1225ZM52.5715 40.4899H74.4491V35.5919H52.5715V40.4899Z" fill="#3C4266"/>
<path d="M75.2653 80H51.7551C49.1445 80 47.0204 77.8759 47.0204 75.2653V51.102C47.0204 49.6196 47.7289 48.204 48.9142 47.3142L51.004 45.7469C51.7812 45.164 52.2449 44.2367 52.2449 43.2653V41.3061C52.2449 40.8555 52.6106 40.4898 53.0612 40.4898C53.5118 40.4898 53.8775 40.8555 53.8775 41.3061V43.2653C53.8775 44.7477 53.1689 46.1632 51.9836 47.053L49.8938 48.6204C49.1167 49.2032 48.653 50.1306 48.653 51.102V75.2653C48.653 76.9763 50.044 78.3673 51.7551 78.3673H75.2653C76.9763 78.3673 78.3673 76.9763 78.3673 75.2653V51.102C78.3673 50.1306 77.9037 49.2032 77.1265 48.6204L75.0367 47.053C73.8514 46.1632 73.1428 44.7477 73.1428 43.2653V41.3061C73.1428 40.8555 73.5086 40.4898 73.9592 40.4898C74.4098 40.4898 74.7755 40.8555 74.7755 41.3061V43.2653C74.7755 44.2367 75.2392 45.164 76.0163 45.7469L78.1061 47.3142C79.2914 48.204 80 49.6196 80 51.102V75.2653C80 77.8759 77.8759 80 75.2653 80Z" fill="#3C4266"/>
<path d="M71.3472 72.1632H53.0615C52.6109 72.1632 52.2452 71.7975 52.2452 71.3469C52.2452 70.8963 52.6109 70.5305 53.0615 70.5305H70.5309V53.8775H53.0615C52.6109 53.8775 52.2452 53.5118 52.2452 53.0612C52.2452 52.6105 52.6109 52.2448 53.0615 52.2448H71.3472C71.7979 52.2448 72.1636 52.6105 72.1636 53.0612V71.3469C72.1636 71.7975 71.7979 72.1632 71.3472 72.1632Z" fill="#3C4266"/>
</svg>
