<svg width="64" height="64" viewBox="0 0 64 64" fill="none" xmlns="http://www.w3.org/2000/svg">
<path fill-rule="evenodd" clip-rule="evenodd" d="M0 22.9267C0 22.4848 0.358172 22.1267 0.8 22.1267H7.14883C9.34538 22.1267 11.2424 23.6635 11.6982 25.8123L13.0946 32.395H47.516C48.8381 32.395 49.8259 33.6105 49.5555 34.9047L46.0262 51.7949C45.5758 53.9502 43.6757 55.4943 41.4739 55.4943H20.1264C17.9299 55.4943 16.0328 53.9575 15.577 51.8087L11.6674 33.3776C11.665 33.3671 11.6627 33.3566 11.6607 33.3459L10.1331 26.1443C9.83407 24.7348 8.58968 23.7267 7.14883 23.7267H0.8C0.358172 23.7267 0 23.3685 0 22.9267ZM13.434 33.995L17.1422 51.4767C17.4412 52.8862 18.6856 53.8943 20.1264 53.8943H41.4739C42.9182 53.8943 44.1646 52.8814 44.46 51.4676L47.9893 34.5774C48.0521 34.2771 47.8228 33.995 47.516 33.995H13.434ZM17.4905 38.0083C17.4905 37.5664 17.8486 37.2083 18.2905 37.2083H42.5619C43.4528 37.2083 44.1306 38.0082 43.9841 38.8871L42.1833 49.6917C42.1107 50.1275 41.6985 50.4219 41.2627 50.3493C40.8269 50.2766 40.5325 49.8644 40.6051 49.4286L42.3752 38.8083H18.2905C17.8486 38.8083 17.4905 38.4501 17.4905 38.0083Z" fill="#3C4266"/>
<path fill-rule="evenodd" clip-rule="evenodd" d="M20.5366 62.3999C21.4251 62.3999 22.1454 61.6796 22.1454 60.7911C22.1454 59.9025 21.4251 59.1822 20.5366 59.1822C19.648 59.1822 18.9277 59.9025 18.9277 60.7911C18.9277 61.6796 19.648 62.3999 20.5366 62.3999ZM41.0732 62.3999C41.9618 62.3999 42.6821 61.6796 42.6821 60.7911C42.6821 59.9025 41.9618 59.1822 41.0732 59.1822C40.1847 59.1822 39.4644 59.9025 39.4644 60.7911C39.4644 61.6796 40.1847 62.3999 41.0732 62.3999ZM20.5366 63.9999C22.3088 63.9999 23.7454 62.5633 23.7454 60.7911C23.7454 59.0189 22.3088 57.5822 20.5366 57.5822C18.7644 57.5822 17.3277 59.0189 17.3277 60.7911C17.3277 62.5633 18.7644 63.9999 20.5366 63.9999ZM41.0732 63.9999C42.8454 63.9999 44.2821 62.5633 44.2821 60.7911C44.2821 59.0189 42.8454 57.5822 41.0732 57.5822C39.301 57.5822 37.8644 59.0189 37.8644 60.7911C37.8644 62.5633 39.301 63.9999 41.0732 63.9999Z" fill="#3C4266"/>
<path fill-rule="evenodd" clip-rule="evenodd" d="M29.1149 16.6463C28.4147 17.5811 28 18.7421 28 20C28 23.0928 30.5072 25.6 33.6 25.6C34.8579 25.6 36.0189 25.1853 36.9537 24.4851L29.1149 16.6463ZM30.2463 15.5149L38.0851 23.3537C38.7853 22.4189 39.2 21.2579 39.2 20C39.2 16.9072 36.6928 14.4 33.6 14.4C32.3421 14.4 31.1811 14.8147 30.2463 15.5149ZM26.4 20C26.4 16.0235 29.6235 12.8 33.6 12.8C37.5764 12.8 40.8 16.0235 40.8 20C40.8 23.9764 37.5764 27.2 33.6 27.2C29.6235 27.2 26.4 23.9764 26.4 20Z" fill="#3C4266"/>
<path fill-rule="evenodd" clip-rule="evenodd" d="M55.8366 15.8006C57.7041 13.9331 60.7319 13.9331 62.5994 15.8006C64.4669 17.6681 64.4669 20.6959 62.5994 22.5634L56.1634 28.9994C54.2959 30.8669 51.2681 30.8669 49.4006 28.9994C47.5331 27.1319 47.5331 24.1041 49.4006 22.2366L55.8366 15.8006ZM61.468 16.932C60.2253 15.6893 58.2106 15.6893 56.9679 16.932L54.3156 19.5843L58.8157 24.0844L61.468 21.4321C62.7107 20.1894 62.7107 18.1747 61.468 16.932ZM57.6843 25.2157L53.1843 20.7156L50.532 23.3679C49.2893 24.6106 49.2893 26.6253 50.532 27.868C51.7747 29.1107 53.7894 29.1107 55.0321 27.868L57.6843 25.2157Z" fill="#3C4266"/>
<path fill-rule="evenodd" clip-rule="evenodd" d="M50.729 6.99187C52.4237 8.68658 52.4237 11.4343 50.729 13.129C49.0342 14.8237 46.2866 14.8237 44.5919 13.129L38.871 7.40813C37.1763 5.71342 37.1763 2.96575 38.871 1.27103C40.5657 -0.423678 43.3134 -0.423678 45.0081 1.27103L50.729 6.99187ZM49.5976 11.9976C50.6675 10.9277 50.6675 9.19311 49.5976 8.12324L47.3029 5.82851L43.4285 9.70286L45.7232 11.9976C46.7931 13.0675 48.5277 13.0675 49.5976 11.9976ZM42.2971 8.57149L46.1715 4.69714L43.8768 2.40241C42.8069 1.33253 41.0723 1.33253 40.0024 2.40241C38.9325 3.47228 38.9325 5.20689 40.0024 6.27676L42.2971 8.57149Z" fill="#3C4266"/>
</svg>
