<svg width="80" height="80" viewBox="0 0 80 80" fill="none" xmlns="http://www.w3.org/2000/svg">
<path d="M41.6163 20.2818H0.673403C0.301685 20.2818 0 19.98 0 19.6082V8.82942C0 7.2692 1.26869 6 2.82829 6H39.4614C41.021 6 42.2897 7.2692 42.2897 8.82942V19.6082C42.2897 19.98 41.988 20.2818 41.6163 20.2818ZM1.34681 18.9345H40.9429V8.82942C40.9429 8.01158 40.2789 7.34734 39.4614 7.34734H2.82829C2.01078 7.34734 1.34681 8.01158 1.34681 8.82942V18.9345Z" fill="#3C4266"/>
<path d="M36.229 72.0182H6.06046C4.50086 72.0182 3.23217 70.749 3.23217 69.1888V23.9181C3.23217 23.5463 3.53385 23.2445 3.90557 23.2445C4.27729 23.2445 4.57898 23.5463 4.57898 23.9181V69.1888C4.57898 70.0067 5.24295 70.6709 6.06046 70.6709H36.229C37.0465 70.6709 37.7105 70.0067 37.7105 69.1888V23.9181C37.7105 23.5463 38.0121 23.2445 38.3839 23.2445C38.7556 23.2445 39.0573 23.5463 39.0573 23.9181V69.1888C39.0573 70.749 37.7886 72.0182 36.229 72.0182Z" fill="#3C4266"/>
<path d="M4.9832 19.2038C4.61148 19.2038 4.30979 18.902 4.30979 18.5302V12.0629C4.30979 11.6911 4.61148 11.3892 4.9832 11.3892C5.35492 11.3892 5.6566 11.6911 5.6566 12.0629V18.5302C5.6566 18.902 5.35492 19.2038 4.9832 19.2038Z" fill="#3C4266"/>
<path d="M10.3701 19.2038C9.99842 19.2038 9.69674 18.902 9.69674 18.5302V12.0629C9.69674 11.6911 9.99842 11.3892 10.3701 11.3892C10.7419 11.3892 11.0435 11.6911 11.0435 12.0629V18.5302C11.0435 18.902 10.7419 19.2038 10.3701 19.2038Z" fill="#3C4266"/>
<path d="M15.7578 19.2038C15.3861 19.2038 15.0844 18.902 15.0844 18.5302V12.0629C15.0844 11.6911 15.3861 11.3892 15.7578 11.3892C16.1295 11.3892 16.4312 11.6911 16.4312 12.0629V18.5302C16.4312 18.902 16.1295 19.2038 15.7578 19.2038Z" fill="#3C4266"/>
<path d="M21.1453 19.2038C20.7735 19.2038 20.4719 18.902 20.4719 18.5302V12.0629C20.4719 11.6911 20.7735 11.3892 21.1453 11.3892C21.517 11.3892 21.8187 11.6911 21.8187 12.0629V18.5302C21.8187 18.902 21.517 19.2038 21.1453 19.2038Z" fill="#3C4266"/>
<path d="M26.5322 19.2038C26.1605 19.2038 25.8588 18.902 25.8588 18.5302V12.0629C25.8588 11.6911 26.1605 11.3892 26.5322 11.3892C26.9039 11.3892 27.2056 11.6911 27.2056 12.0629V18.5302C27.2056 18.902 26.9039 19.2038 26.5322 19.2038Z" fill="#3C4266"/>
<path d="M31.9196 19.2038C31.5479 19.2038 31.2462 18.902 31.2462 18.5302V12.0629C31.2462 11.6911 31.5479 11.3892 31.9196 11.3892C32.2913 11.3892 32.593 11.6911 32.593 12.0629V18.5302C32.593 18.902 32.2913 19.2038 31.9196 19.2038Z" fill="#3C4266"/>
<path d="M37.3066 19.2038C36.9348 19.2038 36.6332 18.902 36.6332 18.5302V12.0629C36.6332 11.6911 36.9348 11.3892 37.3066 11.3892C37.6783 11.3892 37.98 11.6911 37.98 12.0629V18.5302C37.98 18.902 37.6783 19.2038 37.3066 19.2038Z" fill="#3C4266"/>
<path d="M34.0739 65.5509H10.3701C9.99843 65.5509 9.69674 65.2491 9.69674 64.8773V26.0738C9.69674 25.702 9.99843 25.4002 10.3701 25.4002H34.0739C34.4456 25.4002 34.7473 25.702 34.7473 26.0738C34.7473 26.4457 34.4456 26.7475 34.0739 26.7475H11.0435V64.2036H34.0739C34.4456 64.2036 34.7473 64.5054 34.7473 64.8773C34.7473 65.2491 34.4456 65.5509 34.0739 65.5509Z" fill="#3C4266"/>
<path d="M20.0676 38.6055H15.7578C15.3861 38.6055 15.0844 38.3037 15.0844 37.9319V31.4646C15.0844 31.0928 15.3861 30.7909 15.7578 30.7909H20.0676C22.2211 30.7909 23.9733 32.5438 23.9733 34.6982C23.9733 36.8526 22.2211 38.6055 20.0676 38.6055ZM16.4312 37.2582H20.0676C21.4791 37.2582 22.6265 36.1103 22.6265 34.6982C22.6265 33.2862 21.4791 32.1383 20.0676 32.1383H16.4312V37.2582Z" fill="#3C4266"/>
<path d="M15.7578 42.9157C15.3861 42.9157 15.0844 42.6139 15.0844 42.242V37.9305C15.0844 37.5586 15.3861 37.2568 15.7578 37.2568C16.1295 37.2568 16.4312 37.5586 16.4312 37.9305V42.242C16.4312 42.6152 16.1295 42.9157 15.7578 42.9157Z" fill="#3C4266"/>
<path d="M27.6108 47.2275C27.4236 47.2275 27.2364 47.1493 27.1044 46.9971L19.5623 38.3741C19.3172 38.0938 19.3454 37.6681 19.6256 37.4228C19.9057 37.1776 20.3313 37.2059 20.5764 37.4862L28.1185 46.1092C28.3636 46.3894 28.3354 46.8152 28.0552 47.0604C27.9259 47.1736 27.767 47.2275 27.6108 47.2275Z" fill="#3C4266"/>
<path d="M21.1449 47.227C20.9725 47.227 20.8001 47.161 20.6681 47.0303C20.4055 46.7676 20.4055 46.3404 20.6681 46.0777L27.1327 39.6105C27.3954 39.3478 27.8223 39.3478 28.0849 39.6105C28.3476 39.8732 28.3476 40.3003 28.0849 40.5631L21.6203 47.0303C21.4896 47.1623 21.3172 47.227 21.1449 47.227Z" fill="#3C4266"/>
<path d="M18.9902 53.6944H15.7578C15.3861 53.6944 15.0844 53.3926 15.0844 53.0207C15.0844 52.6489 15.3861 52.3471 15.7578 52.3471H18.9902C19.3619 52.3471 19.6636 52.6489 19.6636 53.0207C19.6636 53.3926 19.3619 53.6944 18.9902 53.6944Z" fill="#3C4266"/>
<path d="M32.997 53.6944H24.3774C24.0057 53.6944 23.704 53.3926 23.704 53.0207C23.704 52.6489 24.0057 52.3471 24.3774 52.3471H32.997C33.3687 52.3471 33.6704 52.6489 33.6704 53.0207C33.6704 53.3926 33.3687 53.6944 32.997 53.6944Z" fill="#3C4266"/>
<path d="M18.9902 59.0837H15.7578C15.3861 59.0837 15.0844 58.7819 15.0844 58.41C15.0844 58.0382 15.3861 57.7364 15.7578 57.7364H18.9902C19.3619 57.7364 19.6636 58.0382 19.6636 58.41C19.6636 58.7819 19.3619 59.0837 18.9902 59.0837Z" fill="#3C4266"/>
<path d="M32.997 59.0837H24.3774C24.0057 59.0837 23.704 58.7819 23.704 58.41C23.704 58.0382 24.0057 57.7364 24.3774 57.7364H32.997C33.3687 57.7364 33.6704 58.0382 33.6704 58.41C33.6704 58.7819 33.3687 59.0837 32.997 59.0837Z" fill="#3C4266"/>
<path d="M70.707 74.1889C65.5824 74.1889 61.4141 70.0189 61.4141 64.8922C61.4141 59.7656 65.5824 55.5956 70.707 55.5956C75.8316 55.5956 80 59.7656 80 64.8922C80 70.0189 75.8316 74.1889 70.707 74.1889ZM70.707 56.9429C66.3259 56.9429 62.7609 60.5093 62.7609 64.8922C62.7609 69.2751 66.3259 72.8416 70.707 72.8416C75.0882 72.8416 78.6532 69.2751 78.6532 64.8922C78.6532 60.5093 75.0895 56.9429 70.707 56.9429Z" fill="#3C4266"/>
<path d="M64.6129 71.6625C64.4405 71.6625 64.2681 71.5965 64.1361 71.4658C63.8735 71.2031 63.8735 70.776 64.1361 70.5132L76.326 58.3185C76.5886 58.0557 77.0156 58.0557 77.2782 58.3185C77.5408 58.5812 77.5408 59.0083 77.2782 59.271L65.0883 71.4658C64.9576 71.5979 64.7852 71.6625 64.6129 71.6625Z" fill="#3C4266"/>
<path d="M55.4997 45.5037C53.9481 45.5037 52.3953 44.9122 51.2141 43.7306C48.8505 41.3674 48.8505 37.5207 51.2141 35.1561L60.9111 25.4553C62.0559 24.3101 63.5778 23.6795 65.1967 23.6795C66.8155 23.6795 68.3374 24.3101 69.4822 25.4553C71.8459 27.8199 71.8459 31.6652 69.4822 34.0298L59.7852 43.7306C58.6041 44.9122 57.0512 45.5037 55.4997 45.5037ZM65.1967 25.0268C63.9374 25.0268 62.7536 25.5173 61.8633 26.4079L52.1663 36.1087C51.2761 36.9993 50.7858 38.1836 50.7858 39.4434C50.7858 40.7031 51.2761 41.8875 52.1663 42.778C53.0566 43.6686 54.2404 44.1591 55.4997 44.1591C56.7589 44.1591 57.9428 43.6686 58.833 42.778L68.53 33.0772C69.4203 32.1866 69.9105 31.0023 69.9105 29.7425C69.9105 28.4828 69.4203 27.2984 68.53 26.4079C67.6398 25.5173 66.4559 25.0268 65.1967 25.0268Z" fill="#3C4266"/>
<path d="M64.1619 39.0823C63.9895 39.0823 63.8171 39.0163 63.6851 38.8856L56.0568 31.2543C55.7942 30.9915 55.7942 30.5644 56.0568 30.3017C56.3194 30.039 56.7464 30.039 57.009 30.3017L64.6373 37.933C64.8999 38.1958 64.8999 38.6229 64.6373 38.8856C64.5067 39.0163 64.3343 39.0823 64.1619 39.0823Z" fill="#3C4266"/>
</svg>
