<svg width="64" height="58" viewBox="0 0 64 58" fill="none" xmlns="http://www.w3.org/2000/svg">
<path d="M36.7273 11.4138C36.5601 11.4138 36.3929 11.3498 36.2649 11.223C36.0102 10.9682 36.0102 10.554 36.2649 10.2992L41.4399 5.12221C41.6946 4.86741 42.1086 4.86741 42.3633 5.12221C42.618 5.37701 42.618 5.79122 42.3633 6.04602L37.1884 11.223C37.0617 11.3498 36.8945 11.4138 36.7273 11.4138Z" fill="#3C4266"/>
<path d="M42.9722 16.1398C41.8685 16.1398 40.7649 15.7191 39.925 14.8789L32.6107 7.56164C30.9297 5.87998 30.9297 3.14515 32.6107 1.46349C33.4244 0.649445 34.5072 0.199951 35.6592 0.199951C36.8112 0.199951 37.8927 0.648138 38.7064 1.46349L46.0207 8.78074C47.7017 10.4624 47.7017 13.1972 46.0207 14.8789C45.1796 15.7204 44.0759 16.1398 42.9722 16.1398ZM35.6579 1.50791C34.8559 1.50791 34.101 1.8202 33.5341 2.38859C32.3625 3.56066 32.3625 5.46707 33.5341 6.63914L40.8485 13.9564C42.0201 15.1285 43.9257 15.1285 45.0973 13.9564C46.2689 12.7843 46.2689 10.8779 45.0973 9.70584L37.783 2.38859C37.2148 1.8202 36.4598 1.50791 35.6579 1.50791Z" fill="#3C4266"/>
<path d="M54.8112 25.3727C54.644 25.3727 54.4769 25.3087 54.3489 25.1819L48.4347 19.2654C48.18 19.0106 48.18 18.5964 48.4347 18.3416C48.6893 18.0868 49.1034 18.0868 49.3581 18.3416L55.2723 24.2581C55.527 24.5129 55.527 24.9271 55.2723 25.1819C55.1456 25.3087 54.9784 25.3727 54.8112 25.3727Z" fill="#3C4266"/>
<path d="M47.6745 30.7769C46.384 30.7769 45.1706 30.2739 44.2576 29.3605C42.3729 27.475 42.3729 24.4083 44.2576 22.5228L52.6169 14.1602C54.5003 12.2747 57.5671 12.276 59.4506 14.1602C61.3353 16.0457 61.3353 19.1124 59.4506 20.9979L51.0913 29.3605C50.1783 30.2739 48.9649 30.7769 47.6745 30.7769ZM56.0337 14.053C55.1312 14.053 54.2273 14.3967 53.5403 15.084L45.1811 23.4466C44.5149 24.113 44.1479 24.9989 44.1479 25.941C44.1479 26.8831 44.5149 27.769 45.1811 28.4354C45.8472 29.1018 46.7327 29.469 47.6745 29.469C48.6162 29.469 49.5018 29.1018 50.1679 28.4354L58.5271 20.0728C59.1933 19.4064 59.5603 18.5205 59.5603 17.5784C59.5603 16.6363 59.1933 15.7504 58.5271 15.084C57.8401 14.3967 56.9363 14.053 56.0337 14.053Z" fill="#3C4266"/>
<path d="M34.344 26.8489C34.1768 26.8489 34.0096 26.7849 33.8816 26.6581L25.0155 17.7886C24.7608 17.5338 24.7608 17.1196 25.0155 16.8648C25.2702 16.61 25.6843 16.61 25.939 16.8648L34.805 25.7343C35.0597 25.9891 35.0597 26.4033 34.805 26.6581C34.6783 26.7849 34.5112 26.8489 34.344 26.8489Z" fill="#3C4266"/>
<path d="M29.9104 28.6864C28.0609 28.6864 26.3224 27.9664 25.015 26.6585C22.3152 23.9589 22.3157 19.5643 25.0155 16.8648C26.323 15.5568 28.0609 14.8372 29.9104 14.8372C31.7599 14.8372 33.4984 15.5572 34.8058 16.8651C36.1132 18.1731 36.8329 19.9122 36.8329 21.7625C36.8329 23.6127 36.1132 25.3518 34.8058 26.6598C33.4984 27.9665 31.7599 28.6864 29.9104 28.6864ZM29.9104 16.1425C28.4096 16.1425 27.0003 16.7266 25.9384 17.7876C23.748 19.9789 23.748 23.5434 25.9384 25.7334C26.999 26.7944 28.4096 27.3785 29.9104 27.3785C31.4111 27.3785 32.8205 26.7944 33.881 25.7334C34.9416 24.6724 35.5268 23.2612 35.5268 21.7598C35.5268 20.2585 34.9429 18.8486 33.8824 17.7863C32.8205 16.7266 31.4111 16.1425 29.9104 16.1425Z" fill="#3C4266"/>
<path d="M0.653384 53.7741C0.486199 53.7741 0.319024 53.7101 0.191022 53.5833C-0.0636742 53.3285 -0.0636742 52.9143 0.191022 52.6595L9.46067 43.3862C9.62133 42.708 10.2352 40.4305 11.7294 38.1308C14.0779 34.5166 17.4738 32.6063 21.5503 32.6063C28.0992 32.6063 31.3998 34.2474 32.1809 34.6969C37.2748 34.6969 40.9634 34.7021 43.3392 35.0981C45.1744 35.4038 47.2812 36.0663 47.2812 38.4862C47.2812 41.4837 44.1203 42.2755 42.4485 42.2755H29.9095C29.5491 42.2755 29.2565 41.9828 29.2565 41.6222C29.2565 41.2616 29.5491 40.9689 29.9095 40.9689H42.4485C42.5908 40.9689 45.975 40.927 45.975 38.4862C45.975 36.1172 42.617 36.0036 31.9994 36.0036C31.8701 36.0036 31.7447 35.9657 31.6376 35.8938C31.6101 35.8755 28.5316 33.9129 21.5503 33.9129C17.8853 33.9129 14.9491 35.5711 12.824 38.8416C11.2135 41.3217 10.7015 43.8161 10.6963 43.8409C10.6715 43.9676 10.6088 44.0839 10.5173 44.1741L1.11315 53.582C0.987757 53.7101 0.82057 53.7741 0.653384 53.7741Z" fill="#3C4266"/>
<path d="M18.4172 57.9554C18.2696 57.9554 18.122 57.9058 17.9992 57.8039C17.7223 57.5726 17.6845 57.161 17.9156 56.884L22.3408 51.5711C22.973 50.812 23.903 50.3769 24.8904 50.3769H42.4488C43.205 50.3377 47.6733 47.8041 53.1134 44.0945C59.7942 39.5382 62.4914 36.9876 62.6939 36.3643C62.6847 34.6473 61.9415 33.9143 60.2122 33.9143C59.2313 33.9143 53.8108 36.5943 46.4037 40.7403C46.089 40.9167 45.6906 40.8043 45.5156 40.4894C45.3406 40.1745 45.4516 39.776 45.7663 39.6009C51.4637 36.4113 58.5965 32.6077 60.2122 32.6077C62.6547 32.6077 64 33.9535 64 36.3969C64 36.9405 63.6108 37.7611 60.7895 40.0713C59.0876 41.4642 56.6948 43.2281 54.0512 45.0379C53.6541 45.3096 44.3178 51.6848 42.4501 51.6848H24.8917C24.2922 51.6848 23.728 51.9488 23.3453 52.4087L18.9201 57.7215C18.7895 57.8757 18.604 57.9554 18.4172 57.9554Z" fill="#3C4266"/>
</svg>
