<svg width="120" height="37" viewBox="0 0 120 37" fill="none" xmlns="http://www.w3.org/2000/svg">
<path d="M28.5068 2.07455C28.7783 1.74876 29.1584 1.53157 29.5928 1.53157C30.0272 1.53157 30.4073 1.69446 30.6787 1.96595C31.0045 2.29175 31.1131 2.61754 31.1131 3.05193C31.1131 3.48631 30.9502 3.8664 30.6787 4.1379C30.4073 4.46369 30.0272 4.62658 29.5928 4.62658C29.1584 4.62658 28.7783 4.46369 28.5068 4.0836V5.65825H28.0724V1.64016H28.5068V2.07455ZM29.5928 4.30079C29.8643 4.30079 30.1358 4.19219 30.353 3.975C30.5701 3.75781 30.6787 3.48631 30.6787 3.16052C30.6787 2.83473 30.5701 2.56324 30.353 2.34604C30.1358 2.12885 29.8643 2.02025 29.5385 2.02025C29.2127 2.02025 28.9412 2.12885 28.7783 2.34604C28.5611 2.56324 28.4525 2.83473 28.4525 3.16052C28.4525 3.48631 28.5611 3.75781 28.7783 3.975C28.9955 4.19219 29.267 4.30079 29.5928 4.30079Z" fill="white"/>
<path d="M33.2853 1.58585C33.7197 1.58585 34.0998 1.74875 34.3712 2.02024C34.6427 2.34603 34.8056 2.67182 34.8056 3.10621C34.8056 3.5406 34.6427 3.92069 34.3712 4.19218C34.0998 4.51797 33.7197 4.62657 33.2853 4.62657C32.8509 4.62657 32.4708 4.46367 32.1993 4.19218C31.9278 3.86639 31.7649 3.5406 31.7649 3.10621C31.7649 2.67182 31.9278 2.29173 32.1993 2.02024C32.4708 1.74875 32.8509 1.58585 33.2853 1.58585ZM33.2853 4.30078C33.6111 4.30078 33.8283 4.19218 34.0455 3.97499C34.2626 3.75779 34.3712 3.4863 34.3712 3.16051C34.3712 2.83472 34.2626 2.56322 34.0455 2.34603C33.8283 2.12884 33.5568 2.02024 33.2853 2.02024C33.0138 2.02024 32.7423 2.12884 32.5251 2.34603C32.3079 2.56322 32.1993 2.83472 32.1993 3.16051C32.1993 3.4863 32.3079 3.75779 32.5251 3.97499C32.688 4.19218 32.9595 4.30078 33.2853 4.30078Z" fill="white"/>
<path d="M39.6922 1.64014L38.389 4.68085H38.2804L37.4116 2.61751L36.5429 4.68085H36.4343L35.1854 1.64014H35.6741L36.4886 3.75778L37.3573 1.64014H37.4659L38.3347 3.75778L39.2035 1.64014H39.6922Z" fill="white"/>
<path d="M43.1131 3.21481H40.5067C40.5067 3.5406 40.6153 3.81209 40.8325 3.97499C41.0497 4.19218 41.2669 4.24648 41.5384 4.24648C42.0271 4.24648 42.3529 4.02928 42.6244 3.5406L43.0045 3.75779C42.8416 4.08358 42.6244 4.30078 42.4072 4.46367C42.19 4.62657 41.9185 4.68087 41.5927 4.68087C41.1583 4.68087 40.7782 4.51797 40.5067 4.24648C40.2352 3.92069 40.0723 3.5949 40.0723 3.16051C40.0723 2.72612 40.2352 2.34603 40.5067 2.07454C40.7782 1.74875 41.1583 1.58585 41.5927 1.58585C42.0271 1.58585 42.4072 1.74875 42.6787 2.02024C42.9502 2.29173 43.1131 2.72612 43.1131 3.21481ZM42.6244 2.83472C42.5701 2.56322 42.4615 2.40033 42.2443 2.23743C42.0271 2.07454 41.8099 2.02024 41.5927 2.02024C41.104 2.02024 40.7239 2.29173 40.561 2.83472H42.6244Z" fill="white"/>
<path d="M45.1218 1.69495L44.9046 2.07504C44.8503 2.02074 44.796 2.02074 44.7417 2.02074C44.6331 2.02074 44.5245 2.07504 44.4159 2.18364C44.3073 2.29223 44.253 2.45513 44.1987 2.61802C44.1444 2.78092 44.1444 3.10671 44.1444 3.5954V4.62707H43.71V1.69495H44.1444V2.02074C44.253 1.91214 44.3073 1.80355 44.4159 1.74925C44.5245 1.69495 44.6331 1.64065 44.7417 1.64065C44.796 1.58635 44.9589 1.58635 45.1218 1.69495Z" fill="white"/>
<path d="M48.5429 3.21481H45.9366C45.9366 3.5406 46.0452 3.81209 46.2624 3.97499C46.4796 4.19218 46.6968 4.24648 46.9683 4.24648C47.457 4.24648 47.7828 4.02928 48.0543 3.5406L48.4343 3.75779C48.2715 4.08358 48.0543 4.30078 47.8371 4.46367C47.6199 4.62657 47.3484 4.68087 47.0226 4.68087C46.5882 4.68087 46.2081 4.51797 45.9366 4.24648C45.6651 3.92069 45.5022 3.5949 45.5022 3.16051C45.5022 2.72612 45.6651 2.34603 45.9366 2.07454C46.2081 1.74875 46.5882 1.58585 47.0226 1.58585C47.457 1.58585 47.8371 1.74875 48.1086 2.02024C48.3801 2.29173 48.5429 2.72612 48.5429 3.21481ZM48.0543 2.83472C48 2.56322 47.8914 2.40033 47.6742 2.23743C47.457 2.07454 47.2398 2.02024 47.0226 2.02024C46.5339 2.02024 46.1538 2.29173 45.9909 2.83472H48.0543Z" fill="white"/>
<path d="M52.2349 4.62666H51.8005V4.19227C51.4747 4.57236 51.0946 4.73526 50.6603 4.73526C50.2259 4.73526 49.9001 4.57236 49.5743 4.24657C49.3028 3.92078 49.1399 3.59499 49.1399 3.1606C49.1399 2.72621 49.3028 2.34612 49.5743 2.07463C49.9001 1.74884 50.2259 1.64024 50.6603 1.64024C51.0946 1.64024 51.4747 1.80314 51.7462 2.18323V0.60857H52.1806V4.62666H52.2349ZM50.7146 4.30087C50.986 4.30087 51.2575 4.19227 51.4747 3.97508C51.6919 3.75788 51.8005 3.48639 51.8005 3.1606C51.8005 2.83481 51.6919 2.56332 51.4747 2.34612C51.2575 2.12893 50.986 2.02033 50.7146 2.02033C50.3888 2.02033 50.1173 2.12893 49.9001 2.34612C49.6829 2.56332 49.5743 2.83481 49.5743 3.1606C49.5743 3.48639 49.6829 3.75788 49.9001 3.97508C50.1173 4.19227 50.3888 4.30087 50.7146 4.30087Z" fill="white"/>
<path d="M55.0584 2.07466C55.3842 1.74887 55.71 1.58597 56.1444 1.58597C56.5788 1.58597 56.9589 1.74887 57.2304 2.02036C57.5019 2.34615 57.6648 2.67194 57.6648 3.10633C57.6648 3.54072 57.5019 3.92081 57.2304 4.1923C56.9046 4.51809 56.5788 4.68099 56.1444 4.68099C55.71 4.68099 55.3299 4.51809 55.0584 4.138V4.57239H54.6241V0.5H55.0584V2.07466ZM56.1444 4.2466C56.4702 4.2466 56.6874 4.138 56.9046 3.92081C57.1218 3.70361 57.2304 3.43212 57.2304 3.10633C57.2304 2.78054 57.1218 2.50904 56.9046 2.29185C56.6874 2.07466 56.4159 1.96606 56.1444 1.96606C55.8729 1.96606 55.5471 2.07466 55.3299 2.29185C55.1127 2.50904 55.0042 2.78054 55.0042 3.10633C55.0042 3.43212 55.1127 3.70361 55.3299 3.92081C55.6014 4.138 55.8729 4.2466 56.1444 4.2466Z" fill="white"/>
<path d="M60.9772 1.64014L59.2397 5.65823H58.751L59.3483 4.35506L58.0994 1.64014H58.5881L59.5654 3.81208L60.4885 1.64014H60.9772Z" fill="white"/>
<path d="M5.32125 36.5545C5.15836 36.5545 4.94116 36.5002 4.77827 36.3916L0.814478 33.7309C0.325791 33.4051 0 32.7536 0 32.2106V10.9799C0 10.3826 0.38009 9.78529 0.923075 9.5138L13.5746 3.21517C13.7375 3.16088 13.9004 3.10658 14.009 3.10658C14.4977 3.10658 14.8235 3.48667 14.8235 4.02965V8.69932L18.7873 6.69028C18.9502 6.63598 19.1131 6.58168 19.2217 6.58168C19.7104 6.58168 20.0361 6.96177 20.0361 7.50476V19.9934C20.0361 20.5907 19.6561 21.188 19.1131 21.4595L13.466 24.283C12.9773 24.5545 12.2172 24.5002 11.7285 24.1744L7.76469 21.5138C7.49319 21.2966 7.3303 21.0251 7.3303 20.7536C7.3303 20.4821 7.54749 20.2106 7.87328 20.0477L13.5203 17.2242C13.7375 17.1156 13.9547 16.7355 13.9547 16.5183V10.0568L6.46152 13.8034C6.24433 13.912 6.02713 14.2921 6.02713 14.5093V35.74C6.02713 35.9572 5.97284 36.1744 5.86424 36.3373C5.75564 36.4459 5.53845 36.5545 5.32125 36.5545ZM13.9547 3.92106C13.9547 3.92106 13.9004 3.92106 13.9004 3.97535L1.30316 10.274C1.08597 10.3826 0.868776 10.7627 0.868776 10.9799V32.2106C0.868776 32.4821 1.08597 32.9165 1.30316 33.0251L5.26696 35.6857V14.5093C5.26696 13.912 5.64705 13.3147 6.19003 13.0432L14.009 9.13371V4.02965C14.009 3.97535 14.009 3.92106 13.9547 3.92106ZM8.25337 20.8079L12.2715 23.4685C12.4887 23.6314 12.923 23.6314 13.1945 23.5228L18.8416 20.6993C19.0588 20.5907 19.276 20.2106 19.276 19.9934V7.50476C19.276 7.45046 19.276 7.45046 19.276 7.39616C19.276 7.39616 19.2217 7.39616 19.2217 7.45046L14.8778 9.6224V16.464C14.8778 17.0613 14.4977 17.6586 13.9547 17.9301L8.25337 20.8079Z" fill="white"/>
<path d="M28.0724 20.8622V9.35089H28.9955V10.3826C29.7014 9.62239 30.6787 9.188 31.7647 9.188C32.6878 9.188 33.5566 9.51379 34.1538 10.0568C35.0226 10.7627 35.5656 11.9029 35.5656 13.1518C35.5656 14.5093 34.9683 15.7038 33.9367 16.4097C33.1765 16.9527 32.4163 17.1156 31.6561 17.1156C30.4616 17.1156 29.5385 16.6269 28.9955 15.8667V20.8622H28.0724ZM28.9955 14.5093C29.5928 15.5409 30.5701 16.1925 31.7104 16.1925C32.362 16.1925 32.9593 15.9753 33.3937 15.6495C34.0995 15.1608 34.5882 14.1835 34.5882 13.1518C34.5882 12.1744 34.2081 11.3056 33.5023 10.7627C32.9593 10.3283 32.3077 10.1111 31.6561 10.1111C30.2444 10.1111 29.267 11.0884 28.9412 11.6314V14.5093H28.9955Z" fill="white"/>
<path d="M41.4843 10.0568C41.3757 10.0568 41.1042 10.0568 41.0499 10.0568C40.0183 10.0568 39.0952 10.7627 38.6608 11.74V16.8984H37.7377V9.35089H38.6608V10.3283C38.9866 9.78528 39.8554 9.188 41.0499 9.188C41.1585 9.188 41.5386 9.188 41.5929 9.2423L41.4843 10.0568Z" fill="white"/>
<path d="M49.4666 15.6495C48.9236 16.3554 47.8376 17.0613 46.3716 17.0613C44.2539 17.0613 42.5707 15.4866 42.5707 13.0975C42.5707 10.9256 44.0367 9.13371 46.2087 9.13371C48.2177 9.13371 49.7381 10.7084 49.7381 12.826C49.7381 12.8803 49.7381 12.9889 49.7381 13.1518H43.548C43.6023 14.7808 44.634 16.1382 46.3716 16.1382C47.3489 16.1382 48.2177 15.7581 48.815 14.998L49.4666 15.6495ZM43.6023 12.3373H48.7607C48.5435 11.0342 47.5118 10.0568 46.2087 10.0568C44.8512 10.0568 43.8738 11.0342 43.6023 12.3373Z" fill="white"/>
<path d="M51.6923 15.2694C52.3439 15.8124 53.1583 16.1925 53.9728 16.1925C54.8959 16.1925 55.7104 15.6495 55.7104 14.8893C55.7104 12.9346 51.3665 14.0206 51.3665 11.4142C51.3665 10.0568 52.6697 9.188 53.9185 9.188C54.9502 9.188 55.7647 9.51379 56.3619 9.89388L55.8733 10.6541C55.2217 10.2197 54.7873 10.0568 53.9728 10.0568C53.1583 10.0568 52.2896 10.4912 52.2896 11.3599C52.2896 13.0432 56.6334 12.1201 56.6334 14.7807C56.6334 16.1925 55.4389 17.0613 54.0271 17.0613C52.7782 17.0613 51.7466 16.5726 51.095 15.9753L51.6923 15.2694Z" fill="white"/>
<path d="M65.3754 15.7581C64.6152 16.5726 63.5292 17.0613 62.389 17.0613C60.2713 17.0613 58.3166 15.5409 58.3166 13.0975C58.3166 10.9799 59.9455 9.13371 62.2261 9.13371C63.4749 9.13371 64.4523 9.6224 65.1039 10.3283L64.5066 11.0342C63.9636 10.4912 63.2034 10.0568 62.2261 10.0568C60.6514 10.0568 59.2396 11.36 59.2396 13.0975C59.2396 14.7808 60.5428 16.1382 62.3347 16.1382C63.2034 16.1382 64.0179 15.7581 64.6695 15.1065L65.3754 15.7581Z" fill="white"/>
<path d="M71.0764 10.0568C70.9678 10.0568 70.6963 10.0568 70.642 10.0568C69.6103 10.0568 68.6873 10.7627 68.2529 11.74V16.8984H67.3298V9.35089H68.2529V10.3283C68.5787 9.78528 69.4474 9.188 70.642 9.188C70.7506 9.188 71.1307 9.188 71.185 9.2423L71.0764 10.0568Z" fill="white"/>
<path d="M73.6834 20.8621L75.7467 16.3011L72.3259 9.35085H73.4119L76.2354 15.2151L78.896 9.35085H79.9277L74.6607 20.8621H73.6834Z" fill="white"/>
<path d="M81.556 20.8622V9.35089H82.4791V10.3826C83.185 9.62239 84.1624 9.188 85.2483 9.188C86.1714 9.188 87.0402 9.51379 87.6375 10.0568C88.5062 10.7627 89.0492 11.9029 89.0492 13.1518C89.0492 14.5093 88.4519 15.7038 87.4203 16.4097C86.6601 16.9527 85.8999 17.1156 85.1397 17.1156C83.9452 17.1156 83.0221 16.6269 82.4791 15.8667V20.8622H81.556ZM82.5334 14.5093C83.1307 15.5409 84.1081 16.1925 85.2483 16.1925C85.8999 16.1925 86.4972 15.9753 86.9316 15.6495C87.6375 15.1608 88.1262 14.1835 88.1262 13.1518C88.1262 12.1744 87.7461 11.3056 87.0402 10.7627C86.4972 10.3283 85.8456 10.1111 85.194 10.1111C83.7823 10.1111 82.8049 11.0884 82.4791 11.6314V14.5093H82.5334Z" fill="white"/>
<path d="M95.4565 10.2192H92.9045V14.3459C92.9045 15.0518 93.0131 15.3776 93.2303 15.5948C93.5017 15.9206 93.9361 16.1378 94.4791 16.1378C94.6963 16.1378 95.0221 16.1378 95.2936 16.0292L95.4565 16.898C95.185 17.0066 94.7506 17.0066 94.4791 17.0066C93.7732 17.0066 92.9588 16.7894 92.4701 16.1378C92.1443 15.7034 91.9814 15.1604 91.9814 14.2916V10.1649H89.8637V9.29617H91.9814V7.28713H92.9045V9.35047H95.4565V10.2192Z" fill="white"/>
<path d="M98.2256 5.87557C98.7142 5.87557 99.0943 6.25565 99.0943 6.74434C99.0943 7.23303 98.7142 7.55882 98.2256 7.55882C97.7369 7.55882 97.4111 7.17873 97.4111 6.74434C97.4111 6.25565 97.7912 5.87557 98.2256 5.87557ZM97.7912 9.35067H98.7142V16.8982H97.7912V9.35067Z" fill="white"/>
<path d="M103.873 16.8983L100.398 9.35085H101.43L104.199 15.378L106.968 9.35085H108L104.525 16.8983H103.873Z" fill="white"/>
<path d="M115.819 15.6495C115.276 16.3554 114.19 17.0613 112.724 17.0613C110.606 17.0613 108.923 15.4866 108.923 13.0975C108.923 10.9256 110.389 9.13371 112.561 9.13371C114.57 9.13371 116.09 10.7084 116.09 12.826C116.09 12.8803 116.09 12.9889 116.09 13.1518H109.9C109.955 14.7808 110.986 16.1382 112.724 16.1382C113.701 16.1382 114.57 15.7581 115.167 14.998L115.819 15.6495ZM109.9 12.3373H115.059C114.841 11.0342 113.81 10.0568 112.507 10.0568C111.203 10.0568 110.226 11.0342 109.9 12.3373Z" fill="white"/>
<path d="M118.371 9.24228V9.51377H118.045V10.654H117.774V9.51377H117.394V9.24228H118.371Z" fill="white"/>
<path d="M119.294 10.1111L119.837 9.24228H120V10.654H119.729V9.89386L119.403 10.4369H119.24L118.86 9.89386V10.654H118.643V9.24228H118.805L119.294 10.1111Z" fill="white"/>
</svg>
