<svg width="120" height="40" viewBox="0 0 120 40" fill="none" xmlns="http://www.w3.org/2000/svg">
<path d="M28.5068 4.07455C28.7783 3.74876 29.1584 3.53157 29.5928 3.53157C30.0272 3.53157 30.4073 3.69446 30.6787 3.96595C31.0045 4.29175 31.1131 4.61754 31.1131 5.05193C31.1131 5.48631 30.9502 5.8664 30.6787 6.1379C30.4073 6.46369 30.0272 6.62658 29.5928 6.62658C29.1584 6.62658 28.7783 6.46369 28.5068 6.0836V7.65825H28.0724V3.64016H28.5068V4.07455ZM29.5928 6.30079C29.8643 6.30079 30.1358 6.19219 30.353 5.975C30.5701 5.75781 30.6787 5.48631 30.6787 5.16052C30.6787 4.83473 30.5701 4.56324 30.353 4.34604C30.1358 4.12885 29.8643 4.02025 29.5385 4.02025C29.2127 4.02025 28.9412 4.12885 28.7783 4.34604C28.5611 4.56324 28.4525 4.83473 28.4525 5.16052C28.4525 5.48631 28.5611 5.75781 28.7783 5.975C28.9955 6.19219 29.267 6.30079 29.5928 6.30079Z" fill="#6240A3"/>
<path d="M33.2853 3.58585C33.7197 3.58585 34.0998 3.74875 34.3712 4.02024C34.6427 4.34603 34.8056 4.67182 34.8056 5.10621C34.8056 5.5406 34.6427 5.92069 34.3712 6.19218C34.0998 6.51797 33.7197 6.62657 33.2853 6.62657C32.8509 6.62657 32.4708 6.46367 32.1993 6.19218C31.9278 5.86639 31.7649 5.5406 31.7649 5.10621C31.7649 4.67182 31.9278 4.29173 32.1993 4.02024C32.4708 3.74875 32.8509 3.58585 33.2853 3.58585ZM33.2853 6.30078C33.6111 6.30078 33.8283 6.19218 34.0455 5.97499C34.2626 5.75779 34.3712 5.4863 34.3712 5.16051C34.3712 4.83472 34.2626 4.56322 34.0455 4.34603C33.8283 4.12884 33.5568 4.02024 33.2853 4.02024C33.0138 4.02024 32.7423 4.12884 32.5251 4.34603C32.3079 4.56322 32.1993 4.83472 32.1993 5.16051C32.1993 5.4863 32.3079 5.75779 32.5251 5.97499C32.688 6.19218 32.9595 6.30078 33.2853 6.30078Z" fill="#6240A3"/>
<path d="M39.6922 3.64014L38.389 6.68085H38.2804L37.4116 4.61751L36.5429 6.68085H36.4343L35.1854 3.64014H35.6741L36.4886 5.75778L37.3573 3.64014H37.4659L38.3347 5.75778L39.2035 3.64014H39.6922Z" fill="#6240A3"/>
<path d="M43.1131 5.21481H40.5067C40.5067 5.5406 40.6153 5.81209 40.8325 5.97499C41.0497 6.19218 41.2669 6.24648 41.5384 6.24648C42.0271 6.24648 42.3529 6.02928 42.6244 5.5406L43.0045 5.75779C42.8416 6.08358 42.6244 6.30078 42.4072 6.46367C42.19 6.62657 41.9185 6.68087 41.5927 6.68087C41.1583 6.68087 40.7782 6.51797 40.5067 6.24648C40.2352 5.92069 40.0723 5.5949 40.0723 5.16051C40.0723 4.72612 40.2352 4.34603 40.5067 4.07454C40.7782 3.74875 41.1583 3.58585 41.5927 3.58585C42.0271 3.58585 42.4072 3.74875 42.6787 4.02024C42.9502 4.29173 43.1131 4.72612 43.1131 5.21481ZM42.6244 4.83472C42.5701 4.56322 42.4615 4.40033 42.2443 4.23743C42.0271 4.07454 41.8099 4.02024 41.5927 4.02024C41.104 4.02024 40.7239 4.29173 40.561 4.83472H42.6244Z" fill="#6240A3"/>
<path d="M45.1218 3.69495L44.9046 4.07504C44.8503 4.02074 44.796 4.02074 44.7417 4.02074C44.6331 4.02074 44.5245 4.07504 44.4159 4.18364C44.3073 4.29223 44.253 4.45513 44.1987 4.61802C44.1444 4.78092 44.1444 5.10671 44.1444 5.5954V6.62707H43.71V3.69495H44.1444V4.02074C44.253 3.91214 44.3073 3.80355 44.4159 3.74925C44.5245 3.69495 44.6331 3.64065 44.7417 3.64065C44.796 3.58635 44.9589 3.58635 45.1218 3.69495Z" fill="#6240A3"/>
<path d="M48.5429 5.21481H45.9366C45.9366 5.5406 46.0452 5.81209 46.2624 5.97499C46.4796 6.19218 46.6968 6.24648 46.9683 6.24648C47.457 6.24648 47.7828 6.02928 48.0543 5.5406L48.4343 5.75779C48.2715 6.08358 48.0543 6.30078 47.8371 6.46367C47.6199 6.62657 47.3484 6.68087 47.0226 6.68087C46.5882 6.68087 46.2081 6.51797 45.9366 6.24648C45.6651 5.92069 45.5022 5.5949 45.5022 5.16051C45.5022 4.72612 45.6651 4.34603 45.9366 4.07454C46.2081 3.74875 46.5882 3.58585 47.0226 3.58585C47.457 3.58585 47.8371 3.74875 48.1086 4.02024C48.3801 4.29173 48.5429 4.72612 48.5429 5.21481ZM48.0543 4.83472C48 4.56322 47.8914 4.40033 47.6742 4.23743C47.457 4.07454 47.2398 4.02024 47.0226 4.02024C46.5339 4.02024 46.1538 4.29173 45.9909 4.83472H48.0543Z" fill="#6240A3"/>
<path d="M52.2349 6.62666H51.8005V6.19227C51.4747 6.57236 51.0946 6.73526 50.6603 6.73526C50.2259 6.73526 49.9001 6.57236 49.5743 6.24657C49.3028 5.92078 49.1399 5.59499 49.1399 5.1606C49.1399 4.72621 49.3028 4.34612 49.5743 4.07463C49.9001 3.74884 50.2259 3.64024 50.6603 3.64024C51.0946 3.64024 51.4747 3.80314 51.7462 4.18323V2.60857H52.1806V6.62666H52.2349ZM50.7146 6.30087C50.986 6.30087 51.2575 6.19227 51.4747 5.97508C51.6919 5.75788 51.8005 5.48639 51.8005 5.1606C51.8005 4.83481 51.6919 4.56332 51.4747 4.34612C51.2575 4.12893 50.986 4.02033 50.7146 4.02033C50.3888 4.02033 50.1173 4.12893 49.9001 4.34612C49.6829 4.56332 49.5743 4.83481 49.5743 5.1606C49.5743 5.48639 49.6829 5.75788 49.9001 5.97508C50.1173 6.19227 50.3888 6.30087 50.7146 6.30087Z" fill="#6240A3"/>
<path d="M55.0584 4.07466C55.3842 3.74887 55.71 3.58597 56.1444 3.58597C56.5788 3.58597 56.9589 3.74887 57.2304 4.02036C57.5019 4.34615 57.6648 4.67194 57.6648 5.10633C57.6648 5.54072 57.5019 5.92081 57.2304 6.1923C56.9046 6.51809 56.5788 6.68099 56.1444 6.68099C55.71 6.68099 55.3299 6.51809 55.0584 6.138V6.57239H54.6241V2.5H55.0584V4.07466ZM56.1444 6.2466C56.4702 6.2466 56.6874 6.138 56.9046 5.92081C57.1218 5.70361 57.2304 5.43212 57.2304 5.10633C57.2304 4.78054 57.1218 4.50904 56.9046 4.29185C56.6874 4.07466 56.4159 3.96606 56.1444 3.96606C55.8729 3.96606 55.5471 4.07466 55.3299 4.29185C55.1127 4.50904 55.0042 4.78054 55.0042 5.10633C55.0042 5.43212 55.1127 5.70361 55.3299 5.92081C55.6014 6.138 55.8729 6.2466 56.1444 6.2466Z" fill="#6240A3"/>
<path d="M60.9772 3.64014L59.2397 7.65823H58.751L59.3483 6.35506L58.0994 3.64014H58.5881L59.5654 5.81208L60.4885 3.64014H60.9772Z" fill="#6240A3"/>
<path d="M5.32125 38.5545C5.15836 38.5545 4.94116 38.5002 4.77827 38.3916L0.814478 35.7309C0.325791 35.4051 0 34.7536 0 34.2106V12.9799C0 12.3826 0.38009 11.7853 0.923075 11.5138L13.5746 5.21517C13.7375 5.16088 13.9004 5.10658 14.009 5.10658C14.4977 5.10658 14.8235 5.48667 14.8235 6.02965V10.6993L18.7873 8.69028C18.9502 8.63598 19.1131 8.58168 19.2217 8.58168C19.7104 8.58168 20.0362 8.96177 20.0362 9.50476V21.9934C20.0362 22.5907 19.6561 23.188 19.1131 23.4595L13.466 26.283C12.9773 26.5545 12.2172 26.5002 11.7285 26.1744L7.76469 23.5138C7.49319 23.2966 7.3303 23.0251 7.3303 22.7536C7.3303 22.4821 7.54749 22.2106 7.87328 22.0477L13.5203 19.2242C13.7375 19.1156 13.9547 18.7355 13.9547 18.5183V12.0568L6.46152 15.8034C6.24433 15.912 6.02713 16.2921 6.02713 16.5093V37.74C6.02713 37.9572 5.97284 38.1744 5.86424 38.3373C5.75564 38.4459 5.53845 38.5545 5.32125 38.5545ZM13.9547 5.92106C13.9547 5.92106 13.9004 5.92106 13.9004 5.97535L1.30316 12.274C1.08597 12.3826 0.868776 12.7627 0.868776 12.9799V34.2106C0.868776 34.4821 1.08597 34.9165 1.30316 35.0251L5.26696 37.6857V16.5093C5.26696 15.912 5.64705 15.3147 6.19003 15.0432L14.009 11.1337V6.02965C14.009 5.97535 14.009 5.92106 13.9547 5.92106ZM8.25337 22.8079L12.2715 25.4685C12.4887 25.6314 12.923 25.6314 13.1945 25.5228L18.8416 22.6993C19.0588 22.5907 19.276 22.2106 19.276 21.9934V9.50476C19.276 9.45046 19.276 9.45046 19.276 9.39616C19.276 9.39616 19.2217 9.39616 19.2217 9.45046L14.8778 11.6224V18.464C14.8778 19.0613 14.4977 19.6586 13.9547 19.9301L8.25337 22.8079Z" fill="#6240A3"/>
<path d="M28.0724 22.8622V11.3509H28.9955V12.3826C29.7014 11.6224 30.6787 11.188 31.7647 11.188C32.6878 11.188 33.5566 11.5138 34.1538 12.0568C35.0226 12.7627 35.5656 13.9029 35.5656 15.1518C35.5656 16.5093 34.9683 17.7038 33.9367 18.4097C33.1765 18.9527 32.4163 19.1156 31.6561 19.1156C30.4616 19.1156 29.5385 18.6269 28.9955 17.8667V22.8622H28.0724ZM28.9955 16.5093C29.5928 17.5409 30.5701 18.1925 31.7104 18.1925C32.362 18.1925 32.9593 17.9753 33.3937 17.6495C34.0995 17.1608 34.5882 16.1835 34.5882 15.1518C34.5882 14.1744 34.2081 13.3056 33.5023 12.7627C32.9593 12.3283 32.3077 12.1111 31.6561 12.1111C30.2444 12.1111 29.267 13.0884 28.9412 13.6314V16.5093H28.9955Z" fill="#6240A3"/>
<path d="M41.4843 12.0568C41.3757 12.0568 41.1042 12.0568 41.0499 12.0568C40.0183 12.0568 39.0952 12.7627 38.6608 13.74V18.8984H37.7377V11.3509H38.6608V12.3283C38.9866 11.7853 39.8554 11.188 41.0499 11.188C41.1585 11.188 41.5386 11.188 41.5929 11.2423L41.4843 12.0568Z" fill="#6240A3"/>
<path d="M49.4666 17.6495C48.9236 18.3554 47.8376 19.0613 46.3716 19.0613C44.2539 19.0613 42.5707 17.4866 42.5707 15.0975C42.5707 12.9256 44.0367 11.1337 46.2087 11.1337C48.2177 11.1337 49.7381 12.7084 49.7381 14.826C49.7381 14.8803 49.7381 14.9889 49.7381 15.1518H43.548C43.6023 16.7808 44.634 18.1382 46.3716 18.1382C47.3489 18.1382 48.2177 17.7581 48.815 16.998L49.4666 17.6495ZM43.6023 14.3373H48.7607C48.5435 13.0342 47.5118 12.0568 46.2087 12.0568C44.8512 12.0568 43.8738 13.0342 43.6023 14.3373Z" fill="#6240A3"/>
<path d="M51.6923 17.2694C52.3439 17.8124 53.1583 18.1925 53.9728 18.1925C54.8959 18.1925 55.7104 17.6495 55.7104 16.8893C55.7104 14.9346 51.3665 16.0206 51.3665 13.4142C51.3665 12.0568 52.6696 11.188 53.9185 11.188C54.9502 11.188 55.7647 11.5138 56.3619 11.8939L55.8733 12.6541C55.2217 12.2197 54.7873 12.0568 53.9728 12.0568C53.1583 12.0568 52.2896 12.4912 52.2896 13.3599C52.2896 15.0432 56.6334 14.1201 56.6334 16.7807C56.6334 18.1925 55.4389 19.0613 54.0271 19.0613C52.7782 19.0613 51.7466 18.5726 51.095 17.9753L51.6923 17.2694Z" fill="#6240A3"/>
<path d="M65.3754 17.7581C64.6152 18.5726 63.5292 19.0613 62.389 19.0613C60.2713 19.0613 58.3166 17.5409 58.3166 15.0975C58.3166 12.9799 59.9455 11.1337 62.2261 11.1337C63.4749 11.1337 64.4523 11.6224 65.1039 12.3283L64.5066 13.0342C63.9636 12.4912 63.2034 12.0568 62.2261 12.0568C60.6514 12.0568 59.2396 13.36 59.2396 15.0975C59.2396 16.7808 60.5428 18.1382 62.3347 18.1382C63.2034 18.1382 64.0179 17.7581 64.6695 17.1065L65.3754 17.7581Z" fill="#6240A3"/>
<path d="M71.0764 12.0568C70.9678 12.0568 70.6963 12.0568 70.642 12.0568C69.6103 12.0568 68.6873 12.7627 68.2529 13.74V18.8984H67.3298V11.3509H68.2529V12.3283C68.5787 11.7853 69.4474 11.188 70.642 11.188C70.7506 11.188 71.1307 11.188 71.185 11.2423L71.0764 12.0568Z" fill="#6240A3"/>
<path d="M73.6834 22.8621L75.7467 18.3011L72.3259 11.3509H73.4119L76.2354 17.2151L78.896 11.3509H79.9277L74.6607 22.8621H73.6834Z" fill="#6240A3"/>
<path d="M81.556 22.8622V11.3509H82.4791V12.3826C83.185 11.6224 84.1624 11.188 85.2483 11.188C86.1714 11.188 87.0402 11.5138 87.6375 12.0568C88.5062 12.7627 89.0492 13.9029 89.0492 15.1518C89.0492 16.5093 88.4519 17.7038 87.4203 18.4097C86.6601 18.9527 85.8999 19.1156 85.1397 19.1156C83.9452 19.1156 83.0221 18.6269 82.4791 17.8667V22.8622H81.556ZM82.5334 16.5093C83.1307 17.5409 84.1081 18.1925 85.2483 18.1925C85.8999 18.1925 86.4972 17.9753 86.9316 17.6495C87.6375 17.1608 88.1262 16.1835 88.1262 15.1518C88.1262 14.1744 87.7461 13.3056 87.0402 12.7627C86.4972 12.3283 85.8456 12.1111 85.194 12.1111C83.7823 12.1111 82.8049 13.0884 82.4791 13.6314V16.5093H82.5334Z" fill="#6240A3"/>
<path d="M95.4565 12.2192H92.9045V16.3459C92.9045 17.0518 93.0131 17.3776 93.2303 17.5948C93.5017 17.9206 93.9361 18.1378 94.4791 18.1378C94.6963 18.1378 95.0221 18.1378 95.2936 18.0292L95.4565 18.898C95.185 19.0066 94.7506 19.0066 94.4791 19.0066C93.7732 19.0066 92.9588 18.7894 92.4701 18.1378C92.1443 17.7034 91.9814 17.1604 91.9814 16.2916V12.1649H89.8637V11.2962H91.9814V9.28713H92.9045V11.3505H95.4565V12.2192Z" fill="#6240A3"/>
<path d="M98.2256 7.87557C98.7142 7.87557 99.0943 8.25565 99.0943 8.74434C99.0943 9.23303 98.7142 9.55882 98.2256 9.55882C97.7369 9.55882 97.4111 9.17873 97.4111 8.74434C97.4111 8.25565 97.7912 7.87557 98.2256 7.87557ZM97.7912 11.3507H98.7142V18.8982H97.7912V11.3507Z" fill="#6240A3"/>
<path d="M103.873 18.8983L100.398 11.3509H101.43L104.199 17.378L106.968 11.3509H108L104.525 18.8983H103.873Z" fill="#6240A3"/>
<path d="M115.819 17.6495C115.276 18.3554 114.19 19.0613 112.724 19.0613C110.606 19.0613 108.923 17.4866 108.923 15.0975C108.923 12.9256 110.389 11.1337 112.561 11.1337C114.57 11.1337 116.09 12.7084 116.09 14.826C116.09 14.8803 116.09 14.9889 116.09 15.1518H109.9C109.955 16.7808 110.986 18.1382 112.724 18.1382C113.701 18.1382 114.57 17.7581 115.167 16.998L115.819 17.6495ZM109.9 14.3373H115.059C114.841 13.0342 113.81 12.0568 112.507 12.0568C111.203 12.0568 110.226 13.0342 109.9 14.3373Z" fill="#6240A3"/>
<path d="M118.371 11.2423V11.5138H118.045V12.654H117.774V11.5138H117.394V11.2423H118.371Z" fill="#6240A3"/>
<path d="M119.294 12.1111L119.837 11.2423H120V12.654H119.729V11.8939L119.403 12.4369H119.24L118.86 11.8939V12.654H118.643V11.2423H118.805L119.294 12.1111Z" fill="#6240A3"/>
</svg>
