<svg width="128" height="48" viewBox="0 0 128 48" fill="none" xmlns="http://www.w3.org/2000/svg">
<path d="M25.5018 35.5915L1.77259 47.1226C0.954233 47.5209 0 46.9249 0 46.0139V15.8676C0 14.4532 0.809091 13.1593 2.0814 12.5417L25.8106 1.01057C26.629 0.612205 27.5832 1.20821 27.5832 2.11921V32.2656C27.5832 33.6799 26.7741 34.9739 25.5018 35.5915Z" fill="white"/>
<path d="M39.1854 16.809C37.6723 16.2006 36.0479 16.5002 34.9701 17.5687V16.6577H33.8152V28.76H35.0041V23.7418C35.9707 24.798 37.5302 25.116 39.0619 24.5478C40.8036 23.8993 41.8598 22.3707 41.7517 20.6661C41.8351 18.9861 40.8283 17.4698 39.1854 16.809ZM40.5597 20.663C40.6153 22.3676 39.4356 23.2879 38.4072 23.5535C37.2554 23.853 35.7607 23.5071 35.0041 22.0681V19.1158C35.7267 17.825 37.2986 17.4667 38.4844 17.7848C39.8154 18.14 40.5936 19.2146 40.5597 20.663Z" fill="white"/>
<path d="M44.9448 17.4576V16.6578H43.7559V24.6622H44.9448V19.2642C45.4049 18.1462 46.5444 17.4792 47.7272 17.6429L47.8322 17.6583L47.999 16.5466L47.9001 16.525C46.844 16.3088 45.5223 16.8276 44.9479 17.4576H44.9448Z" fill="white"/>
<path d="M54.7065 17.1056C53.533 16.3645 51.9766 16.3336 50.7382 17.0253C49.4752 17.7294 48.7927 19.0203 48.8113 20.6508C48.6816 22.7507 50.0558 24.0231 51.3868 24.511C51.9179 24.7055 52.4645 24.8013 52.9926 24.8013C54.234 24.8013 55.3921 24.2886 56.0931 23.3529L56.1517 23.2757L55.3118 22.479L55.2377 22.5747C54.4656 23.5845 53.1593 23.9458 51.9056 23.4919C50.9699 23.1553 49.9878 22.2875 50.0002 20.8515H56.3494L56.3556 20.7496C56.4606 19.1345 55.8769 17.8406 54.7096 17.1025L54.7065 17.1056ZM50.0712 19.7491C50.3491 18.3007 51.6122 17.6615 52.6992 17.6738C53.6843 17.6893 54.8949 18.2452 55.1327 19.7491H50.0743H50.0712Z" fill="white"/>
<path d="M60.8332 20.027C59.8758 19.7614 59.0513 19.5298 59.0482 18.8597C59.0945 18.344 59.3539 17.9796 59.8141 17.7819C60.6571 17.4206 61.9078 17.7233 62.5471 18.2328L62.6397 18.3069L63.2666 17.3218L63.1925 17.26C62.2259 16.4664 60.3823 16.2749 59.1656 16.8431C58.5726 17.1211 57.8655 17.6955 57.8593 18.8628C57.8593 20.3729 59.2242 20.7435 60.4255 21.0677C61.4601 21.3456 62.3494 21.5896 62.3494 22.4234C62.2908 23.1213 61.8399 23.4209 61.4693 23.5506C60.5429 23.8748 59.0729 23.5104 58.3843 22.7847L58.2978 22.6951L57.5659 23.6154L57.6277 23.6834C58.2515 24.3813 59.462 24.7951 60.6201 24.7951C61.1204 24.7951 61.6145 24.7179 62.0406 24.5511C63.0165 24.1744 63.5476 23.4023 63.5384 22.3802C63.5384 20.7743 62.0993 20.376 60.8301 20.0239L60.8332 20.027Z" fill="white"/>
<path d="M71.6202 22.6582C70.7833 23.6371 69.4184 23.949 68.1492 23.4518C67.1826 23.075 66.1697 22.1424 66.2253 20.6601C66.1851 19.1778 67.161 18.2545 68.0874 17.887C69.3134 17.3991 70.632 17.6739 71.4504 18.5849L71.5307 18.6745L72.2904 17.8098L72.2255 17.7388C71.0922 16.5035 69.2733 16.1545 67.5933 16.8525C65.9442 17.538 64.9653 18.9987 65.0363 20.6601C65.0085 22.3987 66.0276 23.8749 67.6921 24.5141C68.2356 24.7241 68.7977 24.8229 69.3505 24.8229C70.5548 24.8229 71.7067 24.3412 72.4849 23.4487L72.5528 23.3684L71.6943 22.5717L71.6202 22.6582Z" fill="white"/>
<path d="M75.4463 17.4576V16.6578H74.2573V24.6622H75.4463V19.2642C75.9064 18.1462 77.0459 17.4792 78.2287 17.6429L78.3337 17.6583L78.5004 16.5466L78.4016 16.525C77.3485 16.3088 76.0237 16.8276 75.4493 17.4576H75.4463Z" fill="white"/>
<path d="M83.5682 22.5591L80.7179 16.6577H79.3838L82.9568 23.9241L80.7734 28.7601H82.0365L87.5303 16.6577H86.2518L83.5682 22.5591Z" fill="white"/>
<path d="M94.3334 16.809C92.8171 16.2006 91.1959 16.5002 90.1181 17.5687V16.6577H88.9631V28.76H90.1521V23.7418C91.1187 24.798 92.6751 25.116 94.2099 24.5478C95.9516 23.8993 97.0077 22.3707 96.8996 20.6661C96.983 18.9861 95.9763 17.4698 94.3334 16.809ZM95.7076 20.663C95.7663 22.3676 94.5835 23.2879 93.5552 23.5535C92.4033 23.853 90.9087 23.5071 90.1521 22.0681V19.1158C90.8747 17.825 92.4466 17.4667 93.6324 17.7848C94.9634 18.14 95.7416 19.2146 95.7076 20.663Z" fill="white"/>
<path d="M103.187 23.5968C102.412 23.7914 101.757 23.708 101.337 23.3652C100.979 23.0687 100.812 22.5993 100.843 21.9601V17.7973H103.49V16.6578H100.843V14.5393H99.6542V16.6578H97.4678V17.7973H99.6573C99.6727 18.2729 99.6573 18.8102 99.6387 19.3722C99.5801 21.2653 99.509 23.4115 100.67 24.3596C101.069 24.6869 101.578 24.8475 102.214 24.8475C102.572 24.8475 102.971 24.795 103.409 24.6931L103.511 24.6684L103.298 23.5659L103.187 23.5937V23.5968Z" fill="white"/>
<path d="M106.856 16.6577H105.667V24.6622H106.856V16.6577Z" fill="white"/>
<path d="M106.266 13.0879H106.238C105.895 13.0879 105.617 13.2423 105.454 13.5264C105.265 13.8507 105.265 14.2799 105.454 14.6011C105.617 14.879 105.892 15.0303 106.229 15.0303C106.235 15.0303 106.244 15.0303 106.254 15.0303C106.609 15.0365 106.902 14.8821 107.072 14.5949C107.257 14.2799 107.257 13.8537 107.072 13.5357C106.905 13.2485 106.621 13.0879 106.269 13.0879H106.266Z" fill="white"/>
<path d="M112.383 22.7259L109.586 16.6577H108.285L111.979 24.6004L112.007 24.6622H112.779L116.481 16.6577H115.184L112.383 22.7259Z" fill="white"/>
<path d="M123.059 17.1056C121.886 16.3645 120.329 16.3336 119.091 17.0253C117.828 17.7294 117.146 19.0203 117.164 20.6508C117.034 22.7507 118.409 24.0231 119.74 24.511C120.271 24.7055 120.817 24.8013 121.348 24.8013C122.59 24.8013 123.748 24.2886 124.449 23.3529L124.508 23.2757L123.668 22.479L123.594 22.5747C122.821 23.5845 121.512 23.9458 120.261 23.495C119.326 23.1584 118.344 22.2875 118.356 20.8546H124.705L124.711 20.7527C124.816 19.1376 124.233 17.8437 123.065 17.1056H123.059ZM118.424 19.7491C118.702 18.3007 119.974 17.6553 121.052 17.6738C122.037 17.6893 123.248 18.2452 123.485 19.7491H118.427H118.424Z" fill="white"/>
<path d="M127.679 16.812L127.272 17.7848L126.873 16.812H126.533V18.0967H126.774V17.1517L127.17 18.0967H127.355L127.753 17.1641L127.756 18.0967H128V16.812H127.679Z" fill="white"/>
<path d="M125.443 17.0158H125.758L125.755 18.0967H126.018V17.0158H126.326V16.812H125.443V17.0158Z" fill="white"/>
<path d="M10.7869 36.4748C10.6325 36.4748 10.475 36.4253 10.3268 36.3234L7.5413 34.4675C7.16764 34.2173 6.87427 33.6707 6.87427 33.2229V18.3042C6.87427 17.8348 7.17999 17.3438 7.59998 17.1338L16.5092 12.6838C16.6389 12.6189 16.7717 12.585 16.9014 12.585C17.3183 12.585 17.6302 12.9247 17.6302 13.3755V16.4328L20.2088 15.145C20.3385 15.0802 20.4713 15.0462 20.601 15.0462C21.0179 15.0462 21.3298 15.3859 21.3298 15.8368V24.5916C21.3298 25.0641 20.9994 25.5984 20.5763 25.8114L16.6297 27.7817C16.4629 27.865 16.2591 27.9083 16.0368 27.9083C15.7434 27.9083 15.4593 27.8311 15.2585 27.6952L12.5626 25.83C12.3094 25.6632 12.1766 25.4162 12.192 25.1537C12.2075 24.8912 12.3742 24.6626 12.646 24.5268L16.5092 22.538C16.6204 22.4824 16.7409 22.2848 16.7409 22.1613V17.8718L11.7257 20.3763C11.5868 20.4473 11.4632 20.645 11.4632 20.7994V35.7151C11.4632 35.9096 11.4107 36.0826 11.3088 36.2154C11.1853 36.379 10.9938 36.4748 10.7869 36.4748ZM7.99526 17.9274C7.88409 17.983 7.76365 18.1807 7.76365 18.3042V33.2229C7.76365 33.3959 7.89026 33.6306 8.03541 33.7263L10.5769 35.4186V20.7654C10.5769 20.296 10.8827 19.805 11.3026 19.595L16.7439 16.8775V13.5608L7.99835 17.9274H7.99526ZM15.7526 26.9602C15.799 26.9911 15.9071 27.0251 16.0368 27.0251C16.117 27.0251 16.1881 27.0127 16.2313 26.9911L20.2057 25.0054C20.3169 24.9498 20.4373 24.7522 20.4373 24.6287V16.0282L17.6271 17.4302V22.1643C17.6271 22.6337 17.3214 23.1248 16.9014 23.3347L13.1339 25.2154L15.7496 26.9571L15.7526 26.9602Z" fill="#6341A3"/>
</svg>
