<svg width="126" height="22" viewBox="0 0 126 22" fill="none" xmlns="http://www.w3.org/2000/svg">
<path fill-rule="evenodd" clip-rule="evenodd" d="M96.4223 0.0904362C96.2813 0.0313207 96.13 0.000587262 95.9771 0L95.9816 0.0134873C95.831 0.0146606 95.6822 0.0455103 95.5436 0.104267C95.405 0.163023 95.2794 0.248528 95.174 0.355877C95.0686 0.463225 94.9854 0.590303 94.9293 0.729818C94.8732 0.869333 94.8452 1.01854 94.847 1.16887C94.8452 1.31777 94.8732 1.46552 94.9293 1.60349C94.9854 1.74146 95.0685 1.86687 95.1737 1.97237C95.279 2.07787 95.4042 2.16135 95.5422 2.21791C95.6801 2.27447 95.828 2.30299 95.9771 2.30178C96.1276 2.30356 96.277 2.27564 96.4168 2.21961C96.5565 2.16358 96.6837 2.08056 96.7912 1.9753C96.8988 1.87004 96.9844 1.74461 97.0432 1.60623C97.1021 1.46784 97.133 1.31921 97.1341 1.16887C97.1353 1.01618 97.1063 0.864751 97.0487 0.723282C96.9912 0.581813 96.9062 0.453085 96.7987 0.344486C96.6912 0.235886 96.5633 0.149552 96.4223 0.0904362ZM96.6524 4.72944H95.3603V15.0695H96.6524V4.72944ZM92.1721 5.95243H88.6604V11.6125C88.5964 12.2219 88.7564 12.8339 89.1107 13.3343C89.3233 13.5788 89.5894 13.7713 89.8884 13.8968C90.1874 14.0223 90.5112 14.0775 90.835 14.0581C91.2101 14.0641 91.5843 14.0188 91.947 13.9232L92.1721 15.1011C91.7322 15.2221 91.2778 15.2826 90.8215 15.2809C90.3018 15.304 89.7835 15.2101 89.305 15.0062C88.8265 14.8024 88.4001 14.4937 88.0572 14.1031C87.6069 13.5366 87.3548 12.7903 87.3548 11.5675V5.95243H84.4644V4.72961H87.3638V1.92432H88.6559V4.72961H92.1676L92.1721 5.95243ZM17.7202 5.74964H18.3325L18.5126 4.52232C18.3775 4.49985 17.9228 4.47737 17.7427 4.47737C17.1119 4.4632 16.4867 4.59936 15.9191 4.87456C15.3514 5.14976 14.8577 5.55607 14.4786 6.05984V4.71114H13.1865V15.0512H14.4786V8.03344C14.7357 7.37768 15.1799 6.8117 15.7562 6.40572C16.3324 5.99974 17.0153 5.77161 17.7202 5.74964ZM0 4.76548V20.5003H1.31463V13.6174C1.75461 14.1626 2.31454 14.5991 2.95091 14.893C3.58728 15.187 4.28296 15.3305 4.98388 15.3123C6.08859 15.3207 7.1678 14.9809 8.06786 14.3412C8.76483 13.8381 9.32894 13.1735 9.71166 12.4044C10.0944 11.6354 10.2842 10.785 10.2649 9.9265C10.2719 9.12373 10.1031 8.32914 9.77023 7.59838C9.43738 6.86762 8.94855 6.21836 8.33799 5.69608C7.40561 4.9495 6.24654 4.54203 5.05142 4.54069C4.33929 4.53231 3.6335 4.67506 2.98076 4.95949C2.32803 5.24392 1.74324 5.66355 1.2651 6.1906V4.76548H0ZM2.8337 13.4324C2.18507 13.0375 1.65309 12.4777 1.29212 11.8102V7.79555C1.694 7.17217 2.24264 6.65654 2.8901 6.2937C3.53757 5.93086 4.26415 5.73186 5.00639 5.71406C5.91608 5.72134 6.79602 6.03855 7.50059 6.61319C7.96897 7.02017 8.34172 7.52527 8.5923 8.09252C8.84287 8.65977 8.9651 9.27522 8.95028 9.89503C8.97391 10.431 8.889 10.9662 8.70061 11.4686C8.51223 11.9711 8.22426 12.4304 7.85393 12.819C7.4836 13.2077 7.03854 13.5178 6.54539 13.7307C6.05224 13.9436 5.52114 14.0549 4.98388 14.058C4.22433 14.0432 3.48232 13.8274 2.8337 13.4324ZM29.3048 13.3749C28.7893 13.986 28.1431 14.474 27.4139 14.8031C26.6847 15.1322 25.8909 15.2939 25.0908 15.2765C22.1914 15.2765 19.8998 13.1051 19.8998 9.88173C19.8998 6.91909 21.9168 4.48694 24.8522 4.48694C27.6165 4.48694 29.656 6.65834 29.656 9.53557C29.6573 9.68573 29.6498 9.83585 29.6335 9.98514H21.192C21.282 12.179 22.7092 14.0312 25.0908 14.0312C25.7235 14.0454 26.351 13.914 26.9248 13.6474C27.4985 13.3808 28.0033 12.9861 28.3999 12.4937L29.3048 13.3749ZM21.2595 8.81177H28.3054C28.2093 7.96008 27.8029 7.1734 27.1637 6.60142C26.5245 6.02944 25.697 5.71209 24.8387 5.70976C23.0018 5.70976 21.6422 7.02249 21.237 8.81177H21.2595ZM35.4813 14.0532C34.3268 14.0184 33.2217 13.5773 32.3613 12.8079L31.5419 13.8104C32.6457 14.7877 34.0784 15.3128 35.5533 15.2805C37.5252 15.2805 39.155 14.1026 39.155 12.1785C39.155 10.1616 37.3037 9.64714 35.6646 9.1916C34.3624 8.82973 33.1942 8.50505 33.1942 7.494C33.1942 6.29366 34.3917 5.72721 35.4813 5.72721C36.4142 5.71415 37.3254 6.00799 38.0745 6.5634L38.7453 5.50692C37.7576 4.85398 36.5982 4.50822 35.4137 4.51338C33.6714 4.51338 31.9021 5.64628 31.9021 7.52547C31.9021 9.41652 33.6136 9.87861 35.2024 10.3076C36.5787 10.6791 37.8629 11.0259 37.8629 12.2549C37.8629 13.3294 36.7734 14.0532 35.4813 14.0532ZM51.0594 13.4867C50.5443 14.0559 49.9148 14.5102 49.212 14.8201C48.5091 15.1299 47.7488 15.2884 46.9805 15.285C44.1036 15.285 41.4293 13.2035 41.4293 9.8902C41.4192 9.18348 41.5501 8.48182 41.8147 7.82624C42.0792 7.17066 42.4719 6.5743 42.9699 6.07201C43.4678 5.56973 44.0611 5.1716 44.7149 4.9009C45.3688 4.63019 46.0701 4.49234 46.7779 4.4954C47.5108 4.48389 48.2385 4.62143 48.9165 4.89967C49.5945 5.1779 50.2087 5.59101 50.7218 6.11384L49.8889 7.03995C49.4796 6.62611 48.9925 6.2971 48.4556 6.07182C47.9186 5.84654 47.3423 5.72943 46.7599 5.72722C45.6542 5.75106 44.6033 6.21253 43.8383 7.0101C43.0734 7.80768 42.657 8.87602 42.6809 9.98011C42.7048 11.0842 43.1669 12.1336 43.9657 12.8975C44.7644 13.6613 45.8343 14.077 46.94 14.0532C47.5354 14.046 48.1228 13.9156 48.6653 13.6704C49.2077 13.4251 49.6933 13.0702 50.0915 12.6281L51.0594 13.4867ZM58.1996 5.74964H58.8119L58.992 4.52232C58.8569 4.49985 58.4022 4.47737 58.2221 4.47737C57.5913 4.4632 56.9662 4.59936 56.3985 4.87456C55.8309 5.14976 55.3371 5.55607 54.9581 6.05984V4.71114H53.666V15.0512H54.9581V8.03344C55.2151 7.37768 55.6594 6.8117 56.2356 6.40572C56.8118 5.99974 57.4948 5.77161 58.1996 5.74964ZM62.3909 20.482L65.2228 14.215L60.554 4.72919H62.0082L65.8801 12.7405L69.5313 4.72919H70.9135L63.7506 20.482H62.3909ZM73.1774 4.76548V20.5003H74.4741V13.6174C74.914 14.1626 75.474 14.5991 76.1104 14.893C76.7467 15.187 77.4424 15.3305 78.1433 15.3123C79.248 15.3207 80.3272 14.9809 81.2273 14.3412C81.9243 13.8381 82.4884 13.1735 82.8711 12.4044C83.2538 11.6354 83.4437 10.785 83.4243 9.9265C83.4314 9.12373 83.2625 8.32914 82.9297 7.59838C82.5968 6.86762 82.108 6.21836 81.4974 5.69608C80.565 4.9495 79.406 4.54203 78.2109 4.54069C77.4987 4.53231 76.7929 4.67506 76.1402 4.95949C75.4875 5.24392 74.9027 5.66355 74.4245 6.1906V4.76548H73.1774ZM76.0111 13.4324C75.3625 13.0375 74.8305 12.4777 74.4696 11.8102V7.79555C74.8715 7.17217 75.4201 6.65654 76.0676 6.2937C76.715 5.93086 77.4416 5.73186 78.1838 5.71406C79.0936 5.72098 79.9737 6.03823 80.678 6.61319C81.1464 7.02017 81.5192 7.52527 81.7697 8.09252C82.0203 8.65977 82.1425 9.27522 82.1277 9.89503C82.1514 10.431 82.0664 10.9662 81.8781 11.4686C81.6897 11.9711 81.4017 12.4304 81.0314 12.819C80.6611 13.2077 80.216 13.5178 79.7228 13.7307C79.2297 13.9436 78.6986 14.0549 78.1613 14.058C77.4018 14.0432 76.6598 13.8274 76.0111 13.4324ZM103.707 15.0512L98.9036 4.72919H100.308L104.113 12.9697L107.921 4.72919H109.326L104.545 15.0512H103.707ZM118.109 14.8031C118.838 14.474 119.484 13.986 120 13.3749L119.095 12.4937C118.698 12.9861 118.193 13.3808 117.62 13.6474C117.046 13.914 116.418 14.0454 115.786 14.0312C113.404 14.0312 111.977 12.179 111.887 9.98514H120.328C120.345 9.83585 120.352 9.68573 120.351 9.53557C120.351 6.65834 118.312 4.48694 115.547 4.48694C112.612 4.48694 110.595 6.91909 110.595 9.88173C110.595 13.1051 112.886 15.2765 115.786 15.2765C116.586 15.2939 117.38 15.1322 118.109 14.8031ZM119.005 8.81177H111.954H111.936C112.342 7.02249 113.701 5.70976 115.538 5.70976C116.396 5.71209 117.224 6.02944 117.863 6.60142C118.502 7.1734 118.909 7.96008 119.005 8.81177ZM123.539 4.62195V4.94564H123.039V6.51013H122.674V4.94564H122.174V4.62195H123.539ZM125.484 4.62195L124.795 5.75036L124.106 4.62195H123.849V6.51013H124.214V5.45814L124.669 6.19993H124.921L125.376 5.45814V6.51013H125.74V4.62195H125.484Z" fill="white"/>
</svg>
