<svg width="366" height="240" viewBox="0 0 366 240" fill="none" xmlns="http://www.w3.org/2000/svg">
<g clip-path="url(#clip0_1353_5676)">
<mask id="mask0_1353_5676" style="mask-type:alpha" maskUnits="userSpaceOnUse" x="74" y="-38" width="447" height="378">
<path d="M240.061 -36.0537C239.584 -36.0537 239.05 -35.9235 238.492 -35.6569L190.836 -12.5014C188.673 -11.4475 186.918 -8.64529 186.918 -6.23985V54.7208C186.918 56.1281 187.513 57.0766 188.431 57.4114C189.348 57.7462 190.086 57.4114 190.086 57.4114C190.322 57.3432 190.563 57.2502 190.805 57.1262L238.511 33.1648C240.662 32.0861 242.404 29.2591 242.404 26.8536V-33.2019C242.404 -34.9874 241.437 -36.0537 240.055 -36.0537H240.061Z" stroke="white" stroke-width="2"/>
<path d="M129.088 -36.0537C128.611 -36.0537 128.078 -35.9235 127.52 -35.6569L79.8633 -12.5014C77.6996 -11.4475 75.9451 -8.64529 75.9451 -6.23985V54.7208C75.9451 56.1281 76.5403 57.0766 77.4578 57.4114C78.3754 57.7462 79.1131 57.4114 79.1131 57.4114C79.3487 57.3432 79.5905 57.2502 79.8323 57.1262L127.538 33.1648C129.689 32.0861 131.432 29.2591 131.432 26.8536V-33.2019C131.432 -34.9874 130.464 -36.0537 129.082 -36.0537H129.088Z" stroke="white" stroke-width="2"/>
<path d="M351.034 -36.0537C350.557 -36.0537 350.023 -35.9235 349.465 -35.6569L301.809 -12.5014C299.645 -11.4475 297.891 -8.64529 297.891 -6.23985V54.7208C297.891 56.1281 298.486 57.0766 299.404 57.4114C300.321 57.7462 301.059 57.4114 301.059 57.4114C301.295 57.3432 301.536 57.2502 301.778 57.1262L349.484 33.1648C351.635 32.0861 353.377 29.2591 353.377 26.8536V-33.2019C353.377 -34.9874 352.41 -36.0537 351.028 -36.0537H351.034Z" stroke="white" stroke-width="2"/>
<path d="M129.088 151.174C128.611 151.174 128.078 151.305 127.52 151.571L79.8633 174.727C77.6996 175.781 75.9451 178.583 75.9451 180.988V241.949C75.9451 243.356 76.5403 244.305 77.4578 244.639C78.3754 244.974 79.1131 244.639 79.1131 244.639C79.3487 244.571 79.5905 244.478 79.8323 244.354L127.538 220.393C129.689 219.314 131.432 216.487 131.432 214.082V154.026C131.432 152.241 130.464 151.174 129.082 151.174H129.088Z" stroke="white" stroke-width="2"/>
<path d="M351.034 151.174C350.557 151.174 350.023 151.305 349.465 151.571L301.809 174.727C299.645 175.781 297.891 178.583 297.891 180.988V241.949C297.891 243.356 298.486 244.305 299.404 244.639C300.321 244.974 301.059 244.639 301.059 244.639C301.295 244.571 301.536 244.478 301.778 244.354L349.484 220.393C351.635 219.314 353.377 216.487 353.377 214.082V154.026C353.377 152.241 352.41 151.174 351.028 151.174H351.034Z" stroke="white" stroke-width="2"/>
<path d="M240.061 151.174C239.584 151.174 239.05 151.305 238.492 151.571L190.836 174.727C188.673 175.781 186.918 178.583 186.918 180.988V241.949C186.918 243.356 187.513 244.305 188.431 244.639C189.348 244.974 190.086 244.639 190.086 244.639C190.322 244.571 190.563 244.478 190.805 244.354L238.511 220.393C240.662 219.314 242.404 216.487 242.404 214.082V154.026C242.404 152.241 241.437 151.174 240.055 151.174H240.061Z" stroke="white" stroke-width="2"/>
<path d="M184.575 57.5603C184.097 57.5603 183.564 57.6905 183.006 57.9571L135.35 81.1126C133.186 82.1665 131.432 84.9687 131.432 87.3742V148.335C131.432 149.742 132.027 150.691 132.944 151.025C133.862 151.36 134.6 151.025 134.6 151.025C134.835 150.957 135.077 150.864 135.319 150.74L183.025 126.779C185.176 125.7 186.918 122.873 186.918 120.468V60.4121C186.918 58.6266 185.951 57.5603 184.568 57.5603H184.575Z" stroke="white" stroke-width="2"/>
<path d="M406.52 57.5603C406.043 57.5603 405.51 57.6905 404.952 57.9571L357.296 81.1126C355.132 82.1665 353.378 84.9687 353.378 87.3742V148.335C353.378 149.742 353.973 150.691 354.89 151.025C355.808 151.36 356.545 151.025 356.545 151.025C356.781 150.957 357.023 150.864 357.265 150.74L404.971 126.779C407.122 125.7 408.864 122.873 408.864 120.468V60.4121C408.864 58.6266 407.897 57.5603 406.514 57.5603H406.52Z" stroke="white" stroke-width="2"/>
<path d="M295.547 57.5603C295.07 57.5603 294.537 57.6905 293.979 57.9571L246.323 81.1126C244.159 82.1665 242.404 84.9687 242.404 87.3742V148.335C242.404 149.742 243 150.691 243.917 151.025C244.835 151.36 245.572 151.025 245.572 151.025C245.808 150.957 246.05 150.864 246.292 150.74L293.997 126.779C296.149 125.7 297.891 122.873 297.891 120.468V60.4121C297.891 58.6266 296.924 57.5603 295.541 57.5603H295.547Z" stroke="white" stroke-width="2"/>
<path d="M133.775 -36.0886C134.252 -36.0886 134.786 -35.9584 135.344 -35.6918L183 -12.5364C185.164 -11.4824 186.918 -8.6802 186.918 -6.27476V54.6859C186.918 56.0932 186.323 57.0417 185.405 57.3765C184.488 57.7113 183.75 57.3765 183.75 57.3765C183.514 57.3083 183.273 57.2153 183.031 57.0913L135.325 33.1299C133.174 32.0512 131.432 29.2241 131.432 26.8187V-33.2368C131.432 -35.0223 132.399 -36.0886 133.781 -36.0886H133.775Z" stroke="white" stroke-width="2"/>
<path d="M355.721 -36.0886C356.198 -36.0886 356.731 -35.9584 357.289 -35.6918L404.946 -12.5364C407.109 -11.4824 408.864 -8.6802 408.864 -6.27476V54.6859C408.864 56.0932 408.269 57.0417 407.351 57.3765C406.434 57.7113 405.696 57.3765 405.696 57.3765C405.46 57.3083 405.218 57.2153 404.977 57.0913L357.271 33.1299C355.12 32.0512 353.377 29.2241 353.377 26.8187V-33.2368C353.377 -35.0223 354.345 -36.0886 355.727 -36.0886H355.721Z" stroke="white" stroke-width="2"/>
<path d="M244.748 -36.0886C245.225 -36.0886 245.759 -35.9584 246.316 -35.6918L293.973 -12.5364C296.136 -11.4824 297.891 -8.6802 297.891 -6.27476V54.6859C297.891 56.0932 297.296 57.0417 296.378 57.3765C295.461 57.7113 294.723 57.3765 294.723 57.3765C294.487 57.3083 294.246 57.2153 294.004 57.0913L246.298 33.1299C244.147 32.0512 242.405 29.2241 242.405 26.8187V-33.2368C242.405 -35.0223 243.372 -36.0886 244.754 -36.0886H244.748Z" stroke="white" stroke-width="2"/>
<path d="M244.748 151.139C245.225 151.139 245.759 151.27 246.316 151.536L293.973 174.692C296.136 175.746 297.891 178.548 297.891 180.953V241.914C297.891 243.321 297.296 244.27 296.378 244.605C295.461 244.939 294.723 244.605 294.723 244.605C294.487 244.536 294.246 244.443 294.004 244.319L246.298 220.358C244.147 219.279 242.405 216.452 242.405 214.047V153.991C242.405 152.206 243.372 151.139 244.754 151.139H244.748Z" stroke="white" stroke-width="2"/>
<path d="M133.775 151.139C134.252 151.139 134.786 151.27 135.344 151.536L183 174.692C185.164 175.746 186.918 178.548 186.918 180.953V241.914C186.918 243.321 186.323 244.27 185.405 244.605C184.488 244.939 183.75 244.605 183.75 244.605C183.514 244.536 183.273 244.443 183.031 244.319L135.325 220.358C133.174 219.279 131.432 216.452 131.432 214.047V153.991C131.432 152.206 132.399 151.139 133.781 151.139H133.775Z" stroke="white" stroke-width="2"/>
<path d="M355.721 151.139C356.198 151.139 356.731 151.27 357.289 151.536L404.946 174.692C407.109 175.746 408.864 178.548 408.864 180.953V241.914C408.864 243.321 408.269 244.27 407.351 244.605C406.434 244.939 405.696 244.605 405.696 244.605C405.46 244.536 405.218 244.443 404.977 244.319L357.271 220.358C355.12 219.279 353.377 216.452 353.377 214.047V153.991C353.377 152.206 354.345 151.139 355.727 151.139H355.721Z" stroke="white" stroke-width="2"/>
<path d="M78.2887 57.5254C78.7661 57.5254 79.2993 57.6556 79.8572 57.9222L127.514 81.0777C129.677 82.1316 131.432 84.9338 131.432 87.3393V148.3C131.432 149.707 130.837 150.656 129.919 150.991C129.001 151.325 128.264 150.991 128.264 150.991C128.028 150.922 127.786 150.829 127.545 150.705L79.8386 126.744C77.6874 125.665 75.9453 122.838 75.9453 120.433V60.3772C75.9453 58.5917 76.9124 57.5254 78.2949 57.5254H78.2887Z" stroke="white" stroke-width="2"/>
<path d="M300.235 57.5254C300.712 57.5254 301.245 57.6556 301.803 57.9222L349.459 81.0777C351.623 82.1316 353.378 84.9338 353.378 87.3393V148.3C353.378 149.707 352.782 150.656 351.865 150.991C350.947 151.325 350.21 150.991 350.21 150.991C349.974 150.922 349.732 150.829 349.49 150.705L301.784 126.744C299.633 125.665 297.891 122.838 297.891 120.433V60.3772C297.891 58.5917 298.858 57.5254 300.241 57.5254H300.235Z" stroke="white" stroke-width="2"/>
<path d="M189.261 57.5254C189.739 57.5254 190.272 57.6556 190.83 57.9222L238.486 81.0777C240.65 82.1316 242.404 84.9338 242.404 87.3393V148.3C242.404 149.707 241.809 150.656 240.892 150.991C239.974 151.325 239.236 150.991 239.236 150.991C239.001 150.922 238.759 150.829 238.517 150.705L190.811 126.744C188.66 125.665 186.918 122.838 186.918 120.433V60.3772C186.918 58.5917 187.885 57.5254 189.268 57.5254H189.261Z" stroke="white" stroke-width="2"/>
</mask>
<g mask="url(#mask0_1353_5676)">
<rect width="366" height="240" fill="url(#paint0_linear_1353_5676)"/>
</g>
</g>
<defs>
<linearGradient id="paint0_linear_1353_5676" x1="0" y1="0" x2="366" y2="240" gradientUnits="userSpaceOnUse">
<stop stop-color="#37245C"/>
<stop offset="0.468749" stop-color="#6240A3" stop-opacity="0.2"/>
<stop offset="0.713545" stop-color="#F3E0F5" stop-opacity="0.1"/>
<stop offset="1" stop-color="#6240A3" stop-opacity="0.2"/>
</linearGradient>
<clipPath id="clip0_1353_5676">
<rect width="366" height="240" fill="white"/>
</clipPath>
</defs>
</svg>
