<svg width="108" height="101" viewBox="0 0 108 101" fill="none" xmlns="http://www.w3.org/2000/svg">
<path opacity="0.2" d="M72.4451 92.803V103.199C72.4451 112.651 80.1777 120.381 89.6319 120.381C99.0861 120.381 106.819 112.651 106.819 103.199V71.1451C106.819 61.6935 99.0861 53.9629 89.6319 53.9629C80.1777 53.9629 72.4451 61.6935 72.4451 71.1451V79.3629M72.4606 92.4484V97.7497C72.4606 110.263 62.2265 120.495 49.7097 120.495C37.1929 120.495 26.9587 110.254 26.9587 97.7497V51.9367C26.9587 39.4233 37.1929 29.1919 49.7097 29.1919C62.2265 29.1919 72.4606 39.4233 72.4606 51.9367V79.4799M78.6752 79.3119C76.7212 77.9727 74.0512 78.4252 72.633 80.2863C71.2149 78.4206 68.5449 77.9727 66.5909 79.3119C64.5768 80.6928 64.0548 83.4683 65.436 85.4818L68.9652 90.6403C69.3256 91.1667 69.7782 91.587 70.291 91.901C70.3095 91.9149 70.3326 91.9241 70.3511 91.938C70.3834 91.9564 70.4203 91.9795 70.4527 91.998C70.4943 92.0211 70.5358 92.0442 70.5774 92.0673C70.5913 92.0719 70.6051 92.0811 70.6144 92.0858C71.1918 92.3767 71.8108 92.5337 72.4298 92.5614C72.4483 92.5614 72.4621 92.5614 72.4806 92.5614C72.5268 92.5614 72.5776 92.566 72.6238 92.566C72.67 92.566 72.7208 92.566 72.767 92.5614C72.7855 92.5614 72.7993 92.5614 72.8178 92.5614C73.4368 92.5337 74.0558 92.3813 74.6332 92.0858C74.6471 92.0811 74.661 92.0719 74.6702 92.0673C74.7118 92.0442 74.7533 92.0211 74.7949 91.998C74.8273 91.9795 74.8642 91.9611 74.8965 91.938C74.915 91.9241 74.9381 91.9149 74.9566 91.901C75.4693 91.587 75.9221 91.1621 76.2824 90.6403L79.8116 85.4818C81.2066 83.4683 80.6893 80.6928 78.6752 79.3119ZM52.7715 61.2954C38.5807 61.3334 26.9675 72.9151 26.8914 87.0926C26.9104 87.0926 26.9389 87.0926 26.958 87.0926C41.1583 87.0926 52.7715 75.4824 52.7715 61.2954ZM1 61.2954C15.1908 61.3334 26.804 72.9151 26.8801 87.0926C26.8611 87.0926 26.8326 87.0926 26.8136 87.0926C12.6132 87.0926 1 75.4824 1 61.2954ZM65.7549 12.6957C65.7549 19.1551 60.5171 24.3914 54.056 24.3914C47.5949 24.3914 42.3572 19.1551 42.3572 12.6957C42.3572 6.23635 47.5949 1 54.056 1C60.5171 1 65.7549 6.23635 65.7549 12.6957ZM96.6219 39.3897C96.6219 44.888 92.1634 49.3453 86.6636 49.3453C81.1638 49.3453 76.7053 44.888 76.7053 39.3897C76.7053 33.8914 81.1638 29.4341 86.6636 29.4341C92.1634 29.4341 96.6219 33.8914 96.6219 39.3897Z" stroke="#6240A3" stroke-width="2" stroke-miterlimit="10"/>
</svg>
