<svg width="1440" height="320" viewBox="0 0 1440 320" fill="none" xmlns="http://www.w3.org/2000/svg">
<path d="M1420.39 47.4436C1406.92 47.4585 1393.86 52.1021 1383.4 60.5963C1372.95 69.0906 1365.73 80.9198 1362.96 94.1021C1357.88 77.0273 1347.44 62.0456 1333.17 51.3849C1318.9 40.7242 1301.57 34.9539 1283.75 34.9318H1280.78V37.2531C1280.81 58.8624 1289.3 79.6011 1304.43 95.0322C1319.56 110.463 1340.12 119.361 1361.73 119.822V170.891C1347.41 166.092 1331.8 167.003 1318.13 173.433C1304.47 179.864 1293.82 191.318 1288.4 205.409C1279.27 198.219 1271.88 189.053 1266.81 178.599C1261.73 168.145 1259.09 156.677 1259.08 145.055V137.905C1259.03 121.002 1253.56 104.559 1243.47 90.9984C1233.38 77.4378 1219.2 67.4757 1203.02 62.5786V32.2623H1212.12C1219.32 32.2714 1226.45 30.8613 1233.11 28.1125C1239.76 25.3638 1245.81 21.3304 1250.91 16.2427C1256.01 11.155 1260.05 5.11292 1262.81 -1.53833C1265.57 -8.18961 1266.99 -15.3195 1266.99 -22.5207V-89.8388C1277.05 -91.3876 1286.74 -94.7962 1295.55 -99.8901C1307.43 -93.0032 1320.86 -89.2267 1334.59 -88.9104H1336.54C1357.93 -89.4428 1378.27 -98.3062 1393.22 -113.612C1408.17 -128.918 1416.55 -149.457 1416.58 -170.853V-295.275H1411.94V-170.853C1411.91 -151.497 1404.64 -132.853 1391.55 -118.593C1378.47 -104.333 1360.51 -95.4909 1341.23 -93.8083V-173.986C1341.25 -188.626 1345.41 -202.961 1353.22 -215.343C1361.03 -227.724 1372.18 -237.649 1385.38 -243.974L1383.39 -248.176C1373.59 -243.478 1364.82 -236.894 1357.58 -228.799C1350.34 -220.705 1344.77 -211.26 1341.18 -201.007V-297.805H1336.54V-93.5298H1335.52C1315.19 -93.8101 1295.78 -102.077 1281.49 -116.544C1267.2 -131.011 1259.18 -150.518 1259.15 -170.853V-295.275H1254.51V-170.853C1254.51 -157.367 1257.84 -144.091 1264.21 -132.202C1270.57 -120.313 1279.78 -110.179 1291 -102.699C1279.21 -96.3768 1265.99 -93.2178 1252.63 -93.5305C1239.26 -93.8432 1226.2 -97.617 1214.73 -104.483C1203.26 -111.349 1193.76 -121.073 1187.17 -132.706C1180.57 -144.338 1177.11 -157.482 1177.11 -170.853V-295.275H1172.47V-170.853C1172.5 -149.113 1181.15 -128.274 1196.53 -112.904C1211.9 -97.5337 1232.74 -88.8885 1254.48 -88.8639C1257.11 -88.8639 1259.71 -89.0264 1262.31 -89.2817V-22.5207C1262.29 -9.21838 1257 3.53491 1247.59 12.9367C1238.18 22.3385 1225.42 27.6196 1212.12 27.6196H1203.02V9.0491C1203.02 1.32269 1199.95 -6.08731 1194.49 -11.5507C1189.02 -17.0141 1181.61 -20.0833 1173.89 -20.0833C1166.16 -20.0833 1158.75 -17.0141 1153.29 -11.5507C1147.82 -6.08731 1144.75 1.32269 1144.75 9.0491V26.7375C1131.99 26.2342 1119.91 20.8146 1111.05 11.6123C1102.19 2.40994 1097.23 -9.86224 1097.21 -22.6369V-46.9177C1097.29 -58.1763 1093.05 -69.0361 1085.37 -77.2718C1077.69 -85.5074 1067.16 -90.4954 1055.92 -91.2135C1044.69 -91.9317 1033.6 -88.3258 1024.94 -81.1346C1016.28 -73.9434 1010.69 -63.7115 1009.33 -52.5354H972.791V-95.41C972.773 -113.024 965.767 -129.912 953.312 -142.367C940.857 -154.822 923.969 -161.828 906.355 -161.846H904.707V-213.333H906.378C923.989 -213.357 940.87 -220.365 953.32 -232.82C965.771 -245.274 972.773 -262.158 972.791 -279.769V-325.081H968.149V-279.769C968.13 -263.386 961.614 -247.679 950.029 -236.095C938.445 -224.51 922.738 -217.994 906.355 -217.975H904.707V-253.538H900.064V-114.259C900.083 -96.651 907.086 -79.7693 919.536 -67.3185C931.987 -54.8677 948.869 -47.8647 966.477 -47.8463H1008.86C1008.86 -47.5677 1008.86 -47.266 1008.86 -46.9875C1008.7 25.2286 1008.7 68.3819 1008.86 81.7759C976.733 62.4156 939.922 52.2052 902.409 52.2487H813.503C812.908 40.3745 807.781 29.1808 799.178 20.9749C790.575 12.769 779.151 8.17645 767.262 8.14377H728.45C716.565 8.18237 705.147 12.7777 696.549 20.983C687.95 29.1882 682.827 40.3785 682.232 52.2487H640.936V-50.2372C640.924 -62.3371 636.112 -73.938 627.556 -82.4939C619 -91.0498 607.399 -95.862 595.299 -95.8743H564.263V-335.225H427.7V-193.253C399.004 -193.884 371.693 -205.717 351.608 -226.223C331.523 -246.728 320.259 -274.279 320.223 -302.982H315.581C315.617 -273.048 327.37 -244.317 348.326 -222.941C369.281 -201.564 397.772 -189.242 427.7 -188.611V-95.8743H370.735C358.635 -95.862 347.034 -91.0498 338.478 -82.4939C329.923 -73.938 325.11 -62.3371 325.098 -50.2372V-33.8255C316.65 -33.6927 308.226 -32.8697 299.912 -31.3649V-48.4731C299.912 -60.8662 294.989 -72.7515 286.226 -81.5147C277.462 -90.2779 265.577 -95.201 253.184 -95.201C240.791 -95.201 228.905 -90.2779 220.142 -81.5147C211.379 -72.7515 206.456 -60.8662 206.456 -48.4731V25.9947C191.577 45.3824 181.607 68.0795 177.393 92.1521C171.232 57.2772 153.128 25.6328 126.186 2.64694C99.2445 -20.339 65.144 -33.2336 29.7341 -33.8255V-77.4663C46.9307 -78.0849 63.2183 -85.3448 75.1743 -97.7207C87.1302 -110.097 93.8239 -126.625 93.8488 -143.833V-199.103H148.121C165.731 -199.128 182.613 -206.136 195.063 -218.59C207.513 -231.045 214.515 -247.929 214.534 -265.539H209.891C209.873 -249.16 203.36 -233.457 191.78 -221.873C180.201 -210.289 164.5 -203.77 148.121 -203.746H93.8023V-242.906H89.1597V-203.699C76.246 -203.217 63.7518 -198.987 53.2001 -191.527C42.6484 -184.066 34.4951 -173.697 29.7341 -161.684V-242.93H25.0914V-210.431C9.12849 -211.049 -5.97616 -217.82 -17.0581 -229.326C-28.14 -240.832 -34.3393 -256.18 -34.3574 -272.155H-39C-38.9573 -254.963 -32.2589 -238.456 -20.3097 -226.095C-8.36051 -213.735 7.9109 -206.482 25.0914 -205.858V-82.1089C9.12849 -82.7266 -5.97616 -89.4976 -17.0581 -101.004C-28.14 -112.51 -34.3393 -127.858 -34.3574 -143.833H-39C-38.9753 -126.629 -32.2848 -110.104 -20.3338 -97.7285C-8.38273 -85.3533 7.89889 -78.0908 25.0914 -77.4663V89.529C20.2003 77.1305 11.6955 66.4884 0.680672 58.9837C-10.3341 51.4791 -23.3503 47.4584 -36.6787 47.4436V52.0862C-20.3019 52.1046 -4.60117 58.6185 6.97899 70.1987C18.5592 81.7788 25.073 97.4797 25.0914 113.857V332.06H29.7341V272.681C68.4807 273.326 105.425 289.158 132.616 316.769C159.806 344.381 175.069 381.564 175.118 420.316V503.071H179.761V420.316C179.81 381.564 195.072 344.381 222.263 316.769C249.453 289.158 286.398 273.326 325.145 272.681V332.014H329.787V272.611H475.171V503.071H479.814V272.611H502.632C499.915 285.869 500.182 299.566 503.414 312.708C506.646 325.85 512.761 338.109 521.316 348.595C529.872 359.082 540.653 367.533 552.879 373.337C565.105 379.141 578.469 382.152 592.003 382.152C605.536 382.152 618.901 379.141 631.126 373.337C643.352 367.533 654.134 359.082 662.689 348.595C671.245 338.109 677.36 325.85 680.591 312.708C683.823 299.566 684.09 285.869 681.373 272.611H880.867C887.172 272.605 893.216 270.099 897.677 265.644C902.137 261.188 904.648 255.145 904.661 248.841V56.8681C957.913 57.5392 1008.76 79.1484 1046.2 117.021C1083.64 154.893 1104.67 205.984 1104.73 259.24V267.504C1098.71 270.218 1093.05 273.656 1087.86 277.741C1059.1 251.172 1021.42 236.368 982.262 236.259H980.08V331.898H984.723V240.832C999.579 240.832 1085.65 245.08 1124.19 340.277L1128.51 338.536C1120.09 317.022 1107.39 297.444 1091.18 280.991C1097.26 276.243 1104.01 272.425 1111.21 269.663C1129.97 262.519 1150.61 262.019 1169.69 268.247C1218.08 283.127 1223.7 335.565 1223.75 336.192L1228.39 335.751C1228.39 335.194 1222.47 279.621 1171.08 263.79C1150.93 257.225 1129.13 257.831 1109.38 265.508V259.217C1109.4 231.169 1103.7 203.412 1092.62 177.646V132.775C1092.62 100.509 1119.61 73.7209 1144.71 68.6604V75.2298V75.6476C1148.28 95.7957 1158.83 114.042 1174.52 127.181C1190.2 140.32 1210.02 147.511 1230.48 147.492H1254.37C1254.73 159.695 1257.82 171.66 1263.42 182.507C1269.02 193.355 1276.99 202.807 1286.73 210.168C1285.17 215.515 1284.39 221.057 1284.4 226.626V332.106H1289.05V226.533C1289.05 212.207 1294.74 198.467 1304.87 188.337C1315 178.207 1328.74 172.516 1343.06 172.516C1357.39 172.516 1371.13 178.207 1381.26 188.337C1391.39 198.467 1397.08 212.207 1397.08 226.533V332.014H1401.72V226.533C1401.71 215.086 1398.36 203.892 1392.07 194.327C1385.78 184.763 1376.83 177.246 1366.32 172.702V106.103C1366.32 91.7771 1372.01 78.0377 1382.14 67.9075C1392.27 57.7774 1406.01 52.0862 1420.34 52.0862C1434.67 52.0862 1448.41 57.7774 1458.54 67.9075C1468.67 78.0377 1474.36 91.7771 1474.36 106.103V174.094H1479V106.103C1478.98 90.5594 1472.8 75.6568 1461.82 64.6613C1450.83 53.6658 1435.93 47.4743 1420.39 47.4436ZM904.707 -114.306V-157.319H906.378C922.777 -157.295 938.496 -150.76 950.078 -139.151C961.661 -127.542 968.161 -111.809 968.149 -95.41V-52.4193H966.477C950.08 -52.4377 934.362 -58.9675 922.778 -70.5728C911.195 -82.178 904.695 -97.9086 904.707 -114.306ZM686.666 56.845H900.041V199.397H749.922C733.169 199.385 717.104 192.732 705.248 180.897C693.391 169.062 686.709 153.01 686.666 136.257V56.845ZM728.45 12.7401H767.308C777.967 12.771 788.211 16.8741 795.944 24.2101C803.677 31.546 808.314 41.5599 808.906 52.2024H686.828C687.438 41.5683 692.086 31.5683 699.822 24.2465C707.558 16.9246 717.798 12.8336 728.45 12.8096V12.7401ZM432.343 -330.582H559.62V-213.449H527.888V-208.806H559.62V-167.371H527.888V-162.728H559.62V-95.8743H432.343V-330.582ZM432.343 -91.2317H559.62V-4.87878C559.302 11.7888 552.457 27.6663 540.557 39.3411C528.658 51.0159 512.652 57.5561 495.982 57.5561C479.311 57.5561 463.306 51.0159 451.406 39.3411C439.506 27.6663 432.661 11.7888 432.343 -4.87878V-91.2317ZM211.098 -48.4731C211.098 -59.6349 215.532 -70.3394 223.425 -78.232C231.317 -86.1245 242.022 -90.5584 253.184 -90.5584C264.346 -90.5584 275.05 -86.1245 282.943 -78.232C290.835 -70.3394 295.269 -59.6349 295.269 -48.4731V-30.4132C262.392 -23.28 232.798 -5.47116 211.098 20.2379V-48.4731ZM325.098 -29.1829V118.94C291.606 119.483 259.224 131.033 232.949 151.808C206.674 172.583 187.967 201.428 179.714 233.892V118.453C179.764 79.7007 195.026 42.5172 222.216 14.9057C249.407 -12.7059 286.351 -28.5379 325.098 -29.1829ZM175.072 118.453V233.892C167.716 205 152.067 178.893 130.053 158.788C108.038 138.684 80.6216 125.461 51.183 120.751C68.595 116.081 83.9825 105.802 94.9641 91.5052C105.946 77.2086 111.909 59.691 111.932 41.6635V39.3422H106.895C89.9578 39.3784 73.4476 44.6573 59.6316 54.454C45.8157 64.2507 35.3717 78.0846 29.7341 94.0556V-29.1829C68.4726 -28.5259 105.405 -12.6886 132.586 14.9217C159.766 42.532 175.022 79.7086 175.072 118.453ZM29.7341 118.87C30.3607 98.8147 38.7615 79.7884 53.1607 65.8138C67.5599 51.8391 86.829 44.0112 106.895 43.9849H107.243C106.616 64.0406 98.2152 83.0669 83.816 97.0416C69.4168 111.016 50.1478 118.844 30.0823 118.87H29.7341ZM89.1597 -199.15V-143.926C89.1658 -127.938 82.9805 -112.57 71.901 -101.045C60.8215 -89.5196 45.709 -82.7331 29.7341 -82.1089V-137.333C29.7576 -153.302 35.9556 -168.644 47.0314 -180.148C58.1073 -191.652 73.2027 -198.428 89.1597 -199.057V-199.15ZM29.7341 268.038V123.583C68.4807 124.228 105.425 140.06 132.616 167.671C159.806 195.283 175.069 232.466 175.118 271.218V382.99C166.866 350.526 148.158 321.681 121.883 300.906C95.6079 280.131 63.2258 268.581 29.7341 268.038ZM179.761 382.99V271.218C179.81 232.466 195.072 195.283 222.263 167.671C249.453 140.06 286.398 124.228 325.145 123.583V268.038C291.645 268.57 259.252 280.116 232.967 300.892C206.683 321.668 187.969 350.518 179.714 382.99H179.761ZM329.787 123.583C367.964 124.226 404.411 139.617 431.495 166.532C458.578 193.446 474.196 229.796 475.078 267.968H329.741L329.787 123.583ZM479.721 267.968C478.838 228.565 462.73 191.034 434.776 163.249C406.823 135.465 369.195 119.584 329.787 118.94V-50.2372C329.799 -61.0978 334.116 -71.5107 341.791 -79.1947C349.467 -86.8786 359.875 -91.2071 370.735 -91.2317H427.7V-4.87878C428.03 13.0126 435.369 30.0598 448.138 42.5958C460.908 55.1319 478.087 62.1553 495.982 62.1553C513.876 62.1553 531.056 55.1319 543.825 42.5958C556.594 30.0598 563.933 13.0126 564.263 -4.87878V-91.2317H595.299C606.168 -91.2194 616.588 -86.8964 624.273 -79.2111C631.958 -71.5258 636.281 -61.1058 636.293 -50.2372V52.2024H635.597C623.417 52.2147 611.74 57.0586 603.127 65.6711C594.514 74.2836 589.671 85.9612 589.658 98.1411V123.676C585.724 115.242 579.469 108.104 571.625 103.097C563.781 98.0895 554.673 95.4205 545.368 95.402H543.046V127.668C543.091 140.218 547.952 152.272 556.625 161.343C565.298 170.414 577.123 175.809 589.658 176.416V199.443C569.836 199.973 550.724 206.935 535.205 219.279C519.687 231.624 508.605 248.68 503.63 267.876L479.721 267.968ZM589.728 171.912C578.4 171.307 567.735 166.382 559.929 158.152C552.122 149.922 547.766 139.012 547.758 127.668V100.068C559.062 100.672 569.707 105.577 577.51 113.778C585.313 121.978 589.685 132.853 589.728 144.173V171.912ZM636.34 56.845V79.7564C636.323 91.0729 631.958 101.95 624.146 110.138C616.334 118.326 605.674 123.197 594.37 123.745V98.2107C594.364 87.2621 598.701 76.7581 606.43 69.0032C614.159 61.2482 624.648 56.8758 635.597 56.845H636.34ZM678.634 290.717C678.634 313.681 669.512 335.704 653.274 351.942C637.036 368.18 615.013 377.302 592.049 377.302C569.085 377.302 547.062 368.18 530.824 351.942C514.587 335.704 505.464 313.681 505.464 290.717C505.469 284.632 506.107 278.564 507.368 272.611H555.674C558.981 272.623 562.148 273.944 564.483 276.284C566.819 278.624 568.134 281.793 568.14 285.1C568.139 289.175 567.067 293.178 565.029 296.706L559.69 305.992C555.907 312.541 553.914 319.97 553.91 327.533V332.176H558.553V327.533C558.546 320.784 560.324 314.153 563.706 308.313L569.045 299.028C571.502 294.798 572.792 289.991 572.782 285.1C572.776 280.562 570.972 276.212 567.766 273.001C564.56 269.79 560.212 267.981 555.674 267.968H508.459C513.37 250.029 523.919 234.144 538.548 222.658C553.178 211.172 571.112 204.693 589.705 204.179V288.628L577.564 306.177C572.344 313.773 569.552 322.774 569.556 331.99H574.198C574.181 323.701 576.691 315.603 581.394 308.777L591.956 293.387L602.518 308.777C607.212 315.608 609.721 323.702 609.714 331.99H614.357C614.374 322.779 611.598 313.779 606.395 306.177L594.324 288.605V204.179C612.917 204.693 630.851 211.172 645.48 222.658C660.109 234.144 670.658 250.029 675.57 267.968H628.03C623.49 267.975 619.139 269.782 615.931 272.994C612.723 276.206 610.921 280.56 610.921 285.1C610.916 289.988 612.197 294.791 614.635 299.028L619.998 308.313C623.369 314.158 625.146 320.786 625.151 327.533V332.176H629.794V327.533C629.79 319.97 627.797 312.541 624.014 305.992L618.651 296.706C616.622 293.175 615.557 289.172 615.564 285.1C615.57 281.793 616.885 278.624 619.22 276.284C621.556 273.944 624.723 272.623 628.03 272.611H676.777C678.018 278.566 678.625 284.635 678.588 290.717H678.634ZM880.96 267.968H680.398C675.424 248.773 664.342 231.716 648.823 219.372C633.305 207.028 614.193 200.066 594.37 199.536V128.388C606.905 127.838 618.746 122.477 627.428 113.418C636.11 104.36 640.965 92.3033 640.983 79.7564V56.845H682.023V136.257C682.072 154.239 689.245 171.469 701.972 184.173C714.698 196.878 731.94 204.021 749.922 204.039H900.064V248.841C900.058 253.916 898.038 258.781 894.447 262.368C890.856 265.954 885.989 267.968 880.914 267.968H880.96ZM1088.02 132.775V167.595C1071.2 133.669 1045.44 104.971 1013.53 84.5846C1013.3 77.1332 1013.27 29.8249 1013.53 -47.0802C1013.53 -57.5709 1017.7 -67.632 1025.12 -75.0501C1032.53 -82.4681 1042.59 -86.6354 1053.09 -86.6354C1063.58 -86.6354 1073.64 -82.4681 1081.06 -75.0501C1088.47 -67.632 1092.64 -57.5709 1092.64 -47.0802V-22.7529C1092.66 -8.74298 1098.11 4.71432 1107.84 14.7946C1117.57 24.8748 1130.82 30.7944 1144.82 31.3106V63.809C1117.06 68.9623 1088.02 97.259 1088.02 132.775ZM1230.57 142.85C1211.22 142.887 1192.47 136.11 1177.62 123.708C1162.76 111.305 1152.75 94.0688 1149.33 75.0208V9.0491C1149.33 2.55399 1151.91 -3.67505 1156.5 -8.26779C1161.09 -12.8605 1167.32 -15.4407 1173.82 -15.4407C1180.31 -15.4407 1186.54 -12.8605 1191.13 -8.26779C1195.73 -3.67505 1198.31 2.55399 1198.31 9.0491V66.3159L1200 66.8034C1215.6 71.1444 1229.35 80.4624 1239.17 93.3394C1248.98 106.216 1254.32 121.947 1254.37 138.137V142.966H1230.5L1230.57 142.85ZM1285.57 39.5745C1305.53 40.04 1324.56 48.1398 1338.73 62.2076C1352.91 76.2753 1361.16 95.241 1361.77 115.203C1341.81 114.737 1322.78 106.637 1308.6 92.5697C1294.43 78.5019 1286.18 59.5362 1285.57 39.5745Z" fill="#465486"/>
</svg>
