<svg width="414" height="160" viewBox="0 0 414 160" fill="none" xmlns="http://www.w3.org/2000/svg">
<g clip-path="url(#clip0)">
<rect width="414" height="160" fill="#F2F4FA"/>
<path d="M202.781 39.9092C207.985 39.9021 212.973 37.8319 216.652 34.1525C220.332 30.4732 222.402 25.4849 222.409 20.2815V-50H183.147V20.2815C183.154 25.4861 185.225 30.4753 188.906 34.1549C192.587 37.8344 197.577 39.9039 202.781 39.9092ZM184.482 -48.6652H221.074V4.57817H211.951V5.91293H221.074V17.8256H211.951V19.1604H221.074V20.2682C220.983 25.0601 219.015 29.6249 215.593 32.9814C212.172 36.3379 207.571 38.2183 202.778 38.2183C197.985 38.2183 193.384 36.3379 189.962 32.9814C186.541 29.6249 184.573 25.0601 184.482 20.2682V-48.6652Z" fill="#465486"/>
<path d="M72.7751 30.4658C74.3687 30.4737 75.9287 30.0084 77.2576 29.1288C78.5864 28.2493 79.6242 26.995 80.2395 25.5251C80.8549 24.0551 81.02 22.4356 80.714 20.8717C80.408 19.3078 79.6446 17.8699 78.5206 16.7403C77.3966 15.6107 75.9625 14.8401 74.4002 14.5263C72.8378 14.2125 71.2175 14.3695 69.7444 14.9775C68.2714 15.5855 67.0121 16.6171 66.1259 17.9415C65.2397 19.2659 64.7666 20.8236 64.7666 22.4172C64.7683 24.5443 65.6114 26.5845 67.1118 28.0923C68.6121 29.6002 70.648 30.4534 72.7751 30.4658ZM72.7751 15.71C74.1064 15.7021 75.4099 16.0901 76.5201 16.8248C77.6303 17.5595 78.4971 18.6076 79.0102 19.836C79.5233 21.0644 79.6596 22.4177 79.4018 23.7238C79.144 25.0298 78.5038 26.2298 77.5625 27.1711C76.6211 28.1125 75.4211 28.7527 74.1151 29.0105C72.809 29.2683 71.4558 29.1319 70.2274 28.6188C68.999 28.1057 67.9508 27.239 67.2162 26.1288C66.4815 25.0186 66.0934 23.7151 66.1014 22.3838C66.1136 20.6176 66.8207 18.9272 68.0696 17.6783C69.3185 16.4293 71.0089 15.7223 72.7751 15.71Z" fill="#465486"/>
<path d="M302.874 31.32C304.464 31.3187 306.018 30.8459 307.34 29.9614C308.662 29.077 309.691 27.8206 310.299 26.351C310.907 24.8814 311.065 23.2647 310.754 21.7051C310.443 20.1456 309.676 18.7133 308.551 17.5892C307.427 16.4652 305.994 15.7 304.434 15.3902C302.874 15.0805 301.257 15.2401 299.788 15.849C298.319 16.4579 297.064 17.4886 296.18 18.811C295.297 20.1333 294.825 21.6878 294.825 23.2781C294.827 25.4115 295.676 27.457 297.185 28.965C298.694 30.4729 300.741 31.32 302.874 31.32ZM302.874 16.571C304.202 16.5723 305.499 16.9676 306.602 17.7069C307.705 18.4462 308.563 19.4961 309.069 20.7238C309.575 21.9514 309.705 23.3015 309.442 24.603C309.18 25.9045 308.537 27.0989 307.596 28.0349C306.654 28.9709 305.456 29.6064 304.153 29.8609C302.85 30.1154 301.5 29.9774 300.276 29.4644C299.051 28.9514 298.006 28.0866 297.274 26.9794C296.541 25.8722 296.154 24.5724 296.16 23.2447C296.171 21.4711 296.883 19.7737 298.141 18.5232C299.399 17.2728 301.1 16.5709 302.874 16.571Z" fill="#465486"/>
<path d="M337.371 54.4847C338.964 54.4926 340.524 54.0273 341.853 53.1478C343.182 52.2682 344.22 51.014 344.835 49.544C345.451 48.0741 345.616 46.4545 345.31 44.8906C345.004 43.3267 344.24 41.8888 343.116 40.7592C341.992 39.6296 340.558 38.8591 338.996 38.5452C337.434 38.2314 335.813 38.3885 334.34 38.9964C332.867 39.6044 331.608 40.636 330.722 41.9604C329.835 43.2849 329.362 44.8425 329.362 46.4361C329.364 48.5633 330.207 50.6034 331.707 52.1113C333.208 53.6191 335.244 54.4723 337.371 54.4847ZM337.371 39.729C338.702 39.721 340.006 40.1091 341.116 40.8438C342.226 41.5784 343.093 42.6265 343.606 43.8549C344.119 45.0834 344.255 46.4366 343.998 47.7427C343.74 49.0487 343.099 50.2487 342.158 51.19C341.217 52.1314 340.017 52.7717 338.711 53.0294C337.405 53.2872 336.051 53.1508 334.823 52.6377C333.595 52.1246 332.547 51.2579 331.812 50.1477C331.077 49.0375 330.689 47.734 330.697 46.4027C330.709 44.6365 331.416 42.9461 332.665 41.6972C333.914 40.4482 335.605 39.7412 337.371 39.729Z" fill="#465486"/>
<path d="M408.573 79.5847C404.701 79.589 400.947 80.924 397.941 83.3661C394.935 85.8082 392.86 89.2091 392.063 92.999C390.604 88.09 387.6 83.7828 383.498 80.7178C379.395 77.6529 374.413 75.9939 369.292 75.9876H368.437V76.655C368.446 82.8676 370.887 88.83 375.236 93.2665C379.585 97.7029 385.498 100.261 391.709 100.394V115.076C387.593 113.696 383.103 113.958 379.176 115.807C375.248 117.656 372.186 120.949 370.626 125C368.001 122.933 365.879 120.297 364.419 117.292C362.959 114.287 362.199 110.989 362.197 107.648V105.592C362.184 100.733 360.611 96.0054 357.71 92.1067C354.808 88.2081 350.732 85.3439 346.08 83.936V75.2201H348.696C350.767 75.2227 352.817 74.8173 354.731 74.027C356.644 73.2368 358.383 72.0772 359.849 70.6145C361.314 69.1518 362.476 67.4146 363.27 65.5024C364.063 63.5902 364.472 61.5403 364.473 59.47V40.116C367.365 39.6708 370.149 38.6908 372.682 37.2263C376.098 39.2063 379.959 40.292 383.907 40.383H384.468C390.617 40.2299 396.464 37.6817 400.762 33.2812C405.06 28.8807 407.47 22.9759 407.479 16.8245V-18.9469H406.144V16.8245C406.137 22.3892 404.046 27.7493 400.284 31.8491C396.521 35.9489 391.359 38.4911 385.816 38.9748V15.9236C385.823 11.7148 387.017 7.59333 389.263 4.03363C391.509 0.473936 394.714 -2.37937 398.509 -4.19787L397.935 -5.40583C395.12 -4.05535 392.599 -2.16223 390.517 0.164928C388.435 2.49209 386.833 5.20749 385.803 8.1553V-19.6744H384.468V39.0549H384.174C378.329 38.9743 372.749 36.5977 368.641 32.4383C364.533 28.279 362.226 22.6706 362.217 16.8245V-18.9469H360.883V16.8245C360.884 20.7017 361.842 24.5186 363.672 27.9366C365.502 31.3547 368.148 34.2682 371.374 36.4187C367.987 38.2364 364.186 39.1446 360.343 39.0547C356.5 38.9648 352.746 37.8798 349.447 35.9058C346.148 33.9317 343.418 31.1361 341.523 27.7917C339.627 24.4474 338.631 20.6687 338.632 16.8245V-18.9469H337.298V16.8245C337.306 23.0746 339.794 29.0661 344.214 33.4849C348.634 37.9037 354.626 40.3893 360.876 40.3963C361.63 40.3963 362.378 40.3496 363.125 40.2762V59.47C363.121 63.2944 361.6 66.961 358.894 69.664C356.189 72.367 352.521 73.8853 348.696 73.8853H346.08V68.5463C346.08 66.325 345.198 64.1946 343.627 62.6239C342.056 61.0531 339.926 60.1707 337.705 60.1707C335.483 60.1707 333.353 61.0531 331.782 62.6239C330.211 64.1946 329.329 66.325 329.329 68.5463V73.6317C325.659 73.487 322.187 71.9289 319.64 69.2832C317.093 66.6376 315.667 63.1093 315.661 59.4366V52.4558C315.682 49.219 314.464 46.0968 312.257 43.729C310.049 41.3613 307.02 39.9273 303.79 39.7208C300.56 39.5143 297.373 40.551 294.882 42.6185C292.392 44.686 290.786 47.6276 290.394 50.8408H279.89V38.5143C279.884 33.4502 277.87 28.595 274.289 25.0142C270.709 21.4333 265.853 19.4193 260.789 19.414H260.315V4.61152H260.796C265.859 4.60445 270.712 2.58963 274.292 -0.991047C277.871 -4.57172 279.884 -9.42588 279.89 -14.4888V-27.5161H278.555V-14.4888C278.55 -9.77873 276.676 -5.26307 273.346 -1.93252C270.015 1.39803 265.499 3.27147 260.789 3.27676H260.315V-6.94747H258.981V33.0952C258.986 38.1575 260.999 43.011 264.579 46.5906C268.159 50.1702 273.012 52.1836 278.074 52.1889H290.261C290.261 52.269 290.261 52.3557 290.261 52.4358C290.214 73.1979 290.214 85.6045 290.261 89.4553C281.023 83.8892 270.44 80.9537 259.655 80.9662H234.094C233.923 77.5524 232.449 74.3342 229.976 71.975C227.502 69.6158 224.218 68.2954 220.8 68.286H209.642C206.225 68.2971 202.942 69.6183 200.47 71.9773C197.998 74.3363 196.525 77.5535 196.354 80.9662H184.481V51.5015C184.478 48.0228 183.094 44.6875 180.635 42.2277C178.175 39.7679 174.839 38.3844 171.361 38.3808H162.438V-30.4325H123.176V10.3843C114.926 10.203 107.074 6.80099 101.3 0.905626C95.5252 -4.98973 92.2867 -12.9104 92.2765 -21.1626H90.9417C90.952 -12.5565 94.3312 -4.2964 100.356 1.84926C106.381 7.99492 114.572 11.5377 123.176 11.7191V38.3808H106.799C103.32 38.3844 99.9846 39.7679 97.5248 42.2277C95.065 44.6875 93.6815 48.0228 93.6779 51.5015V56.2199C91.249 56.258 88.8273 56.4946 86.4369 56.9273V52.0087C86.4369 48.4457 85.0215 45.0286 82.5021 42.5092C79.9827 39.9898 76.5656 38.5744 73.0026 38.5744C69.4396 38.5744 66.0225 39.9898 63.5031 42.5092C60.9837 45.0286 59.5683 48.4457 59.5683 52.0087V73.4182C55.2908 78.9921 52.4241 85.5176 51.2127 92.4384C49.4415 82.4119 44.2366 73.3141 36.4908 66.7057C28.7451 60.0972 18.9412 56.39 8.7608 56.2199V43.6731C13.7048 43.4953 18.3875 41.408 21.8249 37.85C25.2622 34.2919 27.1866 29.54 27.1938 24.5928V8.70255H42.7971C47.86 8.69548 52.7135 6.68065 56.2929 3.09998C59.8723 -0.48069 61.8854 -5.33485 61.8907 -10.3978H60.556C60.5507 -5.68885 58.6782 -1.17421 55.3491 2.15615C52.02 5.4865 47.506 7.36073 42.7971 7.36779H27.1804V-3.89087H25.8457V7.38111C22.133 7.51993 18.5409 8.73591 15.5073 10.8808C12.4737 13.0256 10.1296 16.0067 8.7608 19.4607V-3.89755H7.42605V5.44574C2.8367 5.26817 -1.50589 3.3215 -4.69195 0.0135231C-7.87801 -3.29445 -9.6603 -7.70707 -9.66549 -12.2999H-11.0002C-10.988 -7.3572 -9.06217 -2.61131 -5.62678 0.942287C-2.19139 4.49588 2.48664 6.58105 7.42605 6.76046V42.3384C2.8367 42.1608 -1.50589 40.2141 -4.69195 36.9062C-7.87801 33.5982 -9.6603 29.1856 -9.66549 24.5928H-11.0002C-10.9931 29.5389 -9.06963 34.2899 -5.63371 37.8477C-2.19778 41.4056 2.48318 43.4936 7.42605 43.6731V91.6843C6.01986 88.1197 3.57471 85.0601 0.407948 82.9025C-2.75881 80.7449 -6.50096 79.589 -10.3329 79.5847V80.9195C-5.62453 80.9248 -1.11058 82.7975 2.21872 86.1268C5.54801 89.4561 7.42075 93.9701 7.42605 98.6784V161.412H8.7608V144.34C19.9005 144.526 30.522 149.078 38.3393 157.016C46.1565 164.954 50.5445 175.644 50.5587 186.786V210.578H51.8934V186.786C51.9076 175.644 56.2956 164.954 64.1128 157.016C71.9301 149.078 82.5516 144.526 93.6913 144.34V161.399H95.0261V144.32H136.824V210.578H138.159V144.32H144.719C143.938 148.132 144.015 152.07 144.944 155.848C145.873 159.627 147.631 163.151 150.091 166.166C152.55 169.181 155.65 171.61 159.165 173.279C162.68 174.948 166.522 175.813 170.413 175.813C174.304 175.813 178.146 174.948 181.661 173.279C185.176 171.61 188.276 169.181 190.735 166.166C193.195 163.151 194.953 159.627 195.882 155.848C196.811 152.07 196.888 148.132 196.107 144.32H253.462C255.274 144.319 257.012 143.598 258.294 142.317C259.577 141.036 260.299 139.299 260.302 137.486V82.2943C275.612 82.4872 290.231 88.6999 300.995 99.5882C311.76 110.477 317.805 125.165 317.823 140.476V142.852C316.093 143.632 314.463 144.621 312.972 145.795C304.704 138.157 293.869 133.9 282.613 133.869H281.985V161.365H283.32V135.184C287.591 135.184 312.338 136.405 323.416 163.774L324.657 163.274C322.239 157.089 318.588 151.46 313.926 146.73C315.674 145.364 317.615 144.267 319.685 143.473C325.078 141.419 331.011 141.275 336.497 143.066C350.412 147.344 352.027 162.42 352.04 162.6L353.375 162.473C353.375 162.313 351.673 146.336 336.897 141.784C331.104 139.897 324.837 140.071 319.158 142.278V140.47C319.165 132.406 317.526 124.426 314.34 117.018V104.118C314.34 94.841 322.101 87.1395 329.316 85.6846V87.5733V87.6934C330.342 93.486 333.376 98.7317 337.886 102.509C342.396 106.287 348.093 108.354 353.975 108.349H360.843C360.947 111.857 361.836 115.297 363.447 118.416C365.057 121.534 367.346 124.252 370.146 126.368C369.699 127.905 369.474 129.499 369.478 131.1V161.425H370.813V131.073C370.813 126.954 372.449 123.004 375.362 120.092C378.274 117.179 382.224 115.543 386.343 115.543C390.462 115.543 394.412 117.179 397.324 120.092C400.237 123.004 401.873 126.954 401.873 131.073V161.399H403.208V131.073C403.205 127.782 402.24 124.564 400.432 121.814C398.624 119.064 396.051 116.903 393.03 115.596V96.4494C393.03 92.3306 394.666 88.3805 397.579 85.4681C400.491 82.5557 404.441 80.9195 408.56 80.9195C412.679 80.9195 416.629 82.5557 419.541 85.4681C422.454 88.3805 424.09 92.3306 424.09 96.4494V115.997H425.425V96.4494C425.419 91.9805 423.643 87.696 420.484 84.5348C417.325 81.3736 413.042 79.5936 408.573 79.5847ZM260.315 33.0818V20.7154H260.796C265.511 20.7224 270.03 22.6012 273.36 25.9388C276.69 29.2763 278.559 33.7996 278.555 38.5143V50.8742H278.074C273.36 50.8689 268.841 48.9915 265.511 45.655C262.181 42.3185 260.312 37.796 260.315 33.0818ZM197.629 82.2876H258.974V123.271H215.815C210.998 123.268 206.38 121.355 202.971 117.953C199.562 114.55 197.641 109.935 197.629 105.119V82.2876ZM209.642 69.6075H220.813C223.878 69.6163 226.823 70.796 229.046 72.9051C231.269 75.0142 232.603 77.8932 232.773 80.9529H197.675C197.851 77.8956 199.187 75.0206 201.411 72.9156C203.635 70.8105 206.579 69.6343 209.642 69.6275V69.6075ZM124.511 -29.0977H161.103V4.57816H151.98V5.91291H161.103V17.8256H151.98V19.1604H161.103V38.3808H124.511V-29.0977ZM124.511 39.7156H161.103V64.542C161.012 69.334 159.044 73.8987 155.623 77.2553C152.201 80.6118 147.6 82.4921 142.807 82.4921C138.014 82.4921 133.413 80.6118 129.991 77.2553C126.57 73.8987 124.602 69.334 124.511 64.542V39.7156ZM60.903 52.0087C60.903 48.7997 62.1778 45.7221 64.4469 43.453C66.716 41.1839 69.7936 39.9091 73.0026 39.9091C76.2116 39.9091 79.2892 41.1839 81.5583 43.453C83.8274 45.7221 85.1022 48.7997 85.1022 52.0087V57.2009C75.6499 59.2517 67.1415 64.3717 60.903 71.7631V52.0087ZM93.6779 57.5546V100.14C84.0491 100.296 74.7392 103.617 67.1851 109.589C59.631 115.562 54.2526 123.855 51.8801 133.189V99.9998C51.8943 88.8586 56.2822 78.1684 64.0995 70.2301C71.9167 62.2917 82.5383 57.74 93.6779 57.5546ZM50.5453 99.9998V133.189C48.4307 124.882 43.9315 117.376 37.6024 111.596C31.2733 105.816 23.391 102.015 14.9274 100.661C19.9333 99.3179 24.3572 96.3627 27.5144 92.2524C30.6716 88.1422 32.3861 83.1059 32.3926 77.923V77.2556H30.9444C26.0751 77.266 21.3284 78.7837 17.3563 81.6002C13.3843 84.4168 10.3816 88.394 8.7608 92.9857V57.5546C19.8981 57.7435 30.5163 62.2967 38.3307 70.2347C46.1451 78.1726 50.5312 88.8609 50.5453 99.9998ZM8.7608 100.12C8.94097 94.3539 11.3562 88.8839 15.496 84.8661C19.6357 80.8484 25.1756 78.5979 30.9444 78.5903H31.0446C30.8644 84.3564 28.4491 89.8264 24.3094 93.8441C20.1696 97.8619 14.6298 100.112 8.8609 100.12H8.7608ZM25.8457 8.68919V24.5661C25.8474 29.1624 24.0691 33.5808 20.8838 36.8943C17.6984 40.2078 13.3536 42.1589 8.7608 42.3384V26.4615C8.76757 21.8703 10.5495 17.4596 13.7338 14.1522C16.9181 10.8447 21.258 8.89676 25.8457 8.71587V8.68919ZM8.7608 143.006V101.475C19.9005 101.66 30.522 106.212 38.3393 114.15C46.1565 122.089 50.5445 132.779 50.5587 143.92V176.054C48.1861 166.721 42.8077 158.428 35.2536 152.455C27.6995 146.482 18.3897 143.162 8.7608 143.006ZM51.8934 176.054V143.92C51.9076 132.779 56.2956 122.089 64.1128 114.15C71.9301 106.212 82.5516 101.66 93.6913 101.475V143.006C84.0601 143.159 74.7472 146.478 67.1904 152.451C59.6336 158.424 54.2532 166.719 51.8801 176.054H51.8934ZM95.0261 101.475C106.002 101.66 116.48 106.085 124.267 113.822C132.053 121.56 136.544 132.011 136.797 142.986H95.0127L95.0261 101.475ZM138.132 142.986C137.878 131.657 133.247 120.867 125.21 112.879C117.174 104.891 106.356 100.325 95.0261 100.14V51.5015C95.0296 48.3791 96.2706 45.3854 98.4772 43.1762C100.684 40.9671 103.676 39.7226 106.799 39.7156H123.176V64.542C123.271 69.6858 125.381 74.5869 129.052 78.191C132.723 81.7951 137.662 83.8143 142.807 83.8143C147.952 83.8143 152.891 81.7951 156.562 78.191C160.233 74.5869 162.343 69.6858 162.438 64.542V39.7156H171.361C174.485 39.7191 177.481 40.962 179.691 43.1715C181.9 45.381 183.143 48.3768 183.147 51.5015V80.9529H182.946C179.445 80.9564 176.087 82.349 173.611 84.8251C171.135 87.3012 169.743 90.6585 169.739 94.1603V101.501C168.608 99.0768 166.81 97.0246 164.555 95.585C162.299 94.1454 159.681 93.3781 157.005 93.3728H156.338V102.649C156.351 106.257 157.748 109.723 160.242 112.331C162.736 114.939 166.135 116.49 169.739 116.664V123.285C164.04 123.437 158.545 125.438 154.084 128.987C149.622 132.536 146.436 137.44 145.006 142.959L138.132 142.986ZM169.759 115.37C166.502 115.195 163.436 113.78 161.192 111.413C158.947 109.047 157.695 105.911 157.693 102.649V94.7142C160.943 94.888 164.003 96.2982 166.246 98.6558C168.49 101.013 169.747 104.14 169.759 107.394V115.37ZM183.16 82.2876V88.8746C183.155 92.1282 181.9 95.2553 179.654 97.6093C177.408 99.9633 174.343 101.364 171.094 101.521V94.1803C171.092 91.0325 172.339 88.0126 174.561 85.7831C176.783 83.5536 179.799 82.2965 182.946 82.2876H183.16ZM195.32 149.526C195.32 156.128 192.697 162.46 188.029 167.128C183.36 171.796 177.028 174.419 170.426 174.419C163.824 174.419 157.493 171.796 152.824 167.128C148.156 162.46 145.533 156.128 145.533 149.526C145.535 147.776 145.718 146.032 146.08 144.32H159.969C160.919 144.324 161.83 144.704 162.501 145.376C163.173 146.049 163.551 146.96 163.552 147.911C163.552 149.082 163.244 150.233 162.658 151.248L161.123 153.917C160.035 155.8 159.462 157.936 159.461 160.111V161.445H160.796V160.111C160.794 158.17 161.305 156.264 162.278 154.585L163.813 151.915C164.519 150.699 164.89 149.317 164.887 147.911C164.885 146.606 164.367 145.356 163.445 144.433C162.523 143.509 161.273 142.989 159.969 142.986H146.394C147.806 137.828 150.839 133.261 155.045 129.959C159.251 126.657 164.407 124.794 169.752 124.646V148.925L166.262 153.971C164.761 156.154 163.958 158.742 163.959 161.392H165.294C165.289 159.009 166.011 156.681 167.363 154.718L170.4 150.293L173.436 154.718C174.786 156.682 175.507 159.009 175.505 161.392H176.84C176.845 158.744 176.047 156.156 174.551 153.971L171.08 148.919V124.646C176.426 124.794 181.582 126.657 185.788 129.959C189.994 133.261 193.027 137.828 194.439 142.986H180.771C179.466 142.987 178.215 143.507 177.292 144.431C176.37 145.354 175.852 146.606 175.852 147.911C175.851 149.316 176.219 150.697 176.92 151.915L178.462 154.585C179.431 156.265 179.942 158.171 179.943 160.111V161.445H181.278V160.111C181.277 157.936 180.704 155.8 179.616 153.917L178.075 151.248C177.491 150.233 177.185 149.082 177.187 147.911C177.189 146.96 177.567 146.049 178.238 145.376C178.91 144.704 179.82 144.324 180.771 144.32H194.786C195.142 146.032 195.317 147.777 195.306 149.526H195.32ZM253.488 142.986H195.827C194.397 137.467 191.211 132.563 186.749 129.014C182.287 125.465 176.793 123.464 171.094 123.311V102.856C174.698 102.698 178.102 101.157 180.598 98.5525C183.094 95.9483 184.49 92.4819 184.495 88.8746V82.2876H196.294V105.119C196.308 110.288 198.37 115.242 202.029 118.895C205.688 122.547 210.645 124.601 215.815 124.606H258.981V137.486C258.979 138.946 258.398 140.344 257.366 141.375C256.333 142.406 254.934 142.986 253.475 142.986H253.488ZM313.018 104.118V114.128C308.181 104.375 300.777 96.1237 291.602 90.2628C291.535 88.1205 291.529 74.5193 291.602 52.4091C291.602 49.393 292.8 46.5005 294.933 44.3678C297.066 42.2351 299.958 41.037 302.974 41.037C305.99 41.037 308.883 42.2351 311.016 44.3678C313.148 46.5005 314.346 49.393 314.346 52.4091V59.4032C314.352 63.4311 315.918 67.3001 318.715 70.1981C321.513 73.0962 325.324 74.7981 329.349 74.9465V84.2898C321.367 85.7713 313.018 93.9067 313.018 104.118ZM354.002 107.014C348.438 107.025 343.048 105.076 338.777 101.511C334.506 97.9449 331.627 92.9895 330.644 87.5132V68.5463C330.644 66.679 331.386 64.8881 332.706 63.5677C334.026 62.2473 335.817 61.5055 337.685 61.5055C339.552 61.5055 341.343 62.2473 342.663 63.5677C343.984 64.8881 344.725 66.679 344.725 68.5463V85.0105L345.213 85.1507C349.697 86.3987 353.651 89.0776 356.472 92.7798C359.294 96.4819 360.828 101.004 360.843 105.659V107.047H353.982L354.002 107.014ZM369.812 77.3223C375.552 77.4562 381.023 79.7849 385.098 83.8294C389.174 87.8738 391.544 93.3265 391.722 99.0655C385.982 98.9317 380.511 96.603 376.436 92.5585C372.36 88.514 369.99 83.0613 369.812 77.3223Z" fill="#465486"/>
</g>
<defs>
<clipPath id="clip0">
<rect width="414" height="160" fill="white"/>
</clipPath>
</defs>
</svg>
