<svg width="62" height="64" viewBox="0 0 62 64" fill="none" xmlns="http://www.w3.org/2000/svg">
<path d="M17.0878 2.11138C17.0878 1.23253 17.8793 3.88783e-05 19.1983 3.88783e-05C20.5174 3.88783e-05 24.4746 2.11138 24.4746 2.11138C24.4746 2.11138 20.5174 4.22272 19.1983 4.22272C17.8793 4.22272 17.0878 2.99154 17.0878 2.11138Z" fill="#3C4266"/>
<path d="M12.8674 2.11134C12.8674 1.23249 12.076 0 10.7569 0C9.43789 0 5.4807 2.11134 5.4807 2.11134C5.4807 2.11134 9.43789 4.22268 10.7569 4.22268C12.076 4.22268 12.8674 2.9915 12.8674 2.11134Z" fill="#3C4266"/>
<path d="M14.9779 38.6639C12.5508 38.6639 10.2952 37.0791 8.27441 33.9543C6.67043 31.4748 5.20758 28.0281 3.92546 23.7091C1.60391 15.8905 0.600098 7.71963 0.600098 5.2784C0.600098 3.35312 2.3993 2.04805 5.66662 1.60599C5.67981 1.60467 5.693 1.60335 5.70619 1.60203C5.78797 1.59543 7.72171 1.4516 9.70295 1.4516C10.067 1.4516 10.3625 1.74718 10.3625 2.11139C10.3625 2.4756 10.067 2.77118 9.70295 2.77118C7.87604 2.77118 6.03332 2.9005 5.82491 2.91634C4.35679 3.11691 1.92048 3.69094 1.92048 5.2784C1.92048 10.694 6.30504 37.3443 14.9792 37.3443C23.6533 37.3443 28.0379 10.694 28.0379 5.2784C28.0379 3.69094 25.6016 3.11691 24.1335 2.91634C23.9251 2.90182 22.0823 2.77118 20.2554 2.77118C19.8914 2.77118 19.5959 2.4756 19.5959 2.11139C19.5959 1.74718 19.8914 1.4516 20.2554 1.4516C22.2367 1.4516 24.1704 1.59543 24.2522 1.60203C24.2654 1.60335 24.2786 1.60467 24.2918 1.60599C27.5591 2.04937 29.3583 3.35312 29.3583 5.2784C29.3583 7.72095 28.3545 15.8905 26.0329 23.7091C24.7508 28.0281 23.288 31.4748 21.684 33.9543C19.6605 37.0804 17.4049 38.6639 14.9779 38.6639Z" fill="#3C4266"/>
<path d="M25.0027 58.7216C19.1118 58.7216 14.3183 53.9262 14.3183 48.033V38.0041C14.3183 37.6399 14.6138 37.3443 14.9779 37.3443C15.3419 37.3443 15.6374 37.6399 15.6374 38.0041V48.033C15.6374 53.1992 19.8386 57.402 25.0027 57.402C30.1669 57.402 34.3681 53.1992 34.3681 48.033V35.8928C34.3681 30.2898 38.9241 25.732 44.5249 25.732C50.1256 25.732 54.6816 30.2898 54.6816 35.8928V54.367C54.6816 54.7312 54.3862 55.0268 54.0221 55.0268C53.658 55.0268 53.3626 54.7312 53.3626 54.367V35.8928C53.3626 31.0182 49.3975 27.0516 44.5249 27.0516C39.6522 27.0516 35.6871 31.0182 35.6871 35.8928V48.033C35.6871 53.9276 30.8937 58.7216 25.0027 58.7216Z" fill="#3C4266"/>
<path d="M54.0218 60.3051C52.2028 60.3051 50.7241 58.8258 50.7241 57.0061C50.7241 55.1864 52.2028 53.7072 54.0218 53.7072C55.8408 53.7072 57.3195 55.1864 57.3195 57.0061C57.3195 58.8258 55.8395 60.3051 54.0218 60.3051ZM54.0221 55.0268C52.9312 55.0268 52.0432 55.9148 52.0432 57.0061C52.0432 58.0974 52.9309 58.9855 54.0218 58.9855C55.1127 58.9855 56.0004 58.0974 56.0004 57.0061C56.0004 55.9148 55.113 55.0268 54.0221 55.0268Z" fill="#3C4266"/>
<path d="M54.0214 64C50.1671 64 47.0303 60.862 47.0303 57.0062C47.0303 53.1504 50.1671 50.0124 54.0214 50.0124C57.8757 50.0124 61.0124 53.1504 61.0124 57.0062C61.0124 60.8633 57.8757 64 54.0214 64ZM54.0214 51.332C50.8939 51.332 48.3494 53.8774 48.3494 57.0062C48.3494 60.1349 50.8939 62.6804 54.0214 62.6804C57.1489 62.6804 59.6933 60.1349 59.6933 57.0062C59.6933 53.8774 57.1489 51.332 54.0214 51.332Z" fill="#3C4266"/>
<path d="M14.977 34.4413C13.5168 34.4413 8.57161 34.1312 6.25006 30.1342C6.06671 29.8188 6.17355 29.415 6.48881 29.2329C6.80406 29.0495 7.2077 29.1577 7.38973 29.4718C9.35645 32.8591 13.6935 33.1231 14.9757 33.1231C16.2578 33.1231 20.5949 32.8591 22.5616 29.4718C22.7449 29.1564 23.1486 29.0495 23.4638 29.2329C23.7791 29.4163 23.8859 29.8201 23.7026 30.1342C21.3823 34.1312 16.4372 34.4413 14.977 34.4413Z" fill="#3C4266"/>
</svg>
