<svg width="80" height="80" viewBox="0 0 80 80" fill="none" xmlns="http://www.w3.org/2000/svg">
<circle cx="31.875" cy="48.125" r="16.875" fill="white"/>
<ellipse cx="32.5" cy="21.25" rx="5" ry="3.75" fill="white"/>
<ellipse cx="32.5" cy="73.75" rx="5" ry="3.75" fill="white"/>
<ellipse rx="5" ry="3.75" transform="matrix(0.725692 -0.68802 0.688005 0.725706 13.7085 28.6612)" fill="white"/>
<ellipse rx="5" ry="3.75" transform="matrix(0.707105 0.707109 -0.707105 0.707108 12.4371 66.1872)" fill="white"/>
<ellipse rx="5" ry="3.75" transform="matrix(0.725692 -0.68802 0.688005 0.725706 49.9585 66.1612)" fill="white"/>
<rect x="30" y="26.25" width="5" height="45" fill="white"/>
<rect x="55" y="45" width="5" height="45" transform="rotate(90 55 45)" fill="white"/>
<rect x="49.0381" y="61.8955" width="5" height="45" transform="rotate(135.136 49.0381 61.8955)" fill="white"/>
<rect width="5" height="6.47659" transform="matrix(0.707102 0.707111 -0.707102 0.707111 18.3296 57.2402)" fill="white"/>
<ellipse cx="5.22177" cy="47.6643" rx="5" ry="3.75" transform="rotate(-87.4141 5.22177 47.6643)" fill="white"/>
<ellipse cx="57.7218" cy="47.6643" rx="5" ry="3.75" transform="rotate(-87.4141 57.7218 47.6643)" fill="white"/>
<path d="M30.6859 42.6516C30.6859 41.8605 30.4512 41.0871 30.0115 40.4293C29.5718 39.7715 28.9468 39.2588 28.2156 38.9561C27.4844 38.6533 26.6798 38.5741 25.9036 38.7285C25.1273 38.8828 24.4143 39.2638 23.8547 39.8232C23.295 40.3826 22.9139 41.0953 22.7595 41.8713C22.6051 42.6472 22.6844 43.4514 22.9872 44.1823C23.2901 44.9133 23.803 45.538 24.4611 45.9775C25.1191 46.417 25.8928 46.6516 26.6843 46.6516C27.7456 46.6516 28.7634 46.2302 29.5139 45.48C30.2643 44.7299 30.6859 43.7125 30.6859 42.6516ZM25.3574 42.6516C25.3574 42.2999 25.4972 41.9625 25.746 41.7138C25.9949 41.465 26.3324 41.3253 26.6843 41.3253C27.0362 41.3253 27.3737 41.465 27.6225 41.7138C27.8713 41.9625 28.0111 42.2999 28.0111 42.6516C28.0111 43.0034 27.8713 43.3407 27.6225 43.5895C27.3737 43.8382 27.0362 43.9779 26.6843 43.9779C26.3324 43.9779 25.9949 43.8382 25.746 43.5895C25.4972 43.3407 25.3574 43.0034 25.3574 42.6516Z" fill="#3C4266"/>
<path d="M32.014 50.6523C28.1598 50.6523 24.0107 51.9155 24.0107 54.6734C24.0107 57.4313 28.223 58.6734 32.014 58.6734C35.8051 58.6734 40.0173 57.4102 40.0173 54.7366C40.0173 52.0629 35.8051 50.6523 32.014 50.6523ZM32.014 55.9997C30.1596 56.1905 28.2953 55.7451 26.7276 54.7366C28.279 53.6857 30.1487 53.2092 32.014 53.3892C33.8862 53.206 35.7636 53.6826 37.3215 54.7366C35.7466 55.7466 33.8753 56.192 32.014 55.9997Z" fill="#3C4266"/>
<path d="M79.6538 11.0526L68.9968 0.378947C68.7404 0.137058 68.4016 0.00160047 68.049 0C67.6931 0.00509382 67.3531 0.148569 67.1013 0.4C66.8594 0.647736 66.724 0.980168 66.724 1.32632C66.724 1.67246 66.8594 2.0049 67.1013 2.25263L68.8283 3.97895L64.0474 8.77895L62.3203 7.05263C62.1987 6.92684 62.0534 6.82624 61.8928 6.75657C61.7322 6.68691 61.5594 6.64954 61.3844 6.64661C61.2094 6.64368 61.0355 6.67524 60.8726 6.73948C60.7098 6.80373 60.5612 6.89941 60.4354 7.02105C60.3095 7.1427 60.2089 7.28793 60.1392 7.44845C60.0695 7.60898 60.0321 7.78165 60.0292 7.95662C60.0262 8.13158 60.0578 8.30541 60.1221 8.46818C60.1864 8.63095 60.2821 8.77947 60.4038 8.90526L60.8039 9.30526L41.7224 28.3579C41.4778 28.6127 41.3413 28.9522 41.3413 29.3053C41.3413 29.6584 41.4778 29.9978 41.7224 30.2526L42.3753 30.9053L41.7856 32.0842C40.0063 30.9594 38.0473 30.1476 35.9937 29.6842V25.4737C36.762 25.0583 37.4111 24.4533 37.8792 23.7163C38.3474 22.9793 38.6192 22.1348 38.6685 21.2632C38.6685 18.3158 35.6778 15.9158 31.9921 15.9158C28.3064 15.9158 25.2735 18.3789 25.2735 21.3263C25.3086 22.1989 25.5721 23.047 26.0378 23.7859C26.5035 24.5248 27.155 25.1285 27.9273 25.5368V29.6C25.7323 30.0665 23.641 30.9298 21.7563 32.1474L18.9552 29.3053C19.2143 28.4648 19.2475 27.571 19.0516 26.7137C18.8556 25.8563 18.4374 25.0656 17.8389 24.4211C15.7328 22.3158 11.9628 22.7579 9.41439 25.3684C6.86598 27.9789 6.40263 31.6842 8.4877 33.7895C8.93152 34.2254 9.45864 34.5675 10.0376 34.7954C10.6166 35.0232 11.2355 35.1322 11.8575 35.1158C12.3688 35.0974 12.8769 35.0268 13.3739 34.9053L16.1751 37.8947C14.974 39.7647 14.1114 41.8313 13.6267 44H9.58289C9.16894 43.2308 8.5641 42.5809 7.82646 42.1127C7.08882 41.6445 6.24314 41.3737 5.37063 41.3263C2.40099 41.3263 0 44.3158 0 48C0 51.6842 2.40099 54.7368 5.32851 54.7368C6.20102 54.6895 7.04669 54.4187 7.78434 53.9505C8.52198 53.4823 9.12681 52.8324 9.54076 52.0632H13.753C14.2464 54.2194 15.1162 56.2719 16.3225 58.1263L13.3107 61.0526C12.4722 60.7865 11.5781 60.7477 10.7196 60.94C9.86118 61.1323 9.06918 61.549 8.42451 62.1474C6.31839 64.2526 6.76067 68.0211 9.35121 70.5684C10.6936 71.964 12.5329 72.7735 14.4691 72.8211C15.0883 72.8479 15.7068 72.752 16.2887 72.5388C16.8707 72.3256 17.4047 71.9994 17.86 71.5789C18.4549 70.9323 18.8692 70.1406 19.0614 69.2833C19.2536 68.4261 19.217 67.5334 18.9552 66.6947L21.9669 63.6842C23.827 64.8337 25.872 65.6528 28.0115 66.1053V70.4211C27.2406 70.831 26.5902 71.4352 26.1247 72.1737C25.6593 72.9122 25.3949 73.7595 25.3578 74.6316C25.2735 77.6 28.3485 80 32.0132 80C35.6778 80 38.6896 77.6 38.6896 74.6737C38.6422 73.8015 38.3713 72.9562 37.9029 72.2189C37.4345 71.4815 36.7843 70.8769 36.0148 70.4632V66.0211C38.1173 65.5549 40.1208 64.721 41.933 63.5579L45.0501 66.6737C44.7956 67.518 44.7646 68.4138 44.9603 69.2736C45.156 70.1335 45.5715 70.9278 46.1663 71.5789C46.6126 72.0175 47.1432 72.3611 47.726 72.589C48.3088 72.817 48.9317 72.9245 49.5572 72.9053C50.5339 72.8908 51.4978 72.6802 52.3914 72.286C53.2851 71.8918 54.0904 71.322 54.7593 70.6105C57.3709 68.0211 57.7922 64.2947 55.7071 62.1895C55.0482 61.5786 54.24 61.1519 53.3638 60.9524C52.4875 60.7528 51.5742 60.7874 50.7156 61.0526L47.5774 57.8947C48.7434 56.0897 49.5845 54.0948 50.0627 52H54.4645C54.8752 52.7718 55.4792 53.424 56.2176 53.8926C56.9559 54.3612 57.8032 54.6304 58.6767 54.6737C61.6253 54.6737 64.0263 51.6632 64.0263 48C64.0263 44.3368 61.6253 41.3263 58.6767 41.3263C57.8032 41.3696 56.9559 41.6388 56.2176 42.1074C55.4792 42.576 54.8752 43.2282 54.4645 44H50.1259C49.6897 41.9654 48.9212 40.0165 47.8512 38.2316L49.1149 37.6211L49.7678 38.2737C50.0192 38.5168 50.3553 38.6527 50.7051 38.6527C51.0548 38.6527 51.3909 38.5168 51.6423 38.2737L70.7027 19.2L71.1029 19.6C71.2264 19.726 71.3739 19.8262 71.5366 19.8945C71.6994 19.9629 71.8741 19.9981 72.0507 19.9981C72.2272 19.9981 72.4019 19.9629 72.5647 19.8945C72.7274 19.8262 72.8749 19.726 72.9984 19.6C73.2308 19.3474 73.3598 19.0168 73.3598 18.6737C73.3598 18.3305 73.2308 17.9999 72.9984 17.7474L71.2714 16.0211L76.0523 11.2421L77.7793 12.9684C78.0316 13.1982 78.3627 13.322 78.7038 13.3141C79.045 13.3062 79.3701 13.1672 79.6114 12.926C79.8527 12.6848 79.9917 12.3599 79.9996 12.0189C80.0075 11.6778 79.8837 11.3469 79.6538 11.0947V11.0526ZM5.32851 52C3.89634 52 2.67478 50.1684 2.67478 48C2.67478 45.8316 3.89634 44 5.32851 44C6.76067 44 8.00329 45.8316 8.00329 48C8.00329 50.1684 6.78173 52 5.32851 52ZM58.6978 44C60.151 44 61.3726 45.8316 61.3726 48C61.3726 50.1684 60.151 52 58.6978 52C57.2446 52 56.0441 50.1684 56.0441 48C56.0441 45.8316 57.2446 44 58.6978 44ZM44.3972 32.9053L47.1141 35.6211L44.2287 37.0316L42.9861 35.7895L44.3972 32.9053ZM32.0132 18.6526C34.1193 18.6526 36.0148 19.8737 36.0148 21.3263C36.0148 22.7789 34.1825 24 32.0132 24C29.8438 24 28.0115 22.7789 28.0115 21.3263C28.0115 19.8737 29.8438 18.6526 32.0132 18.6526ZM11.8154 32.5263C11.2615 32.5408 10.7243 32.3366 10.32 31.9579C9.28803 30.9474 9.73031 28.7789 11.2678 27.2421C12.115 26.3557 13.266 25.8218 14.4902 25.7474C15.0411 25.7272 15.5779 25.9237 15.9855 26.2947C16.9965 27.3263 16.5752 29.4947 15.0378 31.0105C14.2017 31.9154 13.0458 32.4591 11.8154 32.5263ZM15.9013 33.6842C16.6286 33.1642 17.2684 32.5317 17.7968 31.8105L19.6712 33.6842C18.9996 34.2678 18.373 34.9011 17.7968 35.5789L15.9013 33.6842ZM15.9013 69.6C15.4937 69.9711 14.9568 70.1676 14.4059 70.1474C13.1801 70.0792 12.027 69.5443 11.1835 68.6526C9.64607 67.1158 9.20378 64.9684 10.2358 63.9368C11.2678 62.9053 13.416 63.3474 14.9535 64.8842C16.491 66.4211 16.9965 68.6737 15.9855 69.6842L15.9013 69.6ZM17.7125 64.0211C17.4423 63.7163 17.1539 63.4281 16.849 63.1579C16.5245 62.8477 16.1797 62.5594 15.817 62.2947L17.9232 60.2947C18.5126 60.9541 19.1459 61.5731 19.8187 62.1474L17.7125 64.0211ZM31.9289 77.2421C29.8228 77.2421 27.9273 76.0211 27.9273 74.5895C27.9273 73.1579 29.7596 71.9158 31.9289 71.9158C34.0982 71.9158 35.9306 73.1368 35.9306 74.5895C35.9306 76.0421 34.1825 77.3263 32.0132 77.3263L31.9289 77.2421ZM52.1267 63.3895C52.403 63.3767 52.6792 63.4185 52.9394 63.5124C53.1996 63.6063 53.4387 63.7505 53.6431 63.9368C54.654 64.9684 54.2328 67.1158 52.6953 68.6526C51.8519 69.5443 50.6987 70.0792 49.473 70.1474C48.9221 70.1676 48.3852 69.9711 47.9776 69.6C46.9456 68.5684 47.3879 66.4211 48.9254 64.8842C49.3522 64.4433 49.8625 64.0915 50.4265 63.8494C50.9906 63.6072 51.5971 63.4795 52.2109 63.4737L52.1267 63.3895ZM48.0408 62.1263C47.68 62.3849 47.3418 62.6736 47.0299 62.9895C46.7086 63.304 46.4194 63.6495 46.1663 64.0211L44.0602 61.9158C44.7335 61.327 45.3667 60.694 45.9557 60.0211L48.0408 62.1263ZM53.3904 46.5684C53.2431 47.4536 53.2431 48.357 53.3904 49.2421H45.366C45.1763 49.2183 44.9837 49.235 44.8009 49.2913C44.6182 49.3476 44.4496 49.4421 44.3062 49.5685C44.1628 49.695 44.0479 49.8505 43.9693 50.0247C43.8906 50.1989 43.8499 50.3878 43.8499 50.5789C43.8499 50.7701 43.8906 50.959 43.9693 51.1332C44.0479 51.3074 44.1628 51.4629 44.3062 51.5894C44.4496 51.7158 44.6182 51.8103 44.8009 51.8666C44.9837 51.9229 45.1763 51.9396 45.366 51.9158H47.3458C46.611 54.6238 45.1776 57.0914 43.1891 59.0717C41.2006 61.0521 38.7266 62.4756 36.0148 63.2V62.5895C36.0148 62.2377 35.875 61.9004 35.6262 61.6516C35.3773 61.4029 35.0398 61.2632 34.6879 61.2632C34.336 61.2632 33.9985 61.4029 33.7497 61.6516C33.5009 61.9004 33.3611 62.2377 33.3611 62.5895V69.4737C32.474 69.3473 31.5734 69.3473 30.6863 69.4737V62.6737C30.6863 62.32 30.5472 61.9804 30.299 61.7283C30.0507 61.4762 29.7133 61.3318 29.3594 61.3263C29.1824 61.3263 29.0071 61.3612 28.8436 61.4289C28.6801 61.4966 28.5315 61.5958 28.4063 61.721C28.2811 61.8461 28.1819 61.9946 28.1141 62.1581C28.0464 62.3215 28.0115 62.4967 28.0115 62.6737V63.3684C25.243 62.676 22.7097 61.2572 20.6733 59.2586C18.6369 57.26 17.1712 54.7542 16.4278 52H18.6814C19.0072 51.9591 19.3068 51.8006 19.524 51.5545C19.7413 51.3083 19.8611 50.9914 19.8611 50.6632C19.8611 50.3349 19.7413 50.018 19.524 49.7718C19.3068 49.5257 19.0072 49.3673 18.6814 49.3263H10.5306C10.6571 48.4396 10.6571 47.5394 10.5306 46.6526H18.6814C19.0333 46.6526 19.3708 46.5129 19.6196 46.2642C19.8684 46.0154 20.0082 45.6781 20.0082 45.3263C20.0082 44.9746 19.8684 44.6372 19.6196 44.3885C19.3708 44.1397 19.0333 44 18.6814 44H16.3436C17.056 41.1851 18.5165 38.6152 20.5705 36.562C22.6244 34.5089 25.1955 33.049 28.0115 32.3368V34.6526C28.0115 34.8296 28.0464 35.0048 28.1141 35.1683C28.1819 35.3317 28.2811 35.4803 28.4063 35.6054C28.5315 35.7305 28.6801 35.8297 28.8436 35.8974C29.0071 35.9651 29.1824 36 29.3594 36C29.7133 35.9945 30.0507 35.8501 30.299 35.598C30.5472 35.3459 30.6863 35.0064 30.6863 34.6526V26.5474C31.1243 26.6242 31.5685 26.6594 32.0132 26.6526C32.4648 26.6595 32.916 26.6243 33.3611 26.5474V34.6526C33.3611 35.0044 33.5009 35.3417 33.7497 35.5905C33.9985 35.8392 34.336 35.979 34.6879 35.979C35.0398 35.979 35.3773 35.8392 35.6262 35.5905C35.875 35.3417 36.0148 35.0044 36.0148 34.6526V32.4211C37.6532 32.8767 39.2097 33.5872 40.6272 34.5263L40.1639 35.4316C40.0416 35.6824 40.0003 35.9649 40.0456 36.2402C40.0909 36.5155 40.2205 36.7699 40.4166 36.9684L40.8168 37.3684L32.3923 45.7895C32.1624 46.0416 32.0385 46.3726 32.0464 46.7136C32.0543 47.0547 32.1934 47.3795 32.4347 47.6208C32.676 47.862 33.001 48.001 33.3422 48.0089C33.6834 48.0168 34.0145 47.893 34.2667 47.6632L42.6912 39.2421L43.0914 39.6421C43.2108 39.7679 43.3545 39.8681 43.5138 39.9369C43.6731 40.0056 43.8446 40.0414 44.0181 40.0421C44.2297 40.0355 44.4376 39.9854 44.6289 39.8947L45.4503 39.4737C46.3198 40.8892 46.9662 42.43 47.3668 44.0421H45.366C45.0141 44.0421 44.6766 44.1818 44.4278 44.4306C44.1789 44.6793 44.0392 45.0167 44.0392 45.3684C44.0392 45.7202 44.1789 46.0575 44.4278 46.3063C44.6766 46.555 45.0141 46.6947 45.366 46.6947L53.3904 46.5684ZM50.6103 35.3474L44.5025 29.2421L46.4191 27.3053L47.2615 28.1684C47.5139 28.4178 47.8544 28.5577 48.2093 28.5577C48.5642 28.5577 48.9047 28.4178 49.157 28.1684C49.3989 27.9207 49.5343 27.5883 49.5343 27.2421C49.5343 26.896 49.3989 26.5635 49.157 26.3158L48.3146 25.4737L50.2943 23.4947L51.1368 24.3368C51.3891 24.5863 51.7297 24.7261 52.0846 24.7261C52.4394 24.7261 52.78 24.5863 53.0323 24.3368C53.2742 24.0891 53.4096 23.7567 53.4096 23.4105C53.4096 23.0644 53.2742 22.7319 53.0323 22.4842L52.1899 21.6421L54.1696 19.6632L55.0121 20.5053C55.1356 20.6313 55.2831 20.7314 55.4458 20.7998C55.6086 20.8681 55.7833 20.9034 55.9598 20.9034C56.1364 20.9034 56.3111 20.8681 56.4739 20.7998C56.6366 20.7314 56.7841 20.6313 56.9076 20.5053C57.14 20.2527 57.2689 19.9221 57.2689 19.5789C57.2689 19.2358 57.14 18.9052 56.9076 18.6526L56.0441 17.8105L58.1502 15.8316L58.9927 16.6737C59.1145 16.802 59.2616 16.9038 59.4247 16.9727C59.5878 17.0415 59.7634 17.0759 59.9404 17.0737C60.2905 17.0799 60.6297 16.9519 60.8882 16.7158C61.1377 16.4636 61.2776 16.1231 61.2776 15.7684C61.2776 15.4137 61.1377 15.0733 60.8882 14.8211L60.0247 13.9579L62.7205 11.2632L68.8493 17.3895L50.6103 35.3474ZM69.3759 14.1053L65.9218 10.6526L70.7027 5.87368L74.1568 9.32632L69.3759 14.1053Z" fill="#3C4266"/>
</svg>
